<svg version="1.1" viewBox="0 0 16 16" xmlns="http://www.w3.org/2000/svg">
 <g transform="matrix(1.33831233 0 0 1.336633643 -2.649620369 -2.635592599)" stroke-width=".747679">
  <path d="m2.16 1.972h2.497a0.18 0.18 0 0 1 0.188 0.188v11.595a0.18 0.18 0 0 1-0.188 0.187h-2.497a0.18 0.18 0 0 1-0.18-0.187v-11.595a0.18 0.18 0 0 1 0.18-0.188m9.097 0h2.498a0.18 0.18 0 0 1 0.18 0.188v11.595a0.18 0.18 0 0 1-0.18 0.187h-2.498a0.18 0.18 0 0 1-0.187-0.187v-11.595a0.18 0.18 0 0 1 0.187-0.188m-6.112 5.085h5.625v1.801h-5.625zm0 1.801q-0.3 0-0.3 0.3v-2.4q0 0.299 0.3 0.299zm5.625 0q0.3 0 0.3 0.3v-2.4q0 0.299-0.3 0.299z" fill="blue"/>
  <path d="m5.46 1.972h4.995a0.195 0.195 0 0 1 0.195 0.196v4.402a0.195 0.195 0 0 1-0.195 0.188h-4.995a0.195 0.195 0 0 1-0.195-0.188v-4.402a0.195 0.195 0 0 1 0.195-0.196m1.56 3h3.63v-1.207h-3.63zm-1.56 4.186h4.995a0.195 0.195 0 0 1 0.195 0.187v4.403a0.195 0.195 0 0 1-0.195 0.194h-4.995a0.195 0.195 0 0 1-0.195-0.194v-4.403a0.195 0.195 0 0 1 0.195-0.187m1.56 2.992h3.63v-1.208h-3.63z" fill="red"/>
 </g>
</svg>
