<svg xmlns="http://www.w3.org/2000/svg"
  viewBox="0 0 83.69 16">
  <path
    fill="#00F"
    d="M7.446,9.516L6.126,9.516C5.126,9.57 4.54,9.742 4.468,11.46L4.468,15.852C0.14,15.852 0.14,15.852 0.14,13.89L0.14,2.132C0.14,0.172 0.14,0.172 4.468,0.172L4.468,4.554C4.468,6.164 5.126,6.446 6.126,6.5L9.876,6.5C10.882,6.422 11.532,6.164 11.532,4.562L11.532,0.172C15.876,0.172 15.86,0.172 15.86,2.132L15.86,13.89C15.86,15.852 15.876,15.852 11.532,15.852L11.532,11.46C11.546,9.742 10.882,9.578 9.876,9.516Z" />
  <path
    fill="#F00"
    d="M8,3.36C7.446,3.36 7.446,2.524 8.024,2.524L10.75,2.524L10.75,1.39C10.75,1 10.75,0.14 9.96,0.14L6.242,0.172C5.258,0.172 5.258,0.954 5.258,1.344L5.258,4.484C5.258,4.876 5.258,5.726 6.242,5.726L9.96,5.742C10.75,5.742 10.75,4.89 10.75,4.5L10.75,3.36ZM8.008,13.476C7.454,13.476 7.454,12.64 8.032,12.64L10.75,12.64L10.75,11.5C10.75,11.11 10.75,10.258 9.968,10.258L6.25,10.29C5.266,10.29 5.266,11.07 5.266,11.46L5.266,14.602C5.266,14.992 5.266,15.844 6.25,15.844L9.968,15.86C10.758,15.86 10.758,15.008 10.758,14.61L10.758,13.476Z" />
  <text
    class="title"
    x="18.69"
    y="9.96"
    letter-spacing="-.69">HILMARC'S</text>
  <text
    class="subtitle"
    x="18.69"
    y="15.32"
    letter-spacing="-.32">CONSTRUCTION CORPORATION</text>
</svg>