<svg viewBox="0 0 16 16">
  <mask id="m">
    <rect
      id="r"
      width="16"
      height="16"
      ry=".69"
      fill="#fff">
    </rect>
    <g
      fill="#000"
      fill-rule="evenodd">
      <path
        d="M 4.511719 1.394531 C 4.511719 1.304688 4.585938 1.230469 4.675781 1.230469 L 4.757812 1.230469 C 4.847656 1.230469 4.921875 1.304688 4.921875 1.394531 L 4.921875 1.476562 C 4.921875 1.566406 4.996094 1.640625 5.085938 1.640625 L 5.167969 1.640625 C 5.261719 1.640625 5.332031 1.714844 5.332031 1.804688 L 5.332031 2.707031 C 5.332031 2.796875 5.40625 2.871094 5.496094 2.871094 L 5.988281 2.871094 C 6.082031 2.871094 6.152344 2.796875 6.152344 2.707031 L 6.152344 2.625 C 6.152344 2.535156 6.082031 2.460938 5.988281 2.460938 L 5.90625 2.460938 C 5.816406 2.460938 5.742188 2.386719 5.742188 2.296875 L 5.742188 2.214844 C 5.742188 2.125 5.816406 2.050781 5.90625 2.050781 L 5.988281 2.050781 C 6.082031 2.050781 6.152344 1.976562 6.152344 1.886719 L 6.152344 1.394531 C 6.152344 1.304688 6.226562 1.230469 6.316406 1.230469 L 6.398438 1.230469 C 6.492188 1.230469 6.5625 1.304688 6.5625 1.394531 L 6.5625 1.886719 C 6.5625 1.976562 6.636719 2.050781 6.726562 2.050781 L 6.808594 2.050781 C 6.902344 2.050781 6.972656 2.125 6.972656 2.214844 L 6.972656 2.296875 C 6.972656 2.386719 6.902344 2.460938 6.808594 2.460938 L 6.726562 2.460938 C 6.636719 2.460938 6.5625 2.535156 6.5625 2.625 L 6.5625 2.707031 C 6.5625 2.796875 6.636719 2.871094 6.726562 2.871094 L 6.808594 2.871094 C 6.902344 2.871094 6.972656 2.796875 6.972656 2.707031 L 6.972656 2.625 C 6.972656 2.535156 7.046875 2.460938 7.136719 2.460938 L 7.21875 2.460938 C 7.3125 2.460938 7.382812 2.386719 7.382812 2.296875 L 7.382812 1.804688 C 7.382812 1.714844 7.457031 1.640625 7.546875 1.640625 L 7.628906 1.640625 C 7.722656 1.640625 7.792969 1.566406 7.792969 1.476562 L 7.792969 1.394531 C 7.792969 1.304688 7.867188 1.230469 7.957031 1.230469 L 8.042969 1.230469 C 8.132812 1.230469 8.207031 1.304688 8.207031 1.394531 L 8.207031 1.886719 C 8.207031 1.976562 8.132812 2.050781 8.042969 2.050781 L 7.957031 2.050781 C 7.867188 2.050781 7.792969 2.125 7.792969 2.214844 L 7.792969 3.117188 C 7.792969 3.207031 7.722656 3.28125 7.628906 3.28125 L 6.316406 3.28125 C 6.226562 3.28125 6.152344 3.355469 6.152344 3.445312 L 6.152344 3.527344 C 6.152344 3.617188 6.082031 3.691406 5.988281 3.691406 L 5.90625 3.691406 C 5.816406 3.691406 5.742188 3.617188 5.742188 3.527344 L 5.742188 3.445312 C 5.742188 3.355469 5.671875 3.28125 5.578125 3.28125 L 5.496094 3.28125 C 5.40625 3.28125 5.332031 3.355469 5.332031 3.445312 L 5.332031 3.527344 C 5.332031 3.617188 5.261719 3.691406 5.167969 3.691406 L 5.085938 3.691406 C 4.996094 3.691406 4.921875 3.765625 4.921875 3.855469 L 4.921875 3.9375 C 4.921875 4.027344 4.996094 4.101562 5.085938 4.101562 L 5.167969 4.101562 C 5.261719 4.101562 5.332031 4.175781 5.332031 4.265625 L 5.332031 4.347656 C 5.332031 4.4375 5.261719 4.511719 5.167969 4.511719 L 5.085938 4.511719 C 4.996094 4.511719 4.921875 4.585938 4.921875 4.675781 L 4.921875 4.757812 C 4.921875 4.847656 4.847656 4.921875 4.757812 4.921875 L 4.675781 4.921875 C 4.585938 4.921875 4.511719 4.847656 4.511719 4.757812 L 4.511719 3.445312 C 4.511719 3.355469 4.585938 3.28125 4.675781 3.28125 L 4.757812 3.28125 C 4.847656 3.28125 4.921875 3.207031 4.921875 3.117188 L 4.921875 2.625 C 4.921875 2.535156 4.847656 2.460938 4.757812 2.460938 L 4.675781 2.460938 C 4.585938 2.460938 4.511719 2.386719 4.511719 2.296875 Z M 5.332031 1.394531 C 5.332031 1.304688 5.40625 1.230469 5.496094 1.230469 L 5.578125 1.230469 C 5.671875 1.230469 5.742188 1.304688 5.742188 1.394531 L 5.742188 1.476562 C 5.742188 1.566406 5.671875 1.640625 5.578125 1.640625 L 5.496094 1.640625 C 5.40625 1.640625 5.332031 1.566406 5.332031 1.476562 Z M 9.4375 1.394531 C 9.4375 1.304688 9.507812 1.230469 9.601562 1.230469 L 10.09375 1.230469 C 10.183594 1.230469 10.257812 1.304688 10.257812 1.394531 L 10.257812 1.476562 C 10.257812 1.566406 10.328125 1.640625 10.421875 1.640625 L 10.503906 1.640625 C 10.59375 1.640625 10.667969 1.714844 10.667969 1.804688 L 10.667969 1.886719 C 10.667969 1.976562 10.738281 2.050781 10.832031 2.050781 L 10.914062 2.050781 C 11.003906 2.050781 11.078125 1.976562 11.078125 1.886719 L 11.078125 1.804688 C 11.078125 1.714844 11.003906 1.640625 10.914062 1.640625 L 10.832031 1.640625 C 10.738281 1.640625 10.667969 1.566406 10.667969 1.476562 L 10.667969 1.394531 C 10.667969 1.304688 10.738281 1.230469 10.832031 1.230469 L 11.324219 1.230469 C 11.414062 1.230469 11.488281 1.304688 11.488281 1.394531 L 11.488281 2.296875 C 11.488281 2.386719 11.414062 2.460938 11.324219 2.460938 L 11.242188 2.460938 C 11.152344 2.460938 11.078125 2.535156 11.078125 2.625 L 11.078125 2.707031 C 11.078125 2.796875 11.003906 2.871094 10.914062 2.871094 L 10.832031 2.871094 C 10.738281 2.871094 10.667969 2.945312 10.667969 3.035156 L 10.667969 3.117188 C 10.667969 3.207031 10.59375 3.28125 10.503906 3.28125 L 10.421875 3.28125 C 10.328125 3.28125 10.257812 3.207031 10.257812 3.117188 L 10.257812 2.625 C 10.257812 2.535156 10.183594 2.460938 10.09375 2.460938 L 10.011719 2.460938 C 9.917969 2.460938 9.847656 2.535156 9.847656 2.625 L 9.847656 2.707031 C 9.847656 2.796875 9.773438 2.871094 9.683594 2.871094 L 9.601562 2.871094 C 9.507812 2.871094 9.4375 2.796875 9.4375 2.707031 L 9.4375 2.214844 C 9.4375 2.125 9.507812 2.050781 9.601562 2.050781 L 9.683594 2.050781 C 9.773438 2.050781 9.847656 1.976562 9.847656 1.886719 L 9.847656 1.804688 C 9.847656 1.714844 9.773438 1.640625 9.683594 1.640625 L 9.601562 1.640625 C 9.507812 1.640625 9.4375 1.566406 9.4375 1.476562 Z M 8.617188 1.804688 C 8.617188 1.714844 8.6875 1.640625 8.78125 1.640625 L 9.273438 1.640625 C 9.363281 1.640625 9.4375 1.714844 9.4375 1.804688 L 9.4375 1.886719 C 9.4375 1.976562 9.363281 2.050781 9.273438 2.050781 L 9.191406 2.050781 C 9.097656 2.050781 9.027344 2.125 9.027344 2.214844 L 9.027344 2.296875 C 9.027344 2.386719 8.953125 2.460938 8.863281 2.460938 L 8.78125 2.460938 C 8.6875 2.460938 8.617188 2.386719 8.617188 2.296875 Z M 8.207031 3.035156 C 8.207031 2.945312 8.277344 2.871094 8.371094 2.871094 L 8.453125 2.871094 C 8.542969 2.871094 8.617188 2.945312 8.617188 3.035156 L 8.617188 3.117188 C 8.617188 3.207031 8.6875 3.28125 8.78125 3.28125 L 8.863281 3.28125 C 8.953125 3.28125 9.027344 3.355469 9.027344 3.445312 L 9.027344 3.9375 C 9.027344 4.027344 9.097656 4.101562 9.191406 4.101562 L 9.273438 4.101562 C 9.363281 4.101562 9.4375 4.175781 9.4375 4.265625 L 9.4375 4.347656 C 9.4375 4.4375 9.507812 4.511719 9.601562 4.511719 L 9.683594 4.511719 C 9.773438 4.511719 9.847656 4.585938 9.847656 4.675781 L 9.847656 5.167969 C 9.847656 5.261719 9.773438 5.332031 9.683594 5.332031 L 9.601562 5.332031 C 9.507812 5.332031 9.4375 5.261719 9.4375 5.167969 L 9.4375 5.085938 C 9.4375 4.996094 9.363281 4.921875 9.273438 4.921875 L 8.78125 4.921875 C 8.6875 4.921875 8.617188 4.847656 8.617188 4.757812 L 8.617188 4.675781 C 8.617188 4.585938 8.542969 4.511719 8.453125 4.511719 L 7.957031 4.511719 C 7.867188 4.511719 7.792969 4.4375 7.792969 4.347656 L 7.792969 3.855469 C 7.792969 3.765625 7.867188 3.691406 7.957031 3.691406 L 8.042969 3.691406 C 8.132812 3.691406 8.207031 3.765625 8.207031 3.855469 L 8.207031 3.9375 C 8.207031 4.027344 8.277344 4.101562 8.371094 4.101562 L 8.453125 4.101562 C 8.542969 4.101562 8.617188 4.027344 8.617188 3.9375 L 8.617188 3.855469 C 8.617188 3.765625 8.542969 3.691406 8.453125 3.691406 L 8.371094 3.691406 C 8.277344 3.691406 8.207031 3.617188 8.207031 3.527344 Z M 11.078125 3.035156 C 11.078125 2.945312 11.152344 2.871094 11.242188 2.871094 L 11.324219 2.871094 C 11.414062 2.871094 11.488281 2.945312 11.488281 3.035156 L 11.488281 3.117188 C 11.488281 3.207031 11.414062 3.28125 11.324219 3.28125 L 11.242188 3.28125 C 11.152344 3.28125 11.078125 3.207031 11.078125 3.117188 Z M 5.332031 3.855469 C 5.332031 3.765625 5.40625 3.691406 5.496094 3.691406 L 5.578125 3.691406 C 5.671875 3.691406 5.742188 3.765625 5.742188 3.855469 L 5.742188 3.9375 C 5.742188 4.027344 5.671875 4.101562 5.578125 4.101562 L 5.496094 4.101562 C 5.40625 4.101562 5.332031 4.027344 5.332031 3.9375 Z M 6.152344 3.855469 C 6.152344 3.765625 6.226562 3.691406 6.316406 3.691406 L 6.398438 3.691406 C 6.492188 3.691406 6.5625 3.765625 6.5625 3.855469 L 6.5625 3.9375 C 6.5625 4.027344 6.492188 4.101562 6.398438 4.101562 L 6.316406 4.101562 C 6.226562 4.101562 6.152344 4.027344 6.152344 3.9375 Z M 6.972656 3.855469 C 6.972656 3.765625 7.046875 3.691406 7.136719 3.691406 L 7.21875 3.691406 C 7.3125 3.691406 7.382812 3.765625 7.382812 3.855469 L 7.382812 4.347656 C 7.382812 4.4375 7.457031 4.511719 7.546875 4.511719 L 7.628906 4.511719 C 7.722656 4.511719 7.792969 4.585938 7.792969 4.675781 L 7.792969 4.757812 C 7.792969 4.847656 7.722656 4.921875 7.628906 4.921875 L 7.546875 4.921875 C 7.457031 4.921875 7.382812 4.996094 7.382812 5.085938 L 7.382812 5.167969 C 7.382812 5.261719 7.3125 5.332031 7.21875 5.332031 L 5.496094 5.332031 C 5.40625 5.332031 5.332031 5.40625 5.332031 5.496094 L 5.332031 5.578125 C 5.332031 5.671875 5.261719 5.742188 5.167969 5.742188 L 4.675781 5.742188 C 4.585938 5.742188 4.511719 5.816406 4.511719 5.90625 L 4.511719 6.398438 C 4.511719 6.492188 4.4375 6.5625 4.347656 6.5625 L 3.855469 6.5625 C 3.765625 6.5625 3.691406 6.636719 3.691406 6.726562 L 3.691406 6.808594 C 3.691406 6.902344 3.617188 6.972656 3.527344 6.972656 L 3.445312 6.972656 C 3.355469 6.972656 3.28125 6.902344 3.28125 6.808594 L 3.28125 6.726562 C 3.28125 6.636719 3.207031 6.5625 3.117188 6.5625 L 3.035156 6.5625 C 2.945312 6.5625 2.871094 6.492188 2.871094 6.398438 L 2.871094 6.316406 C 2.871094 6.226562 2.945312 6.152344 3.035156 6.152344 L 3.9375 6.152344 C 4.027344 6.152344 4.101562 6.082031 4.101562 5.988281 L 4.101562 5.90625 C 4.101562 5.816406 4.027344 5.742188 3.9375 5.742188 L 3.035156 5.742188 C 2.945312 5.742188 2.871094 5.816406 2.871094 5.90625 L 2.871094 5.988281 C 2.871094 6.082031 2.796875 6.152344 2.707031 6.152344 L 2.625 6.152344 C 2.535156 6.152344 2.460938 6.082031 2.460938 5.988281 L 2.460938 5.496094 C 2.460938 5.40625 2.386719 5.332031 2.296875 5.332031 L 2.214844 5.332031 C 2.125 5.332031 2.050781 5.261719 2.050781 5.167969 L 2.050781 4.675781 C 2.050781 4.585938 2.125 4.511719 2.214844 4.511719 L 3.117188 4.511719 C 3.207031 4.511719 3.28125 4.585938 3.28125 4.675781 L 3.28125 4.757812 C 3.28125 4.847656 3.355469 4.921875 3.445312 4.921875 L 3.527344 4.921875 C 3.617188 4.921875 3.691406 4.996094 3.691406 5.085938 L 3.691406 5.167969 C 3.691406 5.261719 3.765625 5.332031 3.855469 5.332031 L 4.757812 5.332031 C 4.847656 5.332031 4.921875 5.261719 4.921875 5.167969 L 4.921875 5.085938 C 4.921875 4.996094 4.996094 4.921875 5.085938 4.921875 L 5.167969 4.921875 C 5.261719 4.921875 5.332031 4.847656 5.332031 4.757812 L 5.332031 4.675781 C 5.332031 4.585938 5.40625 4.511719 5.496094 4.511719 L 5.578125 4.511719 C 5.671875 4.511719 5.742188 4.4375 5.742188 4.347656 L 5.742188 4.265625 C 5.742188 4.175781 5.816406 4.101562 5.90625 4.101562 L 5.988281 4.101562 C 6.082031 4.101562 6.152344 4.175781 6.152344 4.265625 L 6.152344 4.757812 C 6.152344 4.847656 6.226562 4.921875 6.316406 4.921875 L 6.398438 4.921875 C 6.492188 4.921875 6.5625 4.847656 6.5625 4.757812 L 6.5625 4.675781 C 6.5625 4.585938 6.636719 4.511719 6.726562 4.511719 L 6.808594 4.511719 C 6.902344 4.511719 6.972656 4.4375 6.972656 4.347656 Z M 9.4375 3.855469 C 9.4375 3.765625 9.507812 3.691406 9.601562 3.691406 L 9.683594 3.691406 C 9.773438 3.691406 9.847656 3.765625 9.847656 3.855469 L 9.847656 3.9375 C 9.847656 4.027344 9.773438 4.101562 9.683594 4.101562 L 9.601562 4.101562 C 9.507812 4.101562 9.4375 4.027344 9.4375 3.9375 Z M 10.257812 3.855469 C 10.257812 3.765625 10.328125 3.691406 10.421875 3.691406 L 10.503906 3.691406 C 10.59375 3.691406 10.667969 3.765625 10.667969 3.855469 L 10.667969 3.9375 C 10.667969 4.027344 10.59375 4.101562 10.503906 4.101562 L 10.421875 4.101562 C 10.328125 4.101562 10.257812 4.027344 10.257812 3.9375 Z M 11.078125 3.855469 C 11.078125 3.765625 11.152344 3.691406 11.242188 3.691406 L 11.324219 3.691406 C 11.414062 3.691406 11.488281 3.765625 11.488281 3.855469 L 11.488281 4.347656 C 11.488281 4.4375 11.414062 4.511719 11.324219 4.511719 L 11.242188 4.511719 C 11.152344 4.511719 11.078125 4.4375 11.078125 4.347656 Z M 9.847656 4.265625 C 9.847656 4.175781 9.917969 4.101562 10.011719 4.101562 L 10.09375 4.101562 C 10.183594 4.101562 10.257812 4.175781 10.257812 4.265625 L 10.257812 4.347656 C 10.257812 4.4375 10.183594 4.511719 10.09375 4.511719 L 10.011719 4.511719 C 9.917969 4.511719 9.847656 4.4375 9.847656 4.347656 Z M 3.691406 4.675781 C 3.691406 4.585938 3.765625 4.511719 3.855469 4.511719 L 3.9375 4.511719 C 4.027344 4.511719 4.101562 4.585938 4.101562 4.675781 L 4.101562 4.757812 C 4.101562 4.847656 4.027344 4.921875 3.9375 4.921875 L 3.855469 4.921875 C 3.765625 4.921875 3.691406 4.847656 3.691406 4.757812 Z M 10.257812 4.675781 C 10.257812 4.585938 10.328125 4.511719 10.421875 4.511719 L 10.503906 4.511719 C 10.59375 4.511719 10.667969 4.585938 10.667969 4.675781 L 10.667969 4.757812 C 10.667969 4.847656 10.59375 4.921875 10.503906 4.921875 L 10.421875 4.921875 C 10.328125 4.921875 10.257812 4.847656 10.257812 4.757812 Z M 11.488281 4.675781 C 11.488281 4.585938 11.5625 4.511719 11.652344 4.511719 L 12.554688 4.511719 C 12.644531 4.511719 12.71875 4.585938 12.71875 4.675781 L 12.71875 4.757812 C 12.71875 4.847656 12.644531 4.921875 12.554688 4.921875 L 12.472656 4.921875 C 12.382812 4.921875 12.308594 4.996094 12.308594 5.085938 L 12.308594 5.167969 C 12.308594 5.261719 12.234375 5.332031 12.144531 5.332031 L 11.652344 5.332031 C 11.5625 5.332031 11.488281 5.261719 11.488281 5.167969 Z M 13.539062 4.675781 C 13.539062 4.585938 13.613281 4.511719 13.703125 4.511719 L 14.605469 4.511719 C 14.695312 4.511719 14.769531 4.585938 14.769531 4.675781 L 14.769531 5.167969 C 14.769531 5.261719 14.695312 5.332031 14.605469 5.332031 L 14.523438 5.332031 C 14.433594 5.332031 14.359375 5.40625 14.359375 5.496094 L 14.359375 5.988281 C 14.359375 6.082031 14.285156 6.152344 14.195312 6.152344 L 13.292969 6.152344 C 13.203125 6.152344 13.128906 6.082031 13.128906 5.988281 L 13.128906 5.496094 C 13.128906 5.40625 13.203125 5.332031 13.292969 5.332031 L 13.785156 5.332031 C 13.875 5.332031 13.949219 5.261719 13.949219 5.167969 L 13.949219 5.085938 C 13.949219 4.996094 13.875 4.921875 13.785156 4.921875 L 13.703125 4.921875 C 13.613281 4.921875 13.539062 4.847656 13.539062 4.757812 Z M 8.207031 5.085938 C 8.207031 4.996094 8.277344 4.921875 8.371094 4.921875 L 8.453125 4.921875 C 8.542969 4.921875 8.617188 4.996094 8.617188 5.085938 L 8.617188 5.167969 C 8.617188 5.261719 8.542969 5.332031 8.453125 5.332031 L 8.371094 5.332031 C 8.277344 5.332031 8.207031 5.261719 8.207031 5.167969 Z M 1.230469 5.496094 C 1.230469 5.40625 1.304688 5.332031 1.394531 5.332031 L 1.886719 5.332031 C 1.976562 5.332031 2.050781 5.40625 2.050781 5.496094 L 2.050781 5.988281 C 2.050781 6.082031 1.976562 6.152344 1.886719 6.152344 L 1.804688 6.152344 C 1.714844 6.152344 1.640625 6.226562 1.640625 6.316406 L 1.640625 6.398438 C 1.640625 6.492188 1.566406 6.5625 1.476562 6.5625 L 1.394531 6.5625 C 1.304688 6.5625 1.230469 6.492188 1.230469 6.398438 Z M 11.078125 5.496094 C 11.078125 5.40625 11.152344 5.332031 11.242188 5.332031 L 11.324219 5.332031 C 11.414062 5.332031 11.488281 5.40625 11.488281 5.496094 L 11.488281 5.578125 C 11.488281 5.671875 11.414062 5.742188 11.324219 5.742188 L 11.242188 5.742188 C 11.152344 5.742188 11.078125 5.671875 11.078125 5.578125 Z M 12.308594 5.496094 C 12.308594 5.40625 12.382812 5.332031 12.472656 5.332031 L 12.554688 5.332031 C 12.644531 5.332031 12.71875 5.40625 12.71875 5.496094 L 12.71875 5.578125 C 12.71875 5.671875 12.644531 5.742188 12.554688 5.742188 L 12.472656 5.742188 C 12.382812 5.742188 12.308594 5.671875 12.308594 5.578125 Z M 10.667969 5.90625 C 10.667969 5.816406 10.738281 5.742188 10.832031 5.742188 L 10.914062 5.742188 C 11.003906 5.742188 11.078125 5.816406 11.078125 5.90625 L 11.078125 5.988281 C 11.078125 6.082031 11.003906 6.152344 10.914062 6.152344 L 10.832031 6.152344 C 10.738281 6.152344 10.667969 6.082031 10.667969 5.988281 Z M 11.488281 5.90625 C 11.488281 5.816406 11.5625 5.742188 11.652344 5.742188 L 12.144531 5.742188 C 12.234375 5.742188 12.308594 5.816406 12.308594 5.90625 L 12.308594 5.988281 C 12.308594 6.082031 12.234375 6.152344 12.144531 6.152344 L 12.0625 6.152344 C 11.972656 6.152344 11.898438 6.226562 11.898438 6.316406 L 11.898438 6.398438 C 11.898438 6.492188 11.824219 6.5625 11.734375 6.5625 L 11.242188 6.5625 C 11.152344 6.5625 11.078125 6.492188 11.078125 6.398438 L 11.078125 6.316406 C 11.078125 6.226562 11.152344 6.152344 11.242188 6.152344 L 11.324219 6.152344 C 11.414062 6.152344 11.488281 6.082031 11.488281 5.988281 Z M 4.921875 6.316406 C 4.921875 6.226562 4.996094 6.152344 5.085938 6.152344 L 5.167969 6.152344 C 5.261719 6.152344 5.332031 6.226562 5.332031 6.316406 L 5.332031 8.042969 C 5.332031 8.132812 5.261719 8.207031 5.167969 8.207031 L 5.085938 8.207031 C 4.996094 8.207031 4.921875 8.132812 4.921875 8.042969 L 4.921875 7.546875 C 4.921875 7.457031 4.847656 7.382812 4.757812 7.382812 L 3.855469 7.382812 C 3.765625 7.382812 3.691406 7.3125 3.691406 7.21875 L 3.691406 7.136719 C 3.691406 7.046875 3.765625 6.972656 3.855469 6.972656 L 4.757812 6.972656 C 4.847656 6.972656 4.921875 6.902344 4.921875 6.808594 Z M 12.308594 6.316406 C 12.308594 6.226562 12.382812 6.152344 12.472656 6.152344 L 12.554688 6.152344 C 12.644531 6.152344 12.71875 6.226562 12.71875 6.316406 L 12.71875 6.398438 C 12.71875 6.492188 12.644531 6.5625 12.554688 6.5625 L 12.472656 6.5625 C 12.382812 6.5625 12.308594 6.492188 12.308594 6.398438 Z M 2.460938 6.726562 C 2.460938 6.636719 2.535156 6.5625 2.625 6.5625 L 2.707031 6.5625 C 2.796875 6.5625 2.871094 6.636719 2.871094 6.726562 L 2.871094 6.808594 C 2.871094 6.902344 2.796875 6.972656 2.707031 6.972656 L 2.625 6.972656 C 2.535156 6.972656 2.460938 6.902344 2.460938 6.808594 Z M 10.667969 6.726562 C 10.667969 6.636719 10.738281 6.5625 10.832031 6.5625 L 10.914062 6.5625 C 11.003906 6.5625 11.078125 6.636719 11.078125 6.726562 L 11.078125 6.808594 C 11.078125 6.902344 11.003906 6.972656 10.914062 6.972656 L 10.832031 6.972656 C 10.738281 6.972656 10.667969 6.902344 10.667969 6.808594 Z M 11.898438 6.726562 C 11.898438 6.636719 11.972656 6.5625 12.0625 6.5625 L 12.144531 6.5625 C 12.234375 6.5625 12.308594 6.636719 12.308594 6.726562 L 12.308594 6.808594 C 12.308594 6.902344 12.382812 6.972656 12.472656 6.972656 L 12.554688 6.972656 C 12.644531 6.972656 12.71875 6.902344 12.71875 6.808594 L 12.71875 6.726562 C 12.71875 6.636719 12.792969 6.5625 12.882812 6.5625 L 13.375 6.5625 C 13.464844 6.5625 13.539062 6.636719 13.539062 6.726562 L 13.539062 6.808594 C 13.539062 6.902344 13.464844 6.972656 13.375 6.972656 L 13.292969 6.972656 C 13.203125 6.972656 13.128906 7.046875 13.128906 7.136719 L 13.128906 7.21875 C 13.128906 7.3125 13.203125 7.382812 13.292969 7.382812 L 13.375 7.382812 C 13.464844 7.382812 13.539062 7.457031 13.539062 7.546875 L 13.539062 7.628906 C 13.539062 7.722656 13.464844 7.792969 13.375 7.792969 L 13.292969 7.792969 C 13.203125 7.792969 13.128906 7.867188 13.128906 7.957031 L 13.128906 8.042969 C 13.128906 8.132812 13.054688 8.207031 12.964844 8.207031 L 12.882812 8.207031 C 12.792969 8.207031 12.71875 8.132812 12.71875 8.042969 L 12.71875 7.546875 C 12.71875 7.457031 12.644531 7.382812 12.554688 7.382812 L 12.0625 7.382812 C 11.972656 7.382812 11.898438 7.3125 11.898438 7.21875 Z M 14.359375 6.726562 C 14.359375 6.636719 14.433594 6.5625 14.523438 6.5625 L 14.605469 6.5625 C 14.695312 6.5625 14.769531 6.636719 14.769531 6.726562 L 14.769531 6.808594 C 14.769531 6.902344 14.695312 6.972656 14.605469 6.972656 L 14.523438 6.972656 C 14.433594 6.972656 14.359375 6.902344 14.359375 6.808594 Z M 1.230469 7.136719 C 1.230469 7.046875 1.304688 6.972656 1.394531 6.972656 L 2.296875 6.972656 C 2.386719 6.972656 2.460938 7.046875 2.460938 7.136719 L 2.460938 7.21875 C 2.460938 7.3125 2.386719 7.382812 2.296875 7.382812 L 2.214844 7.382812 C 2.125 7.382812 2.050781 7.457031 2.050781 7.546875 L 2.050781 7.628906 C 2.050781 7.722656 1.976562 7.792969 1.886719 7.792969 L 1.804688 7.792969 C 1.714844 7.792969 1.640625 7.722656 1.640625 7.628906 L 1.640625 7.546875 C 1.640625 7.457031 1.566406 7.382812 1.476562 7.382812 L 1.394531 7.382812 C 1.304688 7.382812 1.230469 7.3125 1.230469 7.21875 Z M 2.871094 7.136719 C 2.871094 7.046875 2.945312 6.972656 3.035156 6.972656 L 3.117188 6.972656 C 3.207031 6.972656 3.28125 7.046875 3.28125 7.136719 L 3.28125 7.21875 C 3.28125 7.3125 3.207031 7.382812 3.117188 7.382812 L 3.035156 7.382812 C 2.945312 7.382812 2.871094 7.3125 2.871094 7.21875 Z M 11.078125 7.136719 C 11.078125 7.046875 11.152344 6.972656 11.242188 6.972656 L 11.324219 6.972656 C 11.414062 6.972656 11.488281 7.046875 11.488281 7.136719 L 11.488281 7.21875 C 11.488281 7.3125 11.414062 7.382812 11.324219 7.382812 L 11.242188 7.382812 C 11.152344 7.382812 11.078125 7.3125 11.078125 7.21875 Z M 13.949219 7.136719 C 13.949219 7.046875 14.023438 6.972656 14.113281 6.972656 L 14.195312 6.972656 C 14.285156 6.972656 14.359375 7.046875 14.359375 7.136719 L 14.359375 7.21875 C 14.359375 7.3125 14.285156 7.382812 14.195312 7.382812 L 14.113281 7.382812 C 14.023438 7.382812 13.949219 7.3125 13.949219 7.21875 Z M 2.460938 7.546875 C 2.460938 7.457031 2.535156 7.382812 2.625 7.382812 L 2.707031 7.382812 C 2.796875 7.382812 2.871094 7.457031 2.871094 7.546875 L 2.871094 7.628906 C 2.871094 7.722656 2.796875 7.792969 2.707031 7.792969 L 2.625 7.792969 C 2.535156 7.792969 2.460938 7.722656 2.460938 7.628906 Z M 11.488281 7.546875 C 11.488281 7.457031 11.5625 7.382812 11.652344 7.382812 L 11.734375 7.382812 C 11.824219 7.382812 11.898438 7.457031 11.898438 7.546875 L 11.898438 8.042969 C 11.898438 8.132812 11.824219 8.207031 11.734375 8.207031 L 11.652344 8.207031 C 11.5625 8.207031 11.488281 8.132812 11.488281 8.042969 Z M 14.359375 7.546875 C 14.359375 7.457031 14.433594 7.382812 14.523438 7.382812 L 14.605469 7.382812 C 14.695312 7.382812 14.769531 7.457031 14.769531 7.546875 L 14.769531 8.042969 C 14.769531 8.132812 14.695312 8.207031 14.605469 8.207031 L 14.523438 8.207031 C 14.433594 8.207031 14.359375 8.132812 14.359375 8.042969 Z M 1.230469 7.957031 C 1.230469 7.867188 1.304688 7.792969 1.394531 7.792969 L 1.476562 7.792969 C 1.566406 7.792969 1.640625 7.867188 1.640625 7.957031 L 1.640625 8.042969 C 1.640625 8.132812 1.714844 8.207031 1.804688 8.207031 L 1.886719 8.207031 C 1.976562 8.207031 2.050781 8.132812 2.050781 8.042969 L 2.050781 7.957031 C 2.050781 7.867188 2.125 7.792969 2.214844 7.792969 L 2.296875 7.792969 C 2.386719 7.792969 2.460938 7.867188 2.460938 7.957031 L 2.460938 8.453125 C 2.460938 8.542969 2.386719 8.617188 2.296875 8.617188 L 1.804688 8.617188 C 1.714844 8.617188 1.640625 8.6875 1.640625 8.78125 L 1.640625 8.863281 C 1.640625 8.953125 1.566406 9.027344 1.476562 9.027344 L 1.394531 9.027344 C 1.304688 9.027344 1.230469 8.953125 1.230469 8.863281 Z M 3.691406 7.957031 C 3.691406 7.867188 3.765625 7.792969 3.855469 7.792969 L 4.347656 7.792969 C 4.4375 7.792969 4.511719 7.867188 4.511719 7.957031 L 4.511719 8.042969 C 4.511719 8.132812 4.585938 8.207031 4.675781 8.207031 L 4.757812 8.207031 C 4.847656 8.207031 4.921875 8.277344 4.921875 8.371094 L 4.921875 8.453125 C 4.921875 8.542969 4.847656 8.617188 4.757812 8.617188 L 4.675781 8.617188 C 4.585938 8.617188 4.511719 8.6875 4.511719 8.78125 L 4.511719 8.863281 C 4.511719 8.953125 4.585938 9.027344 4.675781 9.027344 L 4.757812 9.027344 C 4.847656 9.027344 4.921875 9.097656 4.921875 9.191406 L 4.921875 9.683594 C 4.921875 9.773438 4.847656 9.847656 4.757812 9.847656 L 4.675781 9.847656 C 4.585938 9.847656 4.511719 9.773438 4.511719 9.683594 L 4.511719 9.601562 C 4.511719 9.507812 4.4375 9.4375 4.347656 9.4375 L 4.265625 9.4375 C 4.175781 9.4375 4.101562 9.363281 4.101562 9.273438 L 4.101562 9.191406 C 4.101562 9.097656 4.027344 9.027344 3.9375 9.027344 L 3.855469 9.027344 C 3.765625 9.027344 3.691406 9.097656 3.691406 9.191406 L 3.691406 9.273438 C 3.691406 9.363281 3.765625 9.4375 3.855469 9.4375 L 3.9375 9.4375 C 4.027344 9.4375 4.101562 9.507812 4.101562 9.601562 L 4.101562 9.683594 C 4.101562 9.773438 4.027344 9.847656 3.9375 9.847656 L 3.855469 9.847656 C 3.765625 9.847656 3.691406 9.917969 3.691406 10.011719 L 3.691406 10.09375 C 3.691406 10.183594 3.617188 10.257812 3.527344 10.257812 L 3.445312 10.257812 C 3.355469 10.257812 3.28125 10.183594 3.28125 10.09375 L 3.28125 9.191406 C 3.28125 9.097656 3.207031 9.027344 3.117188 9.027344 L 3.035156 9.027344 C 2.945312 9.027344 2.871094 8.953125 2.871094 8.863281 L 2.871094 8.371094 C 2.871094 8.277344 2.945312 8.207031 3.035156 8.207031 L 3.117188 8.207031 C 3.207031 8.207031 3.28125 8.277344 3.28125 8.371094 L 3.28125 8.453125 C 3.28125 8.542969 3.355469 8.617188 3.445312 8.617188 L 3.9375 8.617188 C 4.027344 8.617188 4.101562 8.542969 4.101562 8.453125 L 4.101562 8.371094 C 4.101562 8.277344 4.027344 8.207031 3.9375 8.207031 L 3.855469 8.207031 C 3.765625 8.207031 3.691406 8.132812 3.691406 8.042969 Z M 13.539062 7.957031 C 13.539062 7.867188 13.613281 7.792969 13.703125 7.792969 L 13.785156 7.792969 C 13.875 7.792969 13.949219 7.867188 13.949219 7.957031 L 13.949219 8.042969 C 13.949219 8.132812 13.875 8.207031 13.785156 8.207031 L 13.703125 8.207031 C 13.613281 8.207031 13.539062 8.132812 13.539062 8.042969 Z M 10.667969 8.371094 C 10.667969 8.277344 10.738281 8.207031 10.832031 8.207031 L 11.324219 8.207031 C 11.414062 8.207031 11.488281 8.277344 11.488281 8.371094 L 11.488281 8.453125 C 11.488281 8.542969 11.414062 8.617188 11.324219 8.617188 L 10.832031 8.617188 C 10.738281 8.617188 10.667969 8.542969 10.667969 8.453125 Z M 12.308594 8.371094 C 12.308594 8.277344 12.382812 8.207031 12.472656 8.207031 L 12.554688 8.207031 C 12.644531 8.207031 12.71875 8.277344 12.71875 8.371094 L 12.71875 8.453125 C 12.71875 8.542969 12.644531 8.617188 12.554688 8.617188 L 12.472656 8.617188 C 12.382812 8.617188 12.308594 8.542969 12.308594 8.453125 Z M 4.921875 8.78125 C 4.921875 8.6875 4.996094 8.617188 5.085938 8.617188 L 5.167969 8.617188 C 5.261719 8.617188 5.332031 8.6875 5.332031 8.78125 L 5.332031 8.863281 C 5.332031 8.953125 5.261719 9.027344 5.167969 9.027344 L 5.085938 9.027344 C 4.996094 9.027344 4.921875 8.953125 4.921875 8.863281 Z M 12.71875 8.78125 C 12.71875 8.6875 12.792969 8.617188 12.882812 8.617188 L 12.964844 8.617188 C 13.054688 8.617188 13.128906 8.6875 13.128906 8.78125 L 13.128906 8.863281 C 13.128906 8.953125 13.203125 9.027344 13.292969 9.027344 L 13.375 9.027344 C 13.464844 9.027344 13.539062 8.953125 13.539062 8.863281 L 13.539062 8.78125 C 13.539062 8.6875 13.613281 8.617188 13.703125 8.617188 L 13.785156 8.617188 C 13.875 8.617188 13.949219 8.6875 13.949219 8.78125 L 13.949219 8.863281 C 13.949219 8.953125 14.023438 9.027344 14.113281 9.027344 L 14.605469 9.027344 C 14.695312 9.027344 14.769531 9.097656 14.769531 9.191406 L 14.769531 9.273438 C 14.769531 9.363281 14.695312 9.4375 14.605469 9.4375 L 14.523438 9.4375 C 14.433594 9.4375 14.359375 9.507812 14.359375 9.601562 L 14.359375 9.683594 C 14.359375 9.773438 14.285156 9.847656 14.195312 9.847656 L 14.113281 9.847656 C 14.023438 9.847656 13.949219 9.773438 13.949219 9.683594 L 13.949219 9.601562 C 13.949219 9.507812 13.875 9.4375 13.785156 9.4375 L 13.703125 9.4375 C 13.613281 9.4375 13.539062 9.507812 13.539062 9.601562 L 13.539062 9.683594 C 13.539062 9.773438 13.464844 9.847656 13.375 9.847656 L 12.472656 9.847656 C 12.382812 9.847656 12.308594 9.773438 12.308594 9.683594 L 12.308594 9.601562 C 12.308594 9.507812 12.382812 9.4375 12.472656 9.4375 L 12.554688 9.4375 C 12.644531 9.4375 12.71875 9.363281 12.71875 9.273438 Z M 1.640625 9.191406 C 1.640625 9.097656 1.714844 9.027344 1.804688 9.027344 L 2.707031 9.027344 C 2.796875 9.027344 2.871094 9.097656 2.871094 9.191406 L 2.871094 9.683594 C 2.871094 9.773438 2.796875 9.847656 2.707031 9.847656 L 2.625 9.847656 C 2.535156 9.847656 2.460938 9.917969 2.460938 10.011719 L 2.460938 10.09375 C 2.460938 10.183594 2.535156 10.257812 2.625 10.257812 L 3.117188 10.257812 C 3.207031 10.257812 3.28125 10.328125 3.28125 10.421875 L 3.28125 10.914062 C 3.28125 11.003906 3.355469 11.078125 3.445312 11.078125 L 3.9375 11.078125 C 4.027344 11.078125 4.101562 11.003906 4.101562 10.914062 L 4.101562 10.832031 C 4.101562 10.738281 4.175781 10.667969 4.265625 10.667969 L 4.347656 10.667969 C 4.4375 10.667969 4.511719 10.59375 4.511719 10.503906 L 4.511719 10.421875 C 4.511719 10.328125 4.585938 10.257812 4.675781 10.257812 L 4.757812 10.257812 C 4.847656 10.257812 4.921875 10.183594 4.921875 10.09375 L 4.921875 10.011719 C 4.921875 9.917969 4.996094 9.847656 5.085938 9.847656 L 5.167969 9.847656 C 5.261719 9.847656 5.332031 9.917969 5.332031 10.011719 L 5.332031 11.324219 C 5.332031 11.414062 5.40625 11.488281 5.496094 11.488281 L 5.578125 11.488281 C 5.671875 11.488281 5.742188 11.5625 5.742188 11.652344 L 5.742188 11.734375 C 5.742188 11.824219 5.671875 11.898438 5.578125 11.898438 L 4.675781 11.898438 C 4.585938 11.898438 4.511719 11.824219 4.511719 11.734375 L 4.511719 11.652344 C 4.511719 11.5625 4.4375 11.488281 4.347656 11.488281 L 3.035156 11.488281 C 2.945312 11.488281 2.871094 11.414062 2.871094 11.324219 L 2.871094 11.242188 C 2.871094 11.152344 2.796875 11.078125 2.707031 11.078125 L 2.625 11.078125 C 2.535156 11.078125 2.460938 11.003906 2.460938 10.914062 L 2.460938 10.832031 C 2.460938 10.738281 2.386719 10.667969 2.296875 10.667969 L 2.214844 10.667969 C 2.125 10.667969 2.050781 10.59375 2.050781 10.503906 L 2.050781 9.601562 C 2.050781 9.507812 1.976562 9.4375 1.886719 9.4375 L 1.804688 9.4375 C 1.714844 9.4375 1.640625 9.363281 1.640625 9.273438 Z M 10.667969 9.191406 C 10.667969 9.097656 10.738281 9.027344 10.832031 9.027344 L 11.734375 9.027344 C 11.824219 9.027344 11.898438 9.097656 11.898438 9.191406 L 11.898438 9.273438 C 11.898438 9.363281 11.824219 9.4375 11.734375 9.4375 L 11.652344 9.4375 C 11.5625 9.4375 11.488281 9.507812 11.488281 9.601562 L 11.488281 9.683594 C 11.488281 9.773438 11.414062 9.847656 11.324219 9.847656 L 11.242188 9.847656 C 11.152344 9.847656 11.078125 9.773438 11.078125 9.683594 L 11.078125 9.601562 C 11.078125 9.507812 11.003906 9.4375 10.914062 9.4375 L 10.832031 9.4375 C 10.738281 9.4375 10.667969 9.363281 10.667969 9.273438 Z M 1.230469 10.011719 C 1.230469 9.917969 1.304688 9.847656 1.394531 9.847656 L 1.476562 9.847656 C 1.566406 9.847656 1.640625 9.917969 1.640625 10.011719 L 1.640625 11.324219 C 1.640625 11.414062 1.566406 11.488281 1.476562 11.488281 L 1.394531 11.488281 C 1.304688 11.488281 1.230469 11.414062 1.230469 11.324219 Z M 11.488281 10.011719 C 11.488281 9.917969 11.5625 9.847656 11.652344 9.847656 L 11.734375 9.847656 C 11.824219 9.847656 11.898438 9.917969 11.898438 10.011719 L 11.898438 10.09375 C 11.898438 10.183594 11.824219 10.257812 11.734375 10.257812 L 11.652344 10.257812 C 11.5625 10.257812 11.488281 10.183594 11.488281 10.09375 Z M 13.539062 10.011719 C 13.539062 9.917969 13.613281 9.847656 13.703125 9.847656 L 13.785156 9.847656 C 13.875 9.847656 13.949219 9.917969 13.949219 10.011719 L 13.949219 10.09375 C 13.949219 10.183594 13.875 10.257812 13.785156 10.257812 L 13.703125 10.257812 C 13.613281 10.257812 13.539062 10.183594 13.539062 10.09375 Z M 14.359375 10.011719 C 14.359375 9.917969 14.433594 9.847656 14.523438 9.847656 L 14.605469 9.847656 C 14.695312 9.847656 14.769531 9.917969 14.769531 10.011719 L 14.769531 10.09375 C 14.769531 10.183594 14.695312 10.257812 14.605469 10.257812 L 14.523438 10.257812 C 14.433594 10.257812 14.359375 10.183594 14.359375 10.09375 Z M 3.691406 10.421875 C 3.691406 10.328125 3.765625 10.257812 3.855469 10.257812 L 3.9375 10.257812 C 4.027344 10.257812 4.101562 10.328125 4.101562 10.421875 L 4.101562 10.503906 C 4.101562 10.59375 4.027344 10.667969 3.9375 10.667969 L 3.855469 10.667969 C 3.765625 10.667969 3.691406 10.59375 3.691406 10.503906 Z M 10.667969 10.421875 C 10.667969 10.328125 10.738281 10.257812 10.832031 10.257812 L 11.324219 10.257812 C 11.414062 10.257812 11.488281 10.328125 11.488281 10.421875 L 11.488281 10.503906 C 11.488281 10.59375 11.414062 10.667969 11.324219 10.667969 L 11.242188 10.667969 C 11.152344 10.667969 11.078125 10.738281 11.078125 10.832031 L 11.078125 10.914062 C 11.078125 11.003906 11.152344 11.078125 11.242188 11.078125 L 12.554688 11.078125 C 12.644531 11.078125 12.71875 11.003906 12.71875 10.914062 L 12.71875 10.832031 C 12.71875 10.738281 12.792969 10.667969 12.882812 10.667969 L 12.964844 10.667969 C 13.054688 10.667969 13.128906 10.738281 13.128906 10.832031 L 13.128906 11.324219 C 13.128906 11.414062 13.203125 11.488281 13.292969 11.488281 L 13.375 11.488281 C 13.464844 11.488281 13.539062 11.5625 13.539062 11.652344 L 13.539062 12.144531 C 13.539062 12.234375 13.464844 12.308594 13.375 12.308594 L 13.292969 12.308594 C 13.203125 12.308594 13.128906 12.382812 13.128906 12.472656 L 13.128906 13.375 C 13.128906 13.464844 13.054688 13.539062 12.964844 13.539062 L 12.882812 13.539062 C 12.792969 13.539062 12.71875 13.464844 12.71875 13.375 L 12.71875 13.292969 C 12.71875 13.203125 12.644531 13.128906 12.554688 13.128906 L 12.0625 13.128906 C 11.972656 13.128906 11.898438 13.203125 11.898438 13.292969 L 11.898438 13.375 C 11.898438 13.464844 11.972656 13.539062 12.0625 13.539062 L 12.144531 13.539062 C 12.234375 13.539062 12.308594 13.613281 12.308594 13.703125 L 12.308594 13.785156 C 12.308594 13.875 12.382812 13.949219 12.472656 13.949219 L 12.554688 13.949219 C 12.644531 13.949219 12.71875 14.023438 12.71875 14.113281 L 12.71875 14.195312 C 12.71875 14.285156 12.644531 14.359375 12.554688 14.359375 L 12.472656 14.359375 C 12.382812 14.359375 12.308594 14.433594 12.308594 14.523438 L 12.308594 14.605469 C 12.308594 14.695312 12.234375 14.769531 12.144531 14.769531 L 10.011719 14.769531 C 9.917969 14.769531 9.847656 14.695312 9.847656 14.605469 L 9.847656 14.523438 C 9.847656 14.433594 9.917969 14.359375 10.011719 14.359375 L 11.324219 14.359375 C 11.414062 14.359375 11.488281 14.285156 11.488281 14.195312 L 11.488281 14.113281 C 11.488281 14.023438 11.414062 13.949219 11.324219 13.949219 L 11.242188 13.949219 C 11.152344 13.949219 11.078125 13.875 11.078125 13.785156 L 11.078125 13.703125 C 11.078125 13.613281 11.152344 13.539062 11.242188 13.539062 L 11.324219 13.539062 C 11.414062 13.539062 11.488281 13.464844 11.488281 13.375 L 11.488281 13.292969 C 11.488281 13.203125 11.414062 13.128906 11.324219 13.128906 L 11.242188 13.128906 C 11.152344 13.128906 11.078125 13.054688 11.078125 12.964844 L 11.078125 12.882812 C 11.078125 12.792969 11.003906 12.71875 10.914062 12.71875 L 10.421875 12.71875 C 10.328125 12.71875 10.257812 12.792969 10.257812 12.882812 L 10.257812 12.964844 C 10.257812 13.054688 10.183594 13.128906 10.09375 13.128906 L 10.011719 13.128906 C 9.917969 13.128906 9.847656 13.054688 9.847656 12.964844 L 9.847656 12.472656 C 9.847656 12.382812 9.773438 12.308594 9.683594 12.308594 L 9.191406 12.308594 C 9.097656 12.308594 9.027344 12.234375 9.027344 12.144531 L 9.027344 11.652344 C 9.027344 11.5625 8.953125 11.488281 8.863281 11.488281 L 8.371094 11.488281 C 8.277344 11.488281 8.207031 11.5625 8.207031 11.652344 L 8.207031 11.734375 C 8.207031 11.824219 8.277344 11.898438 8.371094 11.898438 L 8.453125 11.898438 C 8.542969 11.898438 8.617188 11.972656 8.617188 12.0625 L 8.617188 12.144531 C 8.617188 12.234375 8.542969 12.308594 8.453125 12.308594 L 7.957031 12.308594 C 7.867188 12.308594 7.792969 12.382812 7.792969 12.472656 L 7.792969 12.554688 C 7.792969 12.644531 7.867188 12.71875 7.957031 12.71875 L 8.453125 12.71875 C 8.542969 12.71875 8.617188 12.792969 8.617188 12.882812 L 8.617188 12.964844 C 8.617188 13.054688 8.6875 13.128906 8.78125 13.128906 L 9.683594 13.128906 C 9.773438 13.128906 9.847656 13.203125 9.847656 13.292969 L 9.847656 14.195312 C 9.847656 14.285156 9.773438 14.359375 9.683594 14.359375 L 9.601562 14.359375 C 9.507812 14.359375 9.4375 14.285156 9.4375 14.195312 L 9.4375 13.703125 C 9.4375 13.613281 9.363281 13.539062 9.273438 13.539062 L 9.191406 13.539062 C 9.097656 13.539062 9.027344 13.613281 9.027344 13.703125 L 9.027344 13.785156 C 9.027344 13.875 8.953125 13.949219 8.863281 13.949219 L 8.78125 13.949219 C 8.6875 13.949219 8.617188 13.875 8.617188 13.785156 L 8.617188 13.703125 C 8.617188 13.613281 8.542969 13.539062 8.453125 13.539062 L 8.371094 13.539062 C 8.277344 13.539062 8.207031 13.613281 8.207031 13.703125 L 8.207031 13.785156 C 8.207031 13.875 8.132812 13.949219 8.042969 13.949219 L 7.957031 13.949219 C 7.867188 13.949219 7.792969 14.023438 7.792969 14.113281 L 7.792969 14.605469 C 7.792969 14.695312 7.722656 14.769531 7.628906 14.769531 L 7.546875 14.769531 C 7.457031 14.769531 7.382812 14.695312 7.382812 14.605469 L 7.382812 14.523438 C 7.382812 14.433594 7.3125 14.359375 7.21875 14.359375 L 7.136719 14.359375 C 7.046875 14.359375 6.972656 14.433594 6.972656 14.523438 L 6.972656 14.605469 C 6.972656 14.695312 6.902344 14.769531 6.808594 14.769531 L 5.085938 14.769531 C 4.996094 14.769531 4.921875 14.695312 4.921875 14.605469 L 4.921875 14.113281 C 4.921875 14.023438 4.996094 13.949219 5.085938 13.949219 L 5.578125 13.949219 C 5.671875 13.949219 5.742188 14.023438 5.742188 14.113281 L 5.742188 14.195312 C 5.742188 14.285156 5.816406 14.359375 5.90625 14.359375 L 5.988281 14.359375 C 6.082031 14.359375 6.152344 14.285156 6.152344 14.195312 L 6.152344 14.113281 C 6.152344 14.023438 6.226562 13.949219 6.316406 13.949219 L 7.21875 13.949219 C 7.3125 13.949219 7.382812 13.875 7.382812 13.785156 L 7.382812 13.703125 C 7.382812 13.613281 7.457031 13.539062 7.546875 13.539062 L 7.628906 13.539062 C 7.722656 13.539062 7.792969 13.464844 7.792969 13.375 L 7.792969 13.292969 C 7.792969 13.203125 7.722656 13.128906 7.628906 13.128906 L 7.546875 13.128906 C 7.457031 13.128906 7.382812 13.203125 7.382812 13.292969 L 7.382812 13.375 C 7.382812 13.464844 7.3125 13.539062 7.21875 13.539062 L 7.136719 13.539062 C 7.046875 13.539062 6.972656 13.464844 6.972656 13.375 L 6.972656 12.882812 C 6.972656 12.792969 7.046875 12.71875 7.136719 12.71875 L 7.21875 12.71875 C 7.3125 12.71875 7.382812 12.644531 7.382812 12.554688 L 7.382812 12.0625 C 7.382812 11.972656 7.3125 11.898438 7.21875 11.898438 L 7.136719 11.898438 C 7.046875 11.898438 6.972656 11.824219 6.972656 11.734375 L 6.972656 11.652344 C 6.972656 11.5625 7.046875 11.488281 7.136719 11.488281 L 7.628906 11.488281 C 7.722656 11.488281 7.792969 11.414062 7.792969 11.324219 L 7.792969 11.242188 C 7.792969 11.152344 7.867188 11.078125 7.957031 11.078125 L 8.453125 11.078125 C 8.542969 11.078125 8.617188 11.003906 8.617188 10.914062 L 8.617188 10.832031 C 8.617188 10.738281 8.6875 10.667969 8.78125 10.667969 L 8.863281 10.667969 C 8.953125 10.667969 9.027344 10.738281 9.027344 10.832031 L 9.027344 10.914062 C 9.027344 11.003906 9.097656 11.078125 9.191406 11.078125 L 9.273438 11.078125 C 9.363281 11.078125 9.4375 11.152344 9.4375 11.242188 L 9.4375 11.324219 C 9.4375 11.414062 9.507812 11.488281 9.601562 11.488281 L 9.683594 11.488281 C 9.773438 11.488281 9.847656 11.414062 9.847656 11.324219 L 9.847656 10.832031 C 9.847656 10.738281 9.917969 10.667969 10.011719 10.667969 L 10.503906 10.667969 C 10.59375 10.667969 10.667969 10.59375 10.667969 10.503906 Z M 10.257812 11.652344 C 10.257812 11.5625 10.328125 11.488281 10.421875 11.488281 L 10.914062 11.488281 C 11.003906 11.488281 11.078125 11.5625 11.078125 11.652344 L 11.078125 12.144531 C 11.078125 12.234375 11.003906 12.308594 10.914062 12.308594 L 10.421875 12.308594 C 10.328125 12.308594 10.257812 12.234375 10.257812 12.144531 Z M 11.488281 11.652344 C 11.488281 11.5625 11.5625 11.488281 11.652344 11.488281 L 12.554688 11.488281 C 12.644531 11.488281 12.71875 11.5625 12.71875 11.652344 L 12.71875 12.554688 C 12.71875 12.644531 12.644531 12.71875 12.554688 12.71875 L 11.652344 12.71875 C 11.5625 12.71875 11.488281 12.644531 11.488281 12.554688 Z M 13.949219 10.421875 C 13.949219 10.328125 14.023438 10.257812 14.113281 10.257812 L 14.195312 10.257812 C 14.285156 10.257812 14.359375 10.328125 14.359375 10.421875 L 14.359375 10.503906 C 14.359375 10.59375 14.285156 10.667969 14.195312 10.667969 L 14.113281 10.667969 C 14.023438 10.667969 13.949219 10.59375 13.949219 10.503906 Z M 6.5625 10.832031 C 6.5625 10.738281 6.636719 10.667969 6.726562 10.667969 L 7.628906 10.667969 C 7.722656 10.667969 7.792969 10.738281 7.792969 10.832031 L 7.792969 10.914062 C 7.792969 11.003906 7.722656 11.078125 7.628906 11.078125 L 7.136719 11.078125 C 7.046875 11.078125 6.972656 11.152344 6.972656 11.242188 L 6.972656 11.324219 C 6.972656 11.414062 6.902344 11.488281 6.808594 11.488281 L 6.726562 11.488281 C 6.636719 11.488281 6.5625 11.414062 6.5625 11.324219 Z M 13.539062 10.832031 C 13.539062 10.738281 13.613281 10.667969 13.703125 10.667969 L 13.785156 10.667969 C 13.875 10.667969 13.949219 10.738281 13.949219 10.832031 L 13.949219 10.914062 C 13.949219 11.003906 13.875 11.078125 13.785156 11.078125 L 13.703125 11.078125 C 13.613281 11.078125 13.539062 11.003906 13.539062 10.914062 Z M 14.359375 10.832031 C 14.359375 10.738281 14.433594 10.667969 14.523438 10.667969 L 14.605469 10.667969 C 14.695312 10.667969 14.769531 10.738281 14.769531 10.832031 L 14.769531 11.734375 C 14.769531 11.824219 14.695312 11.898438 14.605469 11.898438 L 14.523438 11.898438 C 14.433594 11.898438 14.359375 11.972656 14.359375 12.0625 L 14.359375 12.144531 C 14.359375 12.234375 14.433594 12.308594 14.523438 12.308594 L 14.605469 12.308594 C 14.695312 12.308594 14.769531 12.382812 14.769531 12.472656 L 14.769531 12.964844 C 14.769531 13.054688 14.695312 13.128906 14.605469 13.128906 L 14.523438 13.128906 C 14.433594 13.128906 14.359375 13.203125 14.359375 13.292969 L 14.359375 13.375 C 14.359375 13.464844 14.285156 13.539062 14.195312 13.539062 L 14.113281 13.539062 C 14.023438 13.539062 13.949219 13.613281 13.949219 13.703125 L 13.949219 14.195312 C 13.949219 14.285156 14.023438 14.359375 14.113281 14.359375 L 14.195312 14.359375 C 14.285156 14.359375 14.359375 14.433594 14.359375 14.523438 L 14.359375 14.605469 C 14.359375 14.695312 14.285156 14.769531 14.195312 14.769531 L 13.292969 14.769531 C 13.203125 14.769531 13.128906 14.695312 13.128906 14.605469 L 13.128906 14.523438 C 13.128906 14.433594 13.203125 14.359375 13.292969 14.359375 L 13.375 14.359375 C 13.464844 14.359375 13.539062 14.285156 13.539062 14.195312 L 13.539062 14.113281 C 13.539062 14.023438 13.464844 13.949219 13.375 13.949219 L 13.292969 13.949219 C 13.203125 13.949219 13.128906 13.875 13.128906 13.785156 L 13.128906 13.703125 C 13.128906 13.613281 13.203125 13.539062 13.292969 13.539062 L 13.375 13.539062 C 13.464844 13.539062 13.539062 13.464844 13.539062 13.375 L 13.539062 13.292969 C 13.539062 13.203125 13.613281 13.128906 13.703125 13.128906 L 13.785156 13.128906 C 13.875 13.128906 13.949219 13.054688 13.949219 12.964844 L 13.949219 12.882812 C 13.949219 12.792969 13.875 12.71875 13.785156 12.71875 L 13.703125 12.71875 C 13.613281 12.71875 13.539062 12.644531 13.539062 12.554688 L 13.539062 12.472656 C 13.539062 12.382812 13.613281 12.308594 13.703125 12.308594 L 13.785156 12.308594 C 13.875 12.308594 13.949219 12.234375 13.949219 12.144531 L 13.949219 11.242188 C 13.949219 11.152344 14.023438 11.078125 14.113281 11.078125 L 14.195312 11.078125 C 14.285156 11.078125 14.359375 11.003906 14.359375 10.914062 Z M 5.742188 11.242188 C 5.742188 11.152344 5.816406 11.078125 5.90625 11.078125 L 5.988281 11.078125 C 6.082031 11.078125 6.152344 11.152344 6.152344 11.242188 L 6.152344 11.324219 C 6.152344 11.414062 6.082031 11.488281 5.988281 11.488281 L 5.90625 11.488281 C 5.816406 11.488281 5.742188 11.414062 5.742188 11.324219 Z M 6.152344 11.652344 C 6.152344 11.5625 6.226562 11.488281 6.316406 11.488281 L 6.398438 11.488281 C 6.492188 11.488281 6.5625 11.5625 6.5625 11.652344 L 6.5625 12.144531 C 6.5625 12.234375 6.492188 12.308594 6.398438 12.308594 L 6.316406 12.308594 C 6.226562 12.308594 6.152344 12.382812 6.152344 12.472656 L 6.152344 12.554688 C 6.152344 12.644531 6.082031 12.71875 5.988281 12.71875 L 5.496094 12.71875 C 5.40625 12.71875 5.332031 12.792969 5.332031 12.882812 L 5.332031 12.964844 C 5.332031 13.054688 5.40625 13.128906 5.496094 13.128906 L 6.398438 13.128906 C 6.492188 13.128906 6.5625 13.203125 6.5625 13.292969 L 6.5625 13.375 C 6.5625 13.464844 6.492188 13.539062 6.398438 13.539062 L 5.085938 13.539062 C 4.996094 13.539062 4.921875 13.613281 4.921875 13.703125 L 4.921875 13.785156 C 4.921875 13.875 4.847656 13.949219 4.757812 13.949219 L 4.675781 13.949219 C 4.585938 13.949219 4.511719 13.875 4.511719 13.785156 L 4.511719 12.882812 C 4.511719 12.792969 4.585938 12.71875 4.675781 12.71875 L 4.757812 12.71875 C 4.847656 12.71875 4.921875 12.644531 4.921875 12.554688 L 4.921875 12.472656 C 4.921875 12.382812 4.996094 12.308594 5.085938 12.308594 L 5.578125 12.308594 C 5.671875 12.308594 5.742188 12.234375 5.742188 12.144531 L 5.742188 12.0625 C 5.742188 11.972656 5.816406 11.898438 5.90625 11.898438 L 5.988281 11.898438 C 6.082031 11.898438 6.152344 11.824219 6.152344 11.734375 Z M 11.898438 12.0625 C 11.898438 11.972656 11.972656 11.898438 12.0625 11.898438 L 12.144531 11.898438 C 12.234375 11.898438 12.308594 11.972656 12.308594 12.0625 L 12.308594 12.144531 C 12.308594 12.234375 12.234375 12.308594 12.144531 12.308594 L 12.0625 12.308594 C 11.972656 12.308594 11.898438 12.234375 11.898438 12.144531 Z M 6.5625 12.472656 C 6.5625 12.382812 6.636719 12.308594 6.726562 12.308594 L 6.808594 12.308594 C 6.902344 12.308594 6.972656 12.382812 6.972656 12.472656 L 6.972656 12.554688 C 6.972656 12.644531 6.902344 12.71875 6.808594 12.71875 L 6.726562 12.71875 C 6.636719 12.71875 6.5625 12.644531 6.5625 12.554688 Z M 10.257812 13.292969 C 10.257812 13.203125 10.328125 13.128906 10.421875 13.128906 L 10.503906 13.128906 C 10.59375 13.128906 10.667969 13.203125 10.667969 13.292969 L 10.667969 13.785156 C 10.667969 13.875 10.59375 13.949219 10.503906 13.949219 L 10.421875 13.949219 C 10.328125 13.949219 10.257812 13.875 10.257812 13.785156 Z M 8.207031 14.113281 C 8.207031 14.023438 8.277344 13.949219 8.371094 13.949219 L 8.453125 13.949219 C 8.542969 13.949219 8.617188 14.023438 8.617188 14.113281 L 8.617188 14.195312 C 8.617188 14.285156 8.542969 14.359375 8.453125 14.359375 L 8.371094 14.359375 C 8.277344 14.359375 8.207031 14.285156 8.207031 14.195312 Z M 9.027344 14.523438 C 9.027344 14.433594 9.097656 14.359375 9.191406 14.359375 L 9.273438 14.359375 C 9.363281 14.359375 9.4375 14.433594 9.4375 14.523438 L 9.4375 14.605469 C 9.4375 14.695312 9.363281 14.769531 9.273438 14.769531 L 9.191406 14.769531 C 9.097656 14.769531 9.027344 14.695312 9.027344 14.605469 Z M 1.660156 1.230469 L 3.671875 1.230469 C 3.910156 1.230469 4.101562 1.421875 4.101562 1.660156 L 4.101562 3.671875 C 4.101562 3.910156 3.910156 4.101562 3.671875 4.101562 L 1.660156 4.101562 C 1.421875 4.101562 1.230469 3.910156 1.230469 3.671875 L 1.230469 1.660156 C 1.230469 1.421875 1.421875 1.230469 1.660156 1.230469 Z M 1.949219 1.640625 L 3.382812 1.640625 C 3.554688 1.640625 3.691406 1.777344 3.691406 1.949219 L 3.691406 3.382812 C 3.691406 3.554688 3.554688 3.691406 3.382812 3.691406 L 1.949219 3.691406 C 1.777344 3.691406 1.640625 3.554688 1.640625 3.382812 L 1.640625 1.949219 C 1.640625 1.777344 1.777344 1.640625 1.949219 1.640625 Z M 2.234375 2.050781 L 3.097656 2.050781 C 3.199219 2.050781 3.28125 2.132812 3.28125 2.234375 L 3.28125 3.097656 C 3.28125 3.199219 3.199219 3.28125 3.097656 3.28125 L 2.234375 3.28125 C 2.132812 3.28125 2.050781 3.199219 2.050781 3.097656 L 2.050781 2.234375 C 2.050781 2.132812 2.132812 2.050781 2.234375 2.050781 Z M 12.328125 1.230469 L 14.339844 1.230469 C 14.578125 1.230469 14.769531 1.421875 14.769531 1.660156 L 14.769531 3.671875 C 14.769531 3.910156 14.578125 4.101562 14.339844 4.101562 L 12.328125 4.101562 C 12.089844 4.101562 11.898438 3.910156 11.898438 3.671875 L 11.898438 1.660156 C 11.898438 1.421875 12.089844 1.230469 12.328125 1.230469 Z M 12.617188 1.640625 L 14.050781 1.640625 C 14.222656 1.640625 14.359375 1.777344 14.359375 1.949219 L 14.359375 3.382812 C 14.359375 3.554688 14.222656 3.691406 14.050781 3.691406 L 12.617188 3.691406 C 12.445312 3.691406 12.308594 3.554688 12.308594 3.382812 L 12.308594 1.949219 C 12.308594 1.777344 12.445312 1.640625 12.617188 1.640625 Z M 12.902344 2.050781 L 13.765625 2.050781 C 13.867188 2.050781 13.949219 2.132812 13.949219 2.234375 L 13.949219 3.097656 C 13.949219 3.199219 13.867188 3.28125 13.765625 3.28125 L 12.902344 3.28125 C 12.800781 3.28125 12.71875 3.199219 12.71875 3.097656 L 12.71875 2.234375 C 12.71875 2.132812 12.800781 2.050781 12.902344 2.050781 Z M 1.660156 11.898438 L 3.671875 11.898438 C 3.910156 11.898438 4.101562 12.089844 4.101562 12.328125 L 4.101562 14.339844 C 4.101562 14.578125 3.910156 14.769531 3.671875 14.769531 L 1.660156 14.769531 C 1.421875 14.769531 1.230469 14.578125 1.230469 14.339844 L 1.230469 12.328125 C 1.230469 12.089844 1.421875 11.898438 1.660156 11.898438 Z M 1.949219 12.308594 L 3.382812 12.308594 C 3.554688 12.308594 3.691406 12.445312 3.691406 12.617188 L 3.691406 14.050781 C 3.691406 14.222656 3.554688 14.359375 3.382812 14.359375 L 1.949219 14.359375 C 1.777344 14.359375 1.640625 14.222656 1.640625 14.050781 L 1.640625 12.617188 C 1.640625 12.445312 1.777344 12.308594 1.949219 12.308594 Z M 2.234375 12.71875 L 3.097656 12.71875 C 3.199219 12.71875 3.28125 12.800781 3.28125 12.902344 L 3.28125 13.765625 C 3.28125 13.867188 3.199219 13.949219 3.097656 13.949219 L 2.234375 13.949219 C 2.132812 13.949219 2.050781 13.867188 2.050781 13.765625 L 2.050781 12.902344 C 2.050781 12.800781 2.132812 12.71875 2.234375 12.71875 Z M 2.234375 12.71875 " />
      <path
        d="M 7.886719 8.3125 L 7.617188 8.3125 C 7.410156 8.320312 7.289062 8.355469 7.277344 8.710938 L 7.277344 9.609375 C 6.386719 9.609375 6.386719 9.609375 6.386719 9.207031 L 6.386719 6.796875 C 6.386719 6.394531 6.386719 6.394531 7.277344 6.394531 L 7.277344 7.292969 C 7.277344 7.625 7.410156 7.679688 7.617188 7.691406 L 8.386719 7.691406 C 8.589844 7.675781 8.722656 7.625 8.722656 7.292969 L 8.722656 6.394531 C 9.617188 6.394531 9.613281 6.394531 9.613281 6.796875 L 9.613281 9.207031 C 9.613281 9.609375 9.617188 9.609375 8.722656 9.609375 L 8.722656 8.710938 C 8.726562 8.355469 8.589844 8.324219 8.386719 8.3125 Z M 7.886719 8.3125 " />
      <path
        d="M 8 7.046875 C 7.886719 7.046875 7.886719 6.875 8.003906 6.875 L 8.5625 6.875 L 8.5625 6.644531 C 8.5625 6.5625 8.5625 6.386719 8.402344 6.386719 L 7.640625 6.394531 C 7.4375 6.394531 7.4375 6.554688 7.4375 6.632812 L 7.4375 7.277344 C 7.4375 7.359375 7.4375 7.535156 7.640625 7.535156 L 8.402344 7.535156 C 8.5625 7.535156 8.5625 7.363281 8.5625 7.28125 L 8.5625 7.046875 Z M 8 9.125 C 7.886719 9.125 7.886719 8.953125 8.007812 8.953125 L 8.5625 8.953125 L 8.5625 8.71875 C 8.5625 8.636719 8.5625 8.464844 8.402344 8.464844 L 7.640625 8.46875 C 7.4375 8.46875 7.4375 8.628906 7.4375 8.710938 L 7.4375 9.355469 C 7.4375 9.433594 7.4375 9.609375 7.640625 9.609375 L 8.402344 9.613281 C 8.566406 9.613281 8.566406 9.4375 8.566406 9.355469 L 8.566406 9.125 Z M 8 9.125 " />
    </g>
  </mask>
  <use
    href="#r"
    mask="url(#m)" />
</svg>
