<svg xmlns="http://www.w3.org/2000/svg"
  viewBox="0 0 16 16">
  <rect
    width="16"
    height="16"
    fill="white" />
  <path
    fill="blue"
    d="M7.835,9.387L6.845,9.387C6.095,9.427 5.655,9.556 5.601,10.845L5.601,14.139C2.355,14.139 2.355,14.139 2.355,12.668L2.355,3.849C2.355,2.379 2.355,2.379 5.601,2.379L5.601,5.665C5.601,6.873 6.095,7.085 6.845,7.125L9.657,7.125C10.411,7.066 10.899,6.873 10.899,5.671L10.899,2.379C14.157,2.379 14.145,2.379 14.145,3.849L14.145,12.668C14.145,14.139 14.157,14.139 10.899,14.139L10.899,10.845C10.91,9.556 10.411,9.434 9.657,9.387Z" />
  <path
    fill="red"
    d="M8.25,4.77C7.835,4.77 7.835,4.143 8.268,4.143L10.313,4.143L10.313,3.293C10.313,3 10.313,2.355 9.72,2.355L6.931,2.379C6.194,2.379 6.194,2.965 6.194,3.258L6.194,5.613C6.194,5.907 6.194,6.544 6.931,6.544L9.72,6.556C10.313,6.556 10.313,5.918 10.313,5.625L10.313,4.77ZM8.256,12.357C7.84,12.357 7.84,11.73 8.274,11.73L10.313,11.73L10.313,10.875C10.313,10.582 10.313,9.944 9.726,9.944L6.938,9.967C6.2,9.967 6.2,10.552 6.2,10.845L6.2,13.201C6.2,13.494 6.2,14.133 6.938,14.133L9.726,14.145C10.319,14.145 10.319,13.506 10.319,13.207L10.319,12.357Z" />
</svg>
