<svg xmlns="http://www.w3.org/2000/svg" viewBox="0 0 94 16"><path fill="currentColor" d="M 78.5 0.152344 C 77.699219 0.175781 76.972656 0.320312 76.308594 0.597656 C 75.644531 0.875 75.082031 1.253906 74.605469 1.75 C 74.132812 2.25 73.765625 2.828125 73.503906 3.503906 C 73.253906 4.167969 73.128906 4.902344 73.128906 5.71875 C 73.128906 6.527344 73.253906 7.265625 73.503906 7.949219 C 73.765625 8.613281 74.132812 9.195312 74.605469 9.683594 C 75.074219 10.179688 75.644531 10.570312 76.308594 10.839844 C 76.972656 11.117188 77.699219 11.257812 78.5 11.277344 C 79.304688 11.300781 80.167969 11.167969 81.082031 10.898438 L 81.082031 8.226562 C 80.460938 8.523438 79.851562 8.691406 79.238281 8.734375 C 78.625 8.773438 78.078125 8.691406 77.582031 8.480469 C 77.089844 8.269531 76.695312 7.941406 76.398438 7.484375 C 76.105469 7.023438 75.964844 6.433594 75.964844 5.71875 C 75.964844 5.003906 76.105469 4.421875 76.398438 3.964844 C 76.695312 3.503906 77.089844 3.167969 77.582031 2.957031 C 78.078125 2.746094 78.632812 2.660156 79.238281 2.703125 C 79.851562 2.746094 80.460938 2.914062 81.082031 3.207031 L 81.082031 0.539062 C 80.167969 0.261719 79.3125 0.132812 78.5 0.160156 Z M 90.097656 0.226562 C 89.273438 0.226562 88.542969 0.355469 87.890625 0.605469 C 87.253906 0.859375 86.738281 1.230469 86.363281 1.726562 C 85.984375 2.222656 85.792969 2.828125 85.792969 3.546875 C 85.792969 4.125 85.902344 4.605469 86.117188 5.003906 C 86.335938 5.382812 86.621094 5.691406 86.964844 5.9375 C 87.328125 6.171875 87.695312 6.367188 88.082031 6.519531 C 88.46875 6.667969 88.839844 6.796875 89.183594 6.914062 C 89.542969 7.03125 89.828125 7.15625 90.046875 7.308594 C 90.265625 7.445312 90.375 7.628906 90.375 7.847656 C 90.375 8.167969 90.171875 8.386719 89.777344 8.53125 C 89.375 8.65625 88.847656 8.683594 88.175781 8.605469 C 87.503906 8.53125 86.757812 8.34375 85.941406 8.050781 L 85.941406 10.761719 C 86.832031 11.007812 87.714844 11.132812 88.570312 11.15625 C 89.433594 11.191406 90.207031 11.097656 90.902344 10.871094 C 91.609375 10.652344 92.160156 10.289062 92.574219 9.792969 C 92.992188 9.289062 93.203125 8.632812 93.203125 7.832031 C 93.203125 7.21875 93.09375 6.71875 92.875 6.332031 C 92.65625 5.929688 92.363281 5.609375 92.011719 5.371094 C 91.667969 5.121094 91.296875 4.917969 90.910156 4.773438 C 90.523438 4.613281 90.148438 4.488281 89.796875 4.378906 C 89.449219 4.261719 89.164062 4.132812 88.949219 4 C 88.730469 3.867188 88.621094 3.6875 88.621094 3.476562 C 88.621094 3.183594 88.804688 2.972656 89.175781 2.847656 C 89.542969 2.710938 90.03125 2.679688 90.632812 2.753906 C 91.253906 2.820312 91.933594 3.007812 92.664062 3.328125 L 92.664062 0.613281 C 91.785156 0.363281 90.929688 0.234375 90.097656 0.234375 Z M 20.277344 0.335938 L 20.277344 11.082031 L 23.03125 11.082031 L 23.03125 6.753906 L 26.386719 6.753906 L 26.386719 11.082031 L 29.140625 11.082031 L 29.140625 0.335938 L 26.386719 0.335938 L 26.386719 4.210938 L 23.03125 4.210938 L 23.03125 0.335938 Z M 30.683594 0.335938 L 30.683594 11.082031 L 33.4375 11.082031 L 33.4375 0.335938 Z M 34.988281 0.335938 L 34.988281 11.082031 L 41.101562 11.082031 L 41.101562 8.574219 L 37.742188 8.574219 L 37.742188 0.335938 Z M 42.015625 0.335938 L 42.015625 11.082031 L 44.617188 11.082031 L 44.617188 3.925781 C 44.933594 5.101562 45.246094 6.300781 45.554688 7.511719 C 45.875 8.714844 46.1875 9.902344 46.503906 11.082031 L 48.90625 11.082031 C 49.222656 9.878906 49.542969 8.664062 49.863281 7.445312 C 50.1875 6.214844 50.507812 4.992188 50.820312 3.796875 L 50.820312 11.082031 L 53.480469 11.082031 C 53.472656 9.3125 53.453125 7.519531 53.445312 5.710938 C 53.4375 3.898438 53.421875 2.105469 53.414062 0.335938 L 49.519531 0.335938 C 49.222656 1.414062 48.921875 2.5 48.621094 3.605469 C 48.324219 4.699219 48.03125 5.785156 47.738281 6.863281 C 47.445312 5.785156 47.144531 4.707031 46.839844 3.605469 C 46.546875 2.5 46.246094 1.40625 45.941406 0.335938 L 41.996094 0.335938 Z M 57.207031 0.335938 C 56.660156 2.105469 56.105469 3.898438 55.550781 5.710938 C 55.007812 7.519531 54.460938 9.3125 53.914062 11.082031 L 56.683594 11.082031 C 56.792969 10.746094 56.886719 10.410156 56.988281 10.070312 C 57.078125 9.726562 57.179688 9.382812 57.289062 9.042969 L 60.898438 9.042969 C 61.007812 9.382812 61.101562 9.726562 61.199219 10.070312 C 61.292969 10.410156 61.394531 10.746094 61.503906 11.082031 L 64.273438 11.082031 C 63.726562 9.3125 63.171875 7.519531 62.617188 5.710938 C 62.074219 3.898438 61.527344 2.105469 60.984375 0.335938 Z M 64.707031 0.335938 L 64.707031 11.082031 L 67.460938 11.082031 L 67.460938 7.476562 L 68.554688 7.476562 C 68.886719 8.066406 69.214844 8.664062 69.542969 9.28125 C 69.878906 9.894531 70.207031 10.492188 70.535156 11.082031 L 73.621094 11.082031 C 73.203125 10.375 72.773438 9.667969 72.347656 8.953125 C 71.925781 8.226562 71.507812 7.511719 71.085938 6.804688 C 71.515625 6.5 71.859375 6.105469 72.113281 5.617188 C 72.363281 5.128906 72.488281 4.582031 72.488281 3.957031 C 72.488281 3.234375 72.320312 2.601562 71.984375 2.0625 C 71.660156 1.515625 71.195312 1.09375 70.601562 0.800781 C 70.003906 0.496094 69.308594 0.34375 68.511719 0.34375 L 64.71875 0.34375 Z M 82.300781 0.335938 C 82.34375 1.078125 82.375 1.820312 82.410156 2.570312 C 82.441406 3.316406 82.476562 4.058594 82.519531 4.800781 L 84.734375 4.800781 C 84.777344 4.058594 84.808594 3.316406 84.84375 2.570312 C 84.878906 1.820312 84.910156 1.078125 84.953125 0.335938 L 82.292969 0.335938 Z M 67.460938 2.839844 L 68.503906 2.839844 C 68.886719 2.839844 69.191406 2.949219 69.402344 3.167969 C 69.617188 3.386719 69.726562 3.664062 69.726562 4 C 69.726562 4.328125 69.628906 4.605469 69.425781 4.832031 C 69.222656 5.050781 68.972656 5.160156 68.652344 5.160156 L 67.460938 5.160156 L 67.460938 2.820312 Z M 59.101562 2.929688 C 59.277344 3.554688 59.464844 4.175781 59.65625 4.808594 C 59.847656 5.441406 60.027344 6.0625 60.210938 6.6875 L 57.996094 6.6875 C 58.171875 6.0625 58.355469 5.441406 58.546875 4.808594 C 58.75 4.175781 58.933594 3.546875 59.109375 2.929688 Z M 24.28125 11.636719 C 24.003906 11.636719 23.75 11.6875 23.515625 11.789062 C 23.28125 11.890625 23.082031 12.023438 22.914062 12.210938 C 22.746094 12.386719 22.609375 12.597656 22.519531 12.851562 C 22.425781 13.09375 22.375 13.363281 22.375 13.660156 C 22.375 13.953125 22.425781 14.222656 22.519531 14.476562 C 22.609375 14.71875 22.746094 14.9375 22.914062 15.117188 C 23.082031 15.300781 23.28125 15.4375 23.515625 15.546875 C 23.75 15.644531 24.003906 15.695312 24.28125 15.695312 C 24.558594 15.695312 24.808594 15.644531 25.042969 15.546875 C 25.277344 15.445312 25.480469 15.300781 25.648438 15.117188 C 25.824219 14.929688 25.960938 14.71875 26.050781 14.476562 C 26.144531 14.222656 26.195312 13.953125 26.195312 13.660156 C 26.195312 13.363281 26.144531 13.09375 26.050781 12.851562 C 25.960938 12.605469 25.824219 12.386719 25.648438 12.210938 C 25.480469 12.023438 25.277344 11.890625 25.042969 11.789062 C 24.816406 11.6875 24.558594 11.636719 24.28125 11.636719 Z M 51.589844 11.636719 C 51.3125 11.636719 51.0625 11.6875 50.828125 11.789062 C 50.59375 11.890625 50.390625 12.023438 50.222656 12.210938 C 50.054688 12.386719 49.921875 12.597656 49.828125 12.851562 C 49.734375 13.09375 49.6875 13.363281 49.6875 13.660156 C 49.6875 13.953125 49.734375 14.222656 49.828125 14.476562 C 49.921875 14.71875 50.054688 14.9375 50.222656 15.117188 C 50.390625 15.300781 50.59375 15.4375 50.828125 15.546875 C 51.0625 15.644531 51.3125 15.695312 51.589844 15.695312 C 51.867188 15.695312 52.121094 15.644531 52.355469 15.546875 C 52.589844 15.445312 52.792969 15.300781 52.957031 15.117188 C 53.136719 14.929688 53.269531 14.71875 53.363281 14.476562 C 53.453125 14.222656 53.503906 13.953125 53.503906 13.660156 C 53.503906 13.363281 53.453125 13.09375 53.363281 12.851562 C 53.269531 12.605469 53.136719 12.386719 52.957031 12.210938 C 52.792969 12.023438 52.589844 11.890625 52.355469 11.789062 C 52.128906 11.6875 51.867188 11.636719 51.589844 11.636719 Z M 63.03125 11.636719 C 62.753906 11.636719 62.5 11.6875 62.265625 11.789062 C 62.03125 11.890625 61.832031 12.023438 61.664062 12.210938 C 61.496094 12.386719 61.359375 12.597656 61.269531 12.851562 C 61.175781 13.09375 61.125 13.363281 61.125 13.660156 C 61.125 13.953125 61.175781 14.222656 61.269531 14.476562 C 61.359375 14.71875 61.496094 14.9375 61.664062 15.117188 C 61.832031 15.300781 62.03125 15.4375 62.265625 15.546875 C 62.5 15.644531 62.753906 15.695312 63.03125 15.695312 C 63.308594 15.695312 63.558594 15.644531 63.792969 15.546875 C 64.027344 15.445312 64.230469 15.300781 64.398438 15.117188 C 64.574219 14.929688 64.707031 14.71875 64.800781 14.476562 C 64.894531 14.222656 64.945312 13.953125 64.945312 13.660156 C 64.945312 13.363281 64.894531 13.09375 64.800781 12.851562 C 64.707031 12.605469 64.574219 12.386719 64.398438 12.210938 C 64.230469 12.023438 64.027344 11.890625 63.792969 11.789062 C 63.566406 11.6875 63.308594 11.636719 63.03125 11.636719 Z M 73.3125 11.636719 C 73.035156 11.636719 72.78125 11.6875 72.546875 11.789062 C 72.3125 11.890625 72.113281 12.023438 71.945312 12.210938 C 71.777344 12.386719 71.640625 12.597656 71.550781 12.851562 C 71.457031 13.09375 71.40625 13.363281 71.40625 13.660156 C 71.40625 13.953125 71.457031 14.222656 71.550781 14.476562 C 71.640625 14.71875 71.777344 14.9375 71.945312 15.117188 C 72.113281 15.300781 72.3125 15.4375 72.546875 15.546875 C 72.78125 15.644531 73.035156 15.695312 73.3125 15.695312 C 73.589844 15.695312 73.839844 15.644531 74.074219 15.546875 C 74.308594 15.445312 74.511719 15.300781 74.679688 15.117188 C 74.855469 14.929688 74.988281 14.71875 75.082031 14.476562 C 75.175781 14.222656 75.226562 13.953125 75.226562 13.660156 C 75.226562 13.363281 75.175781 13.09375 75.082031 12.851562 C 74.988281 12.605469 74.855469 12.386719 74.679688 12.210938 C 74.511719 12.023438 74.308594 11.890625 74.074219 11.789062 C 73.847656 11.6875 73.589844 11.636719 73.3125 11.636719 Z M 88.117188 11.636719 C 87.839844 11.636719 87.585938 11.6875 87.351562 11.789062 C 87.117188 11.890625 86.917969 12.023438 86.75 12.210938 C 86.582031 12.386719 86.445312 12.597656 86.355469 12.851562 C 86.261719 13.09375 86.210938 13.363281 86.210938 13.660156 C 86.210938 13.953125 86.261719 14.222656 86.355469 14.476562 C 86.445312 14.71875 86.582031 14.9375 86.75 15.117188 C 86.917969 15.300781 87.117188 15.4375 87.351562 15.546875 C 87.585938 15.644531 87.839844 15.695312 88.117188 15.695312 C 88.394531 15.695312 88.644531 15.644531 88.871094 15.546875 C 89.105469 15.445312 89.308594 15.300781 89.476562 15.117188 C 89.652344 14.929688 89.785156 14.71875 89.878906 14.476562 C 89.972656 14.222656 90.023438 13.953125 90.023438 13.660156 C 90.023438 13.363281 89.972656 13.09375 89.878906 12.851562 C 89.785156 12.605469 89.652344 12.386719 89.476562 12.210938 C 89.308594 12.023438 89.105469 11.890625 88.871094 11.789062 C 88.644531 11.6875 88.386719 11.636719 88.117188 11.636719 Z M 21.359375 11.65625 C 21.074219 11.664062 20.804688 11.714844 20.570312 11.816406 C 20.335938 11.914062 20.125 12.050781 19.957031 12.226562 C 19.789062 12.402344 19.65625 12.613281 19.5625 12.859375 C 19.472656 13.09375 19.429688 13.363281 19.429688 13.660156 C 19.429688 13.953125 19.472656 14.214844 19.5625 14.457031 C 19.65625 14.695312 19.789062 14.90625 19.957031 15.082031 C 20.125 15.257812 20.335938 15.402344 20.570312 15.496094 C 20.804688 15.597656 21.074219 15.644531 21.359375 15.65625 C 21.652344 15.664062 21.964844 15.613281 22.292969 15.519531 L 22.292969 14.550781 C 22.066406 14.660156 21.847656 14.71875 21.628906 14.738281 C 21.410156 14.753906 21.207031 14.71875 21.03125 14.644531 C 20.855469 14.570312 20.714844 14.449219 20.605469 14.28125 C 20.496094 14.113281 20.445312 13.902344 20.445312 13.640625 C 20.445312 13.382812 20.496094 13.171875 20.605469 13.011719 C 20.714844 12.84375 20.847656 12.722656 21.03125 12.648438 C 21.207031 12.574219 21.410156 12.539062 21.628906 12.554688 C 21.847656 12.574219 22.074219 12.632812 22.292969 12.742188 L 22.292969 11.773438 C 21.964844 11.671875 21.652344 11.628906 21.359375 11.636719 Z M 44.238281 11.65625 C 43.953125 11.664062 43.683594 11.714844 43.449219 11.816406 C 43.214844 11.914062 43.003906 12.050781 42.835938 12.226562 C 42.667969 12.402344 42.535156 12.613281 42.441406 12.859375 C 42.351562 13.09375 42.308594 13.363281 42.308594 13.660156 C 42.308594 13.953125 42.351562 14.214844 42.441406 14.457031 C 42.535156 14.695312 42.667969 14.90625 42.835938 15.082031 C 43.003906 15.257812 43.214844 15.402344 43.449219 15.496094 C 43.683594 15.597656 43.953125 15.644531 44.238281 15.65625 C 44.53125 15.664062 44.84375 15.613281 45.171875 15.519531 L 45.171875 14.550781 C 44.945312 14.660156 44.726562 14.71875 44.507812 14.738281 C 44.289062 14.753906 44.085938 14.71875 43.910156 14.644531 C 43.734375 14.570312 43.59375 14.449219 43.484375 14.28125 C 43.375 14.113281 43.324219 13.902344 43.324219 13.640625 C 43.324219 13.382812 43.375 13.171875 43.484375 13.011719 C 43.59375 12.84375 43.726562 12.722656 43.910156 12.648438 C 44.085938 12.574219 44.289062 12.539062 44.507812 12.554688 C 44.726562 12.574219 44.953125 12.632812 45.171875 12.742188 L 45.171875 11.773438 C 44.84375 11.671875 44.53125 11.628906 44.238281 11.636719 Z M 60.109375 11.65625 C 59.824219 11.664062 59.554688 11.714844 59.320312 11.816406 C 59.085938 11.914062 58.875 12.050781 58.707031 12.226562 C 58.539062 12.402344 58.40625 12.613281 58.3125 12.859375 C 58.222656 13.09375 58.179688 13.363281 58.179688 13.660156 C 58.179688 13.953125 58.222656 14.214844 58.3125 14.457031 C 58.40625 14.695312 58.539062 14.90625 58.707031 15.082031 C 58.875 15.257812 59.085938 15.402344 59.320312 15.496094 C 59.554688 15.597656 59.824219 15.644531 60.109375 15.65625 C 60.402344 15.664062 60.714844 15.613281 61.042969 15.519531 L 61.042969 14.550781 C 60.816406 14.660156 60.597656 14.71875 60.378906 14.738281 C 60.160156 14.753906 59.957031 14.71875 59.78125 14.644531 C 59.605469 14.570312 59.464844 14.449219 59.355469 14.28125 C 59.246094 14.113281 59.195312 13.902344 59.195312 13.640625 C 59.195312 13.382812 59.246094 13.171875 59.355469 13.011719 C 59.464844 12.84375 59.605469 12.722656 59.78125 12.648438 C 59.957031 12.574219 60.160156 12.539062 60.378906 12.554688 C 60.597656 12.574219 60.816406 12.632812 61.042969 12.742188 L 61.042969 11.773438 C 60.714844 11.671875 60.402344 11.628906 60.109375 11.636719 Z M 31.546875 11.6875 C 31.253906 11.6875 30.988281 11.730469 30.75 11.824219 C 30.523438 11.914062 30.339844 12.050781 30.199219 12.226562 C 30.0625 12.402344 29.996094 12.625 29.996094 12.882812 C 29.996094 13.09375 30.039062 13.261719 30.113281 13.40625 C 30.1875 13.542969 30.296875 13.652344 30.414062 13.742188 C 30.542969 13.828125 30.675781 13.894531 30.820312 13.953125 C 30.960938 14.003906 31.09375 14.054688 31.214844 14.097656 C 31.339844 14.140625 31.449219 14.191406 31.523438 14.238281 C 31.597656 14.289062 31.640625 14.359375 31.640625 14.433594 C 31.640625 14.550781 31.566406 14.628906 31.421875 14.679688 C 31.28125 14.71875 31.085938 14.738281 30.84375 14.710938 C 30.601562 14.6875 30.332031 14.617188 30.039062 14.507812 L 30.039062 15.484375 C 30.355469 15.570312 30.675781 15.621094 30.988281 15.628906 C 31.296875 15.636719 31.574219 15.605469 31.824219 15.527344 C 32.078125 15.453125 32.277344 15.316406 32.429688 15.140625 C 32.582031 14.957031 32.65625 14.71875 32.65625 14.433594 C 32.65625 14.214844 32.613281 14.03125 32.539062 13.894531 C 32.464844 13.75 32.355469 13.632812 32.230469 13.550781 C 32.101562 13.457031 31.96875 13.390625 31.835938 13.332031 C 31.691406 13.273438 31.558594 13.230469 31.429688 13.1875 C 31.304688 13.144531 31.203125 13.101562 31.128906 13.050781 C 31.054688 13.003906 31.011719 12.941406 31.011719 12.867188 C 31.011719 12.757812 31.078125 12.683594 31.214844 12.640625 C 31.347656 12.589844 31.523438 12.582031 31.742188 12.605469 C 31.96875 12.632812 32.210938 12.699219 32.472656 12.808594 L 32.472656 11.832031 C 32.152344 11.738281 31.84375 11.695312 31.546875 11.695312 Z M 26.472656 11.722656 L 26.472656 15.597656 L 27.445312 15.597656 L 27.445312 13.40625 C 27.644531 13.769531 27.847656 14.128906 28.050781 14.5 C 28.257812 14.871094 28.460938 15.234375 28.660156 15.597656 L 29.652344 15.597656 L 29.652344 11.722656 L 28.679688 11.722656 L 28.679688 13.910156 C 28.476562 13.550781 28.277344 13.1875 28.066406 12.816406 C 27.863281 12.445312 27.664062 12.085938 27.460938 11.722656 Z M 32.714844 11.722656 L 32.714844 12.625 L 33.589844 12.625 L 33.589844 15.585938 L 34.578125 15.585938 L 34.578125 12.625 L 35.441406 12.625 L 35.441406 11.722656 L 32.707031 11.722656 Z M 35.71875 11.722656 L 35.71875 15.597656 L 36.710938 15.597656 L 36.710938 14.300781 L 37.105469 14.300781 C 37.222656 14.507812 37.347656 14.726562 37.464844 14.949219 C 37.582031 15.167969 37.710938 15.386719 37.816406 15.597656 L 38.925781 15.597656 C 38.773438 15.34375 38.625 15.082031 38.464844 14.828125 C 38.3125 14.570312 38.164062 14.308594 38.011719 14.054688 C 38.164062 13.945312 38.289062 13.800781 38.378906 13.625 C 38.472656 13.449219 38.515625 13.253906 38.515625 13.027344 C 38.515625 12.765625 38.457031 12.539062 38.332031 12.34375 C 38.210938 12.152344 38.042969 11.992188 37.835938 11.890625 C 37.617188 11.78125 37.363281 11.722656 37.078125 11.722656 L 35.710938 11.722656 Z M 38.890625 11.722656 L 38.890625 14.128906 C 38.890625 14.367188 38.933594 14.585938 39.011719 14.769531 C 39.085938 14.964844 39.195312 15.125 39.335938 15.257812 C 39.480469 15.394531 39.648438 15.496094 39.839844 15.570312 C 40.035156 15.644531 40.242188 15.679688 40.480469 15.679688 C 40.707031 15.679688 40.914062 15.644531 41.109375 15.570312 C 41.300781 15.496094 41.476562 15.394531 41.621094 15.257812 C 41.769531 15.125 41.878906 14.957031 41.964844 14.769531 C 42.046875 14.578125 42.089844 14.359375 42.089844 14.121094 L 42.089844 11.714844 L 41.101562 11.714844 L 41.101562 14.070312 C 41.101562 14.273438 41.042969 14.441406 40.933594 14.570312 C 40.824219 14.695312 40.679688 14.753906 40.503906 14.753906 C 40.328125 14.753906 40.175781 14.695312 40.066406 14.570312 C 39.949219 14.441406 39.898438 14.273438 39.898438 14.070312 L 39.898438 11.714844 L 38.910156 11.714844 Z M 45.355469 11.722656 L 45.355469 12.625 L 46.226562 12.625 L 46.226562 15.585938 L 47.226562 15.585938 L 47.226562 12.625 L 48.089844 12.625 L 48.089844 11.722656 Z M 48.386719 11.722656 L 48.386719 15.597656 L 49.375 15.597656 L 49.375 11.722656 Z M 53.78125 11.722656 L 53.78125 15.597656 L 54.753906 15.597656 L 54.753906 13.40625 C 54.957031 13.769531 55.15625 14.128906 55.359375 14.5 C 55.570312 14.871094 55.769531 15.234375 55.972656 15.597656 L 56.960938 15.597656 L 56.960938 11.722656 L 55.988281 11.722656 L 55.988281 13.910156 C 55.789062 13.550781 55.585938 13.1875 55.375 12.816406 C 55.175781 12.445312 54.972656 12.085938 54.773438 11.722656 Z M 65.210938 11.722656 L 65.210938 15.597656 L 66.203125 15.597656 L 66.203125 14.300781 L 66.597656 14.300781 C 66.714844 14.507812 66.839844 14.726562 66.957031 14.949219 C 67.074219 15.167969 67.203125 15.386719 67.3125 15.597656 L 68.417969 15.597656 C 68.265625 15.34375 68.117188 15.082031 67.957031 14.828125 C 67.804688 14.570312 67.65625 14.308594 67.503906 14.054688 C 67.65625 13.945312 67.78125 13.800781 67.871094 13.625 C 67.964844 13.449219 68.007812 13.253906 68.007812 13.027344 C 68.007812 12.765625 67.949219 12.539062 67.824219 12.34375 C 67.707031 12.152344 67.539062 11.992188 67.328125 11.890625 C 67.109375 11.78125 66.859375 11.722656 66.570312 11.722656 L 65.203125 11.722656 Z M 68.503906 11.722656 L 68.503906 15.597656 L 69.492188 15.597656 L 69.492188 14.398438 L 69.988281 14.398438 C 70.25 14.398438 70.484375 14.339844 70.683594 14.230469 C 70.894531 14.121094 71.054688 13.960938 71.171875 13.769531 C 71.289062 13.566406 71.355469 13.339844 71.355469 13.070312 C 71.355469 12.800781 71.296875 12.5625 71.171875 12.363281 C 71.054688 12.160156 70.886719 12.007812 70.667969 11.898438 C 70.449219 11.78125 70.199219 11.730469 69.902344 11.730469 L 68.492188 11.730469 Z M 75.503906 11.722656 L 75.503906 15.597656 L 76.492188 15.597656 L 76.492188 14.300781 L 76.886719 14.300781 C 77.003906 14.507812 77.128906 14.726562 77.246094 14.949219 C 77.367188 15.167969 77.492188 15.386719 77.609375 15.597656 L 79.414062 15.597656 C 79.457031 15.476562 79.488281 15.351562 79.523438 15.234375 C 79.554688 15.105469 79.589844 14.980469 79.632812 14.863281 L 80.933594 14.863281 C 80.972656 14.980469 81.007812 15.105469 81.042969 15.234375 C 81.074219 15.351562 81.109375 15.476562 81.152344 15.597656 L 82.140625 15.597656 C 81.949219 14.957031 81.746094 14.316406 81.546875 13.660156 C 81.351562 13.011719 81.152344 12.363281 80.957031 11.722656 L 79.605469 11.722656 C 79.414062 12.363281 79.210938 13.003906 79.011719 13.660156 C 78.851562 14.199219 78.683594 14.738281 78.523438 15.265625 C 78.441406 15.125 78.347656 14.972656 78.261719 14.828125 C 78.113281 14.570312 77.960938 14.308594 77.808594 14.054688 C 77.960938 13.945312 78.085938 13.800781 78.179688 13.625 C 78.273438 13.449219 78.3125 13.253906 78.3125 13.027344 C 78.3125 12.765625 78.253906 12.539062 78.128906 12.34375 C 78.011719 12.152344 77.84375 11.992188 77.632812 11.890625 C 77.414062 11.78125 77.164062 11.722656 76.878906 11.722656 Z M 81.871094 11.722656 L 81.871094 12.625 L 82.746094 12.625 L 82.746094 15.585938 L 83.734375 15.585938 L 83.734375 12.625 L 84.601562 12.625 L 84.601562 11.722656 L 81.863281 11.722656 Z M 84.902344 11.722656 L 84.902344 15.597656 L 85.890625 15.597656 L 85.890625 11.722656 Z M 90.296875 11.722656 L 90.296875 15.597656 L 91.273438 15.597656 L 91.273438 13.40625 C 91.472656 13.769531 91.675781 14.128906 91.875 14.5 C 92.085938 14.871094 92.289062 15.234375 92.488281 15.597656 L 93.480469 15.597656 L 93.480469 11.722656 L 92.507812 11.722656 L 92.507812 13.910156 C 92.304688 13.550781 92.101562 13.1875 91.894531 12.816406 C 91.691406 12.445312 91.492188 12.085938 91.289062 11.722656 Z M 24.28125 12.554688 C 24.464844 12.554688 24.625 12.605469 24.757812 12.699219 C 24.894531 12.792969 24.992188 12.917969 25.0625 13.078125 C 25.136719 13.238281 25.171875 13.429688 25.171875 13.652344 C 25.171875 13.871094 25.136719 14.0625 25.0625 14.230469 C 24.984375 14.398438 24.886719 14.527344 24.757812 14.628906 C 24.625 14.71875 24.464844 14.761719 24.28125 14.761719 C 24.097656 14.761719 23.9375 14.71875 23.800781 14.628906 C 23.667969 14.535156 23.566406 14.398438 23.492188 14.230469 C 23.417969 14.0625 23.382812 13.871094 23.382812 13.652344 C 23.382812 13.429688 23.417969 13.238281 23.492188 13.078125 C 23.566406 12.910156 23.667969 12.78125 23.800781 12.691406 C 23.9375 12.597656 24.097656 12.554688 24.28125 12.554688 Z M 51.589844 12.554688 C 51.777344 12.554688 51.933594 12.605469 52.070312 12.699219 C 52.203125 12.792969 52.304688 12.917969 52.371094 13.078125 C 52.445312 13.238281 52.488281 13.429688 52.488281 13.652344 C 52.488281 13.871094 52.445312 14.0625 52.371094 14.230469 C 52.296875 14.398438 52.195312 14.527344 52.070312 14.628906 C 51.933594 14.71875 51.777344 14.761719 51.589844 14.761719 C 51.40625 14.761719 51.253906 14.71875 51.113281 14.628906 C 50.976562 14.535156 50.878906 14.398438 50.800781 14.230469 C 50.726562 14.0625 50.691406 13.871094 50.691406 13.652344 C 50.691406 13.429688 50.726562 13.238281 50.800781 13.078125 C 50.878906 12.910156 50.976562 12.78125 51.113281 12.691406 C 51.246094 12.597656 51.40625 12.554688 51.589844 12.554688 Z M 63.03125 12.554688 C 63.214844 12.554688 63.375 12.605469 63.507812 12.699219 C 63.644531 12.792969 63.742188 12.917969 63.8125 13.078125 C 63.886719 13.238281 63.929688 13.429688 63.929688 13.652344 C 63.929688 13.871094 63.886719 14.0625 63.8125 14.230469 C 63.734375 14.398438 63.632812 14.527344 63.507812 14.628906 C 63.375 14.71875 63.214844 14.761719 63.03125 14.761719 C 62.847656 14.761719 62.6875 14.71875 62.550781 14.628906 C 62.417969 14.535156 62.316406 14.398438 62.242188 14.230469 C 62.164062 14.0625 62.132812 13.871094 62.132812 13.652344 C 62.132812 13.429688 62.164062 13.238281 62.242188 13.078125 C 62.316406 12.910156 62.417969 12.78125 62.550781 12.691406 C 62.6875 12.597656 62.847656 12.554688 63.03125 12.554688 Z M 73.3125 12.554688 C 73.496094 12.554688 73.65625 12.605469 73.789062 12.699219 C 73.925781 12.792969 74.023438 12.917969 74.09375 13.078125 C 74.167969 13.238281 74.210938 13.429688 74.210938 13.652344 C 74.210938 13.871094 74.167969 14.0625 74.09375 14.230469 C 74.015625 14.398438 73.914062 14.527344 73.789062 14.628906 C 73.65625 14.71875 73.496094 14.761719 73.3125 14.761719 C 73.128906 14.761719 72.976562 14.71875 72.832031 14.628906 C 72.699219 14.535156 72.597656 14.398438 72.523438 14.230469 C 72.445312 14.0625 72.414062 13.871094 72.414062 13.652344 C 72.414062 13.429688 72.445312 13.238281 72.523438 13.078125 C 72.597656 12.910156 72.699219 12.78125 72.832031 12.691406 C 72.96875 12.597656 73.128906 12.554688 73.3125 12.554688 Z M 88.117188 12.554688 C 88.300781 12.554688 88.460938 12.605469 88.59375 12.699219 C 88.730469 12.792969 88.828125 12.917969 88.90625 13.078125 C 88.980469 13.238281 89.015625 13.429688 89.015625 13.652344 C 89.015625 13.871094 88.980469 14.0625 88.90625 14.230469 C 88.828125 14.398438 88.730469 14.527344 88.59375 14.628906 C 88.460938 14.71875 88.300781 14.761719 88.117188 14.761719 C 87.933594 14.761719 87.773438 14.71875 87.636719 14.628906 C 87.503906 14.535156 87.402344 14.398438 87.328125 14.230469 C 87.253906 14.0625 87.21875 13.871094 87.21875 13.652344 C 87.21875 13.429688 87.253906 13.238281 87.328125 13.078125 C 87.402344 12.910156 87.503906 12.78125 87.636719 12.691406 C 87.773438 12.597656 87.933594 12.554688 88.117188 12.554688 Z M 69.492188 12.625 L 69.902344 12.625 C 70.046875 12.625 70.15625 12.664062 70.238281 12.757812 C 70.316406 12.84375 70.355469 12.953125 70.355469 13.085938 C 70.355469 13.210938 70.324219 13.320312 70.25 13.414062 C 70.171875 13.5 70.082031 13.550781 69.960938 13.550781 L 69.492188 13.550781 Z M 36.71875 12.625 L 37.089844 12.625 C 37.230469 12.625 37.332031 12.664062 37.40625 12.742188 C 37.484375 12.816406 37.523438 12.917969 37.523438 13.042969 C 37.523438 13.160156 37.492188 13.261719 37.414062 13.347656 C 37.339844 13.421875 37.246094 13.464844 37.136719 13.464844 L 36.703125 13.464844 L 36.703125 12.625 Z M 66.210938 12.625 L 66.582031 12.625 C 66.722656 12.625 66.832031 12.664062 66.90625 12.742188 C 66.984375 12.816406 67.023438 12.917969 67.023438 13.042969 C 67.023438 13.160156 66.992188 13.261719 66.917969 13.347656 C 66.839844 13.421875 66.75 13.464844 66.640625 13.464844 L 66.203125 13.464844 L 66.203125 12.625 Z M 76.492188 12.625 L 76.863281 12.625 C 77.003906 12.625 77.113281 12.664062 77.1875 12.742188 C 77.265625 12.816406 77.304688 12.917969 77.304688 13.042969 C 77.304688 13.160156 77.273438 13.261719 77.199219 13.347656 C 77.121094 13.421875 77.03125 13.464844 76.921875 13.464844 L 76.484375 13.464844 L 76.484375 12.625 Z M 80.277344 12.65625 C 80.34375 12.882812 80.410156 13.101562 80.480469 13.332031 C 80.546875 13.558594 80.613281 13.785156 80.679688 14.003906 L 79.882812 14.003906 C 79.949219 13.777344 80.015625 13.558594 80.085938 13.332031 C 80.160156 13.101562 80.226562 12.875 80.285156 12.65625 Z M 80.277344 12.65625 "/><path fill="#00F" d="M 7.644531 9.53125 L 6.328125 9.53125 C 5.328125 9.589844 4.742188 9.761719 4.675781 11.484375 L 4.675781 15.882812 C 0.351562 15.882812 0.351562 15.882812 0.351562 13.921875 L 0.351562 2.140625 C 0.351562 0.167969 0.351562 0.167969 4.675781 0.167969 L 4.675781 4.5625 C 4.675781 6.179688 5.328125 6.457031 6.328125 6.519531 L 10.070312 6.519531 C 11.078125 6.433594 11.726562 6.179688 11.726562 4.574219 L 11.726562 0.167969 C 16.0625 0.167969 16.046875 0.167969 16.046875 2.140625 L 16.046875 13.921875 C 16.046875 15.882812 16.0625 15.882812 11.726562 15.882812 L 11.726562 11.484375 C 11.742188 9.761719 11.078125 9.601562 10.070312 9.53125 Z M 7.644531 9.53125 "/><path fill="#F00" d="M 8.199219 3.367188 C 7.644531 3.367188 7.644531 2.527344 8.226562 2.527344 L 10.945312 2.527344 L 10.945312 1.390625 C 10.945312 1.003906 10.945312 0.144531 10.15625 0.144531 L 6.445312 0.167969 C 5.464844 0.167969 5.464844 0.960938 5.464844 1.347656 L 5.464844 4.496094 C 5.464844 4.882812 5.464844 5.734375 6.445312 5.734375 L 10.15625 5.75 C 10.945312 5.75 10.945312 4.902344 10.945312 4.515625 L 10.945312 3.367188 Z M 8.207031 13.507812 C 7.652344 13.507812 7.652344 12.664062 8.234375 12.664062 L 10.945312 12.664062 L 10.945312 11.527344 C 10.945312 11.132812 10.945312 10.28125 10.164062 10.28125 L 6.453125 10.316406 C 5.472656 10.316406 5.472656 11.089844 5.472656 11.484375 L 5.472656 14.636719 C 5.472656 15.023438 5.472656 15.875 6.453125 15.875 L 10.164062 15.890625 C 10.953125 15.890625 10.953125 15.039062 10.953125 14.644531 L 10.953125 13.507812 Z M 8.207031 13.507812 "/></svg>