<svg viewBox="-3 -3 39 39"><path fill="currentColor" d="M 8 0.4a 0.4,0.4 0 0 1 0.4,-0.4L 8.6 0a 0.4,0.4 0 0 1 0.4,0.4L 9 0.6a 0.4,0.4 0 0 0 0.4,0.4L 9.6 1a 0.4,0.4 0 0 1 0.4,0.4L 10 3.6a 0.4,0.4 0 0 0 0.4,0.4L 11.6 4a 0.4,0.4 0 0 0 0.4,-0.4L 12 3.4a 0.4,0.4 0 0 0 -0.4,-0.4L 11.4 3a 0.4,0.4 0 0 1 -0.4,-0.4L 11 2.4a 0.4,0.4 0 0 1 0.4,-0.4L 11.6 2a 0.4,0.4 0 0 0 0.4,-0.4L 12 0.4a 0.4,0.4 0 0 1 0.4,-0.4L 12.6 0a 0.4,0.4 0 0 1 0.4,0.4L 13 1.6a 0.4,0.4 0 0 0 0.4,0.4L 13.6 2a 0.4,0.4 0 0 1 0.4,0.4L 14 2.6a 0.4,0.4 0 0 1 -0.4,0.4L 13.4 3a 0.4,0.4 0 0 0 -0.4,0.4L 13 3.6a 0.4,0.4 0 0 0 0.4,0.4L 13.6 4a 0.4,0.4 0 0 0 0.4,-0.4L 14 3.4a 0.4,0.4 0 0 1 0.4,-0.4L 14.6 3a 0.4,0.4 0 0 0 0.4,-0.4L 15 1.4a 0.4,0.4 0 0 1 0.4,-0.4L 15.6 1a 0.4,0.4 0 0 0 0.4,-0.4L 16 0.4a 0.4,0.4 0 0 1 0.4,-0.4L 16.6 0a 0.4,0.4 0 0 1 0.4,0.4L 17 1.6a 0.4,0.4 0 0 1 -0.4,0.4L 16.4 2a 0.4,0.4 0 0 0 -0.4,0.4L 16 4.6a 0.4,0.4 0 0 1 -0.4,0.4L 12.4 5a 0.4,0.4 0 0 0 -0.4,0.4L 12 5.6a 0.4,0.4 0 0 1 -0.4,0.4L 11.4 6a 0.4,0.4 0 0 1 -0.4,-0.4L 11 5.4a 0.4,0.4 0 0 0 -0.4,-0.4L 10.4 5a 0.4,0.4 0 0 0 -0.4,0.4L 10 5.6a 0.4,0.4 0 0 1 -0.4,0.4L 9.4 6a 0.4,0.4 0 0 0 -0.4,0.4L 9 6.6a 0.4,0.4 0 0 0 0.4,0.4L 9.6 7a 0.4,0.4 0 0 1 0.4,0.4L 10 7.6a 0.4,0.4 0 0 1 -0.4,0.4L 9.4 8a 0.4,0.4 0 0 0 -0.4,0.4L 9 8.6a 0.4,0.4 0 0 1 -0.4,0.4L 8.4 9a 0.4,0.4 0 0 1 -0.4,-0.4L 8 5.4a 0.4,0.4 0 0 1 0.4,-0.4L 8.6 5a 0.4,0.4 0 0 0 0.4,-0.4L 9 3.4a 0.4,0.4 0 0 0 -0.4,-0.4L 8.4 3a 0.4,0.4 0 0 1 -0.4,-0.4z M 10 0.4a 0.4,0.4 0 0 1 0.4,-0.4L 10.6 0a 0.4,0.4 0 0 1 0.4,0.4L 11 0.6a 0.4,0.4 0 0 1 -0.4,0.4L 10.4 1a 0.4,0.4 0 0 1 -0.4,-0.4z M 20 0.4a 0.4,0.4 0 0 1 0.4,-0.4L 21.6 0a 0.4,0.4 0 0 1 0.4,0.4L 22 0.6a 0.4,0.4 0 0 0 0.4,0.4L 22.6 1a 0.4,0.4 0 0 1 0.4,0.4L 23 1.6a 0.4,0.4 0 0 0 0.4,0.4L 23.6 2a 0.4,0.4 0 0 0 0.4,-0.4L 24 1.4a 0.4,0.4 0 0 0 -0.4,-0.4L 23.4 1a 0.4,0.4 0 0 1 -0.4,-0.4L 23 0.4a 0.4,0.4 0 0 1 0.4,-0.4L 24.6 0a 0.4,0.4 0 0 1 0.4,0.4L 25 2.6a 0.4,0.4 0 0 1 -0.4,0.4L 24.4 3a 0.4,0.4 0 0 0 -0.4,0.4L 24 3.6a 0.4,0.4 0 0 1 -0.4,0.4L 23.4 4a 0.4,0.4 0 0 0 -0.4,0.4L 23 4.6a 0.4,0.4 0 0 1 -0.4,0.4L 22.4 5a 0.4,0.4 0 0 1 -0.4,-0.4L 22 3.4a 0.4,0.4 0 0 0 -0.4,-0.4L 21.4 3a 0.4,0.4 0 0 0 -0.4,0.4L 21 3.6a 0.4,0.4 0 0 1 -0.4,0.4L 20.4 4a 0.4,0.4 0 0 1 -0.4,-0.4L 20 2.4a 0.4,0.4 0 0 1 0.4,-0.4L 20.6 2a 0.4,0.4 0 0 0 0.4,-0.4L 21 1.4a 0.4,0.4 0 0 0 -0.4,-0.4L 20.4 1a 0.4,0.4 0 0 1 -0.4,-0.4z M 18 1.4a 0.4,0.4 0 0 1 0.4,-0.4L 19.6 1a 0.4,0.4 0 0 1 0.4,0.4L 20 1.6a 0.4,0.4 0 0 1 -0.4,0.4L 19.4 2a 0.4,0.4 0 0 0 -0.4,0.4L 19 2.6a 0.4,0.4 0 0 1 -0.4,0.4L 18.4 3a 0.4,0.4 0 0 1 -0.4,-0.4z M 17 4.4a 0.4,0.4 0 0 1 0.4,-0.4L 17.6 4a 0.4,0.4 0 0 1 0.4,0.4L 18 4.6a 0.4,0.4 0 0 0 0.4,0.4L 18.6 5a 0.4,0.4 0 0 1 0.4,0.4L 19 6.6a 0.4,0.4 0 0 0 0.4,0.4L 19.6 7a 0.4,0.4 0 0 1 0.4,0.4L 20 7.6a 0.4,0.4 0 0 0 0.4,0.4L 20.6 8a 0.4,0.4 0 0 1 0.4,0.4L 21 9.6a 0.4,0.4 0 0 1 -0.4,0.4L 20.4 10a 0.4,0.4 0 0 1 -0.4,-0.4L 20 9.4a 0.4,0.4 0 0 0 -0.4,-0.4L 18.4 9a 0.4,0.4 0 0 1 -0.4,-0.4L 18 8.4a 0.4,0.4 0 0 0 -0.4,-0.4L 16.4 8a 0.4,0.4 0 0 1 -0.4,-0.4L 16 6.4a 0.4,0.4 0 0 1 0.4,-0.4L 16.6 6a 0.4,0.4 0 0 1 0.4,0.4L 17 6.6a 0.4,0.4 0 0 0 0.4,0.4L 17.6 7a 0.4,0.4 0 0 0 0.4,-0.4L 18 6.4a 0.4,0.4 0 0 0 -0.4,-0.4L 17.4 6a 0.4,0.4 0 0 1 -0.4,-0.4z M 24 4.4a 0.4,0.4 0 0 1 0.4,-0.4L 24.6 4a 0.4,0.4 0 0 1 0.4,0.4L 25 4.6a 0.4,0.4 0 0 1 -0.4,0.4L 24.4 5a 0.4,0.4 0 0 1 -0.4,-0.4z M 10 6.4a 0.4,0.4 0 0 1 0.4,-0.4L 10.6 6a 0.4,0.4 0 0 1 0.4,0.4L 11 6.6a 0.4,0.4 0 0 1 -0.4,0.4L 10.4 7a 0.4,0.4 0 0 1 -0.4,-0.4z M 12 6.4a 0.4,0.4 0 0 1 0.4,-0.4L 12.6 6a 0.4,0.4 0 0 1 0.4,0.4L 13 6.6a 0.4,0.4 0 0 1 -0.4,0.4L 12.4 7a 0.4,0.4 0 0 1 -0.4,-0.4z M 14 6.4a 0.4,0.4 0 0 1 0.4,-0.4L 14.6 6a 0.4,0.4 0 0 1 0.4,0.4L 15 7.6a 0.4,0.4 0 0 0 0.4,0.4L 15.6 8a 0.4,0.4 0 0 1 0.4,0.4L 16 8.6a 0.4,0.4 0 0 1 -0.4,0.4L 15.4 9a 0.4,0.4 0 0 0 -0.4,0.4L 15 9.6a 0.4,0.4 0 0 1 -0.4,0.4L 10.4 10a 0.4,0.4 0 0 0 -0.4,0.4L 10 10.6a 0.4,0.4 0 0 1 -0.4,0.4L 8.4 11a 0.4,0.4 0 0 0 -0.4,0.4L 8 12.6a 0.4,0.4 0 0 1 -0.4,0.4L 6.4 13a 0.4,0.4 0 0 0 -0.4,0.4L 6 13.6a 0.4,0.4 0 0 1 -0.4,0.4L 5.4 14a 0.4,0.4 0 0 1 -0.4,-0.4L 5 13.4a 0.4,0.4 0 0 0 -0.4,-0.4L 4.4 13a 0.4,0.4 0 0 1 -0.4,-0.4L 4 12.4a 0.4,0.4 0 0 1 0.4,-0.4L 6.6 12a 0.4,0.4 0 0 0 0.4,-0.4L 7 11.4a 0.4,0.4 0 0 0 -0.4,-0.4L 4.4 11a 0.4,0.4 0 0 0 -0.4,0.4L 4 11.6a 0.4,0.4 0 0 1 -0.4,0.4L 3.4 12a 0.4,0.4 0 0 1 -0.4,-0.4L 3 10.4a 0.4,0.4 0 0 0 -0.4,-0.4L 2.4 10a 0.4,0.4 0 0 1 -0.4,-0.4L 2 8.4a 0.4,0.4 0 0 1 0.4,-0.4L 4.6 8a 0.4,0.4 0 0 1 0.4,0.4L 5 8.6a 0.4,0.4 0 0 0 0.4,0.4L 5.6 9a 0.4,0.4 0 0 1 0.4,0.4L 6 9.6a 0.4,0.4 0 0 0 0.4,0.4L 8.6 10a 0.4,0.4 0 0 0 0.4,-0.4L 9 9.4a 0.4,0.4 0 0 1 0.4,-0.4L 9.6 9a 0.4,0.4 0 0 0 0.4,-0.4L 10 8.4a 0.4,0.4 0 0 1 0.4,-0.4L 10.6 8a 0.4,0.4 0 0 0 0.4,-0.4L 11 7.4a 0.4,0.4 0 0 1 0.4,-0.4L 11.6 7a 0.4,0.4 0 0 1 0.4,0.4L 12 8.6a 0.4,0.4 0 0 0 0.4,0.4L 12.6 9a 0.4,0.4 0 0 0 0.4,-0.4L 13 8.4a 0.4,0.4 0 0 1 0.4,-0.4L 13.6 8a 0.4,0.4 0 0 0 0.4,-0.4z M 20 6.4a 0.4,0.4 0 0 1 0.4,-0.4L 20.6 6a 0.4,0.4 0 0 1 0.4,0.4L 21 6.6a 0.4,0.4 0 0 1 -0.4,0.4L 20.4 7a 0.4,0.4 0 0 1 -0.4,-0.4z M 22 6.4a 0.4,0.4 0 0 1 0.4,-0.4L 22.6 6a 0.4,0.4 0 0 1 0.4,0.4L 23 6.6a 0.4,0.4 0 0 1 -0.4,0.4L 22.4 7a 0.4,0.4 0 0 1 -0.4,-0.4z M 24 6.4a 0.4,0.4 0 0 1 0.4,-0.4L 24.6 6a 0.4,0.4 0 0 1 0.4,0.4L 25 7.6a 0.4,0.4 0 0 1 -0.4,0.4L 24.4 8a 0.4,0.4 0 0 1 -0.4,-0.4z M 21 7.4a 0.4,0.4 0 0 1 0.4,-0.4L 21.6 7a 0.4,0.4 0 0 1 0.4,0.4L 22 7.6a 0.4,0.4 0 0 1 -0.4,0.4L 21.4 8a 0.4,0.4 0 0 1 -0.4,-0.4z M 6 8.4a 0.4,0.4 0 0 1 0.4,-0.4L 6.6 8a 0.4,0.4 0 0 1 0.4,0.4L 7 8.6a 0.4,0.4 0 0 1 -0.4,0.4L 6.4 9a 0.4,0.4 0 0 1 -0.4,-0.4z M 22 8.4a 0.4,0.4 0 0 1 0.4,-0.4L 22.6 8a 0.4,0.4 0 0 1 0.4,0.4L 23 8.6a 0.4,0.4 0 0 1 -0.4,0.4L 22.4 9a 0.4,0.4 0 0 1 -0.4,-0.4z M 25 8.4a 0.4,0.4 0 0 1 0.4,-0.4L 27.6 8a 0.4,0.4 0 0 1 0.4,0.4L 28 8.6a 0.4,0.4 0 0 1 -0.4,0.4L 27.4 9a 0.4,0.4 0 0 0 -0.4,0.4L 27 9.6a 0.4,0.4 0 0 1 -0.4,0.4L 25.4 10a 0.4,0.4 0 0 1 -0.4,-0.4z M 30 8.4a 0.4,0.4 0 0 1 0.4,-0.4L 32.6 8a 0.4,0.4 0 0 1 0.4,0.4L 33 9.6a 0.4,0.4 0 0 1 -0.4,0.4L 32.4 10a 0.4,0.4 0 0 0 -0.4,0.4L 32 11.6a 0.4,0.4 0 0 1 -0.4,0.4L 29.4 12a 0.4,0.4 0 0 1 -0.4,-0.4L 29 10.4a 0.4,0.4 0 0 1 0.4,-0.4L 30.6 10a 0.4,0.4 0 0 0 0.4,-0.4L 31 9.4a 0.4,0.4 0 0 0 -0.4,-0.4L 30.4 9a 0.4,0.4 0 0 1 -0.4,-0.4z M 17 9.4a 0.4,0.4 0 0 1 0.4,-0.4L 17.6 9a 0.4,0.4 0 0 1 0.4,0.4L 18 9.6a 0.4,0.4 0 0 1 -0.4,0.4L 17.4 10a 0.4,0.4 0 0 1 -0.4,-0.4z M 0 10.4a 0.4,0.4 0 0 1 0.4,-0.4L 1.6 10a 0.4,0.4 0 0 1 0.4,0.4L 2 11.6a 0.4,0.4 0 0 1 -0.4,0.4L 1.4 12a 0.4,0.4 0 0 0 -0.4,0.4L 1 12.6a 0.4,0.4 0 0 1 -0.4,0.4L 0.4 13a 0.4,0.4 0 0 1 -0.4,-0.4z M 24 10.4a 0.4,0.4 0 0 1 0.4,-0.4L 24.6 10a 0.4,0.4 0 0 1 0.4,0.4L 25 10.6a 0.4,0.4 0 0 1 -0.4,0.4L 24.4 11a 0.4,0.4 0 0 1 -0.4,-0.4z M 27 10.4a 0.4,0.4 0 0 1 0.4,-0.4L 27.6 10a 0.4,0.4 0 0 1 0.4,0.4L 28 10.6a 0.4,0.4 0 0 1 -0.4,0.4L 27.4 11a 0.4,0.4 0 0 1 -0.4,-0.4z M 23 11.4a 0.4,0.4 0 0 1 0.4,-0.4L 23.6 11a 0.4,0.4 0 0 1 0.4,0.4L 24 11.6a 0.4,0.4 0 0 1 -0.4,0.4L 23.4 12a 0.4,0.4 0 0 1 -0.4,-0.4z M 25 11.4a 0.4,0.4 0 0 1 0.4,-0.4L 26.6 11a 0.4,0.4 0 0 1 0.4,0.4L 27 11.6a 0.4,0.4 0 0 1 -0.4,0.4L 26.4 12a 0.4,0.4 0 0 0 -0.4,0.4L 26 12.6a 0.4,0.4 0 0 1 -0.4,0.4L 24.4 13a 0.4,0.4 0 0 1 -0.4,-0.4L 24 12.4a 0.4,0.4 0 0 1 0.4,-0.4L 24.6 12a 0.4,0.4 0 0 0 0.4,-0.4z M 9 12.4a 0.4,0.4 0 0 1 0.4,-0.4L 9.6 12a 0.4,0.4 0 0 1 0.4,0.4L 10 16.6a 0.4,0.4 0 0 1 -0.4,0.4L 9.4 17a 0.4,0.4 0 0 1 -0.4,-0.4L 9 15.4a 0.4,0.4 0 0 0 -0.4,-0.4L 6.4 15a 0.4,0.4 0 0 1 -0.4,-0.4L 6 14.4a 0.4,0.4 0 0 1 0.4,-0.4L 8.6 14a 0.4,0.4 0 0 0 0.4,-0.4z M 27 12.4a 0.4,0.4 0 0 1 0.4,-0.4L 27.6 12a 0.4,0.4 0 0 1 0.4,0.4L 28 12.6a 0.4,0.4 0 0 1 -0.4,0.4L 27.4 13a 0.4,0.4 0 0 1 -0.4,-0.4z M 3 13.4a 0.4,0.4 0 0 1 0.4,-0.4L 3.6 13a 0.4,0.4 0 0 1 0.4,0.4L 4 13.6a 0.4,0.4 0 0 1 -0.4,0.4L 3.4 14a 0.4,0.4 0 0 1 -0.4,-0.4z M 23 13.4a 0.4,0.4 0 0 1 0.4,-0.4L 23.6 13a 0.4,0.4 0 0 1 0.4,0.4L 24 13.6a 0.4,0.4 0 0 1 -0.4,0.4L 23.4 14a 0.4,0.4 0 0 1 -0.4,-0.4z M 26 13.4a 0.4,0.4 0 0 1 0.4,-0.4L 26.6 13a 0.4,0.4 0 0 1 0.4,0.4L 27 13.6a 0.4,0.4 0 0 0 0.4,0.4L 27.6 14a 0.4,0.4 0 0 0 0.4,-0.4L 28 13.4a 0.4,0.4 0 0 1 0.4,-0.4L 29.6 13a 0.4,0.4 0 0 1 0.4,0.4L 30 13.6a 0.4,0.4 0 0 1 -0.4,0.4L 29.4 14a 0.4,0.4 0 0 0 -0.4,0.4L 29 14.6a 0.4,0.4 0 0 0 0.4,0.4L 29.6 15a 0.4,0.4 0 0 1 0.4,0.4L 30 15.6a 0.4,0.4 0 0 1 -0.4,0.4L 29.4 16a 0.4,0.4 0 0 0 -0.4,0.4L 29 16.6a 0.4,0.4 0 0 1 -0.4,0.4L 28.4 17a 0.4,0.4 0 0 1 -0.4,-0.4L 28 15.4a 0.4,0.4 0 0 0 -0.4,-0.4L 26.4 15a 0.4,0.4 0 0 1 -0.4,-0.4z M 32 13.4a 0.4,0.4 0 0 1 0.4,-0.4L 32.6 13a 0.4,0.4 0 0 1 0.4,0.4L 33 13.6a 0.4,0.4 0 0 1 -0.4,0.4L 32.4 14a 0.4,0.4 0 0 1 -0.4,-0.4z M 0 14.4a 0.4,0.4 0 0 1 0.4,-0.4L 2.6 14a 0.4,0.4 0 0 1 0.4,0.4L 3 14.6a 0.4,0.4 0 0 1 -0.4,0.4L 2.4 15a 0.4,0.4 0 0 0 -0.4,0.4L 2 15.6a 0.4,0.4 0 0 1 -0.4,0.4L 1.4 16a 0.4,0.4 0 0 1 -0.4,-0.4L 1 15.4a 0.4,0.4 0 0 0 -0.4,-0.4L 0.4 15a 0.4,0.4 0 0 1 -0.4,-0.4z M 4 14.4a 0.4,0.4 0 0 1 0.4,-0.4L 4.6 14a 0.4,0.4 0 0 1 0.4,0.4L 5 14.6a 0.4,0.4 0 0 1 -0.4,0.4L 4.4 15a 0.4,0.4 0 0 1 -0.4,-0.4z M 24 14.4a 0.4,0.4 0 0 1 0.4,-0.4L 24.6 14a 0.4,0.4 0 0 1 0.4,0.4L 25 14.6a 0.4,0.4 0 0 1 -0.4,0.4L 24.4 15a 0.4,0.4 0 0 1 -0.4,-0.4z M 31 14.4a 0.4,0.4 0 0 1 0.4,-0.4L 31.6 14a 0.4,0.4 0 0 1 0.4,0.4L 32 14.6a 0.4,0.4 0 0 1 -0.4,0.4L 31.4 15a 0.4,0.4 0 0 1 -0.4,-0.4z M 3 15.4a 0.4,0.4 0 0 1 0.4,-0.4L 3.6 15a 0.4,0.4 0 0 1 0.4,0.4L 4 15.6a 0.4,0.4 0 0 1 -0.4,0.4L 3.4 16a 0.4,0.4 0 0 1 -0.4,-0.4z M 25 15.4a 0.4,0.4 0 0 1 0.4,-0.4L 25.6 15a 0.4,0.4 0 0 1 0.4,0.4L 26 16.6a 0.4,0.4 0 0 1 -0.4,0.4L 25.4 17a 0.4,0.4 0 0 1 -0.4,-0.4z M 32 15.4a 0.4,0.4 0 0 1 0.4,-0.4L 32.6 15a 0.4,0.4 0 0 1 0.4,0.4L 33 16.6a 0.4,0.4 0 0 1 -0.4,0.4L 32.4 17a 0.4,0.4 0 0 1 -0.4,-0.4z M 0 16.4a 0.4,0.4 0 0 1 0.4,-0.4L 0.6 16a 0.4,0.4 0 0 1 0.4,0.4L 1 16.6a 0.4,0.4 0 0 0 0.4,0.4L 1.6 17a 0.4,0.4 0 0 0 0.4,-0.4L 2 16.4a 0.4,0.4 0 0 1 0.4,-0.4L 2.6 16a 0.4,0.4 0 0 1 0.4,0.4L 3 17.6a 0.4,0.4 0 0 1 -0.4,0.4L 1.4 18a 0.4,0.4 0 0 0 -0.4,0.4L 1 18.6a 0.4,0.4 0 0 1 -0.4,0.4L 0.4 19a 0.4,0.4 0 0 1 -0.4,-0.4z M 6 16.4a 0.4,0.4 0 0 1 0.4,-0.4L 7.6 16a 0.4,0.4 0 0 1 0.4,0.4L 8 16.6a 0.4,0.4 0 0 0 0.4,0.4L 8.6 17a 0.4,0.4 0 0 1 0.4,0.4L 9 17.6a 0.4,0.4 0 0 1 -0.4,0.4L 8.4 18a 0.4,0.4 0 0 0 -0.4,0.4L 8 18.6a 0.4,0.4 0 0 0 0.4,0.4L 8.6 19a 0.4,0.4 0 0 1 0.4,0.4L 9 20.6a 0.4,0.4 0 0 1 -0.4,0.4L 8.4 21a 0.4,0.4 0 0 1 -0.4,-0.4L 8 20.4a 0.4,0.4 0 0 0 -0.4,-0.4L 7.4 20a 0.4,0.4 0 0 1 -0.4,-0.4L 7 19.4a 0.4,0.4 0 0 0 -0.4,-0.4L 6.4 19a 0.4,0.4 0 0 0 -0.4,0.4L 6 19.6a 0.4,0.4 0 0 0 0.4,0.4L 6.6 20a 0.4,0.4 0 0 1 0.4,0.4L 7 20.6a 0.4,0.4 0 0 1 -0.4,0.4L 6.4 21a 0.4,0.4 0 0 0 -0.4,0.4L 6 21.6a 0.4,0.4 0 0 1 -0.4,0.4L 5.4 22a 0.4,0.4 0 0 1 -0.4,-0.4L 5 19.4a 0.4,0.4 0 0 0 -0.4,-0.4L 4.4 19a 0.4,0.4 0 0 1 -0.4,-0.4L 4 17.4a 0.4,0.4 0 0 1 0.4,-0.4L 4.6 17a 0.4,0.4 0 0 1 0.4,0.4L 5 17.6a 0.4,0.4 0 0 0 0.4,0.4L 6.6 18a 0.4,0.4 0 0 0 0.4,-0.4L 7 17.4a 0.4,0.4 0 0 0 -0.4,-0.4L 6.4 17a 0.4,0.4 0 0 1 -0.4,-0.4z M 30 16.4a 0.4,0.4 0 0 1 0.4,-0.4L 30.6 16a 0.4,0.4 0 0 1 0.4,0.4L 31 16.6a 0.4,0.4 0 0 1 -0.4,0.4L 30.4 17a 0.4,0.4 0 0 1 -0.4,-0.4z M 23 17.4a 0.4,0.4 0 0 1 0.4,-0.4L 24.6 17a 0.4,0.4 0 0 1 0.4,0.4L 25 17.6a 0.4,0.4 0 0 1 -0.4,0.4L 23.4 18a 0.4,0.4 0 0 1 -0.4,-0.4z M 27 17.4a 0.4,0.4 0 0 1 0.4,-0.4L 27.6 17a 0.4,0.4 0 0 1 0.4,0.4L 28 17.6a 0.4,0.4 0 0 1 -0.4,0.4L 27.4 18a 0.4,0.4 0 0 1 -0.4,-0.4z M 9 18.4a 0.4,0.4 0 0 1 0.4,-0.4L 9.6 18a 0.4,0.4 0 0 1 0.4,0.4L 10 18.6a 0.4,0.4 0 0 1 -0.4,0.4L 9.4 19a 0.4,0.4 0 0 1 -0.4,-0.4z M 28 18.4a 0.4,0.4 0 0 1 0.4,-0.4L 28.6 18a 0.4,0.4 0 0 1 0.4,0.4L 29 18.6a 0.4,0.4 0 0 0 0.4,0.4L 29.6 19a 0.4,0.4 0 0 0 0.4,-0.4L 30 18.4a 0.4,0.4 0 0 1 0.4,-0.4L 30.6 18a 0.4,0.4 0 0 1 0.4,0.4L 31 18.6a 0.4,0.4 0 0 0 0.4,0.4L 32.6 19a 0.4,0.4 0 0 1 0.4,0.4L 33 19.6a 0.4,0.4 0 0 1 -0.4,0.4L 32.4 20a 0.4,0.4 0 0 0 -0.4,0.4L 32 20.6a 0.4,0.4 0 0 1 -0.4,0.4L 31.4 21a 0.4,0.4 0 0 1 -0.4,-0.4L 31 20.4a 0.4,0.4 0 0 0 -0.4,-0.4L 30.4 20a 0.4,0.4 0 0 0 -0.4,0.4L 30 20.6a 0.4,0.4 0 0 1 -0.4,0.4L 27.4 21a 0.4,0.4 0 0 1 -0.4,-0.4L 27 20.4a 0.4,0.4 0 0 1 0.4,-0.4L 27.6 20a 0.4,0.4 0 0 0 0.4,-0.4z M 1 19.4a 0.4,0.4 0 0 1 0.4,-0.4L 3.6 19a 0.4,0.4 0 0 1 0.4,0.4L 4 20.6a 0.4,0.4 0 0 1 -0.4,0.4L 3.4 21a 0.4,0.4 0 0 0 -0.4,0.4L 3 21.6a 0.4,0.4 0 0 0 0.4,0.4L 4.6 22a 0.4,0.4 0 0 1 0.4,0.4L 5 23.6a 0.4,0.4 0 0 0 0.4,0.4L 6.6 24a 0.4,0.4 0 0 0 0.4,-0.4L 7 23.4a 0.4,0.4 0 0 1 0.4,-0.4L 7.6 23a 0.4,0.4 0 0 0 0.4,-0.4L 8 22.4a 0.4,0.4 0 0 1 0.4,-0.4L 8.6 22a 0.4,0.4 0 0 0 0.4,-0.4L 9 21.4a 0.4,0.4 0 0 1 0.4,-0.4L 9.6 21a 0.4,0.4 0 0 1 0.4,0.4L 10 24.6a 0.4,0.4 0 0 0 0.4,0.4L 10.6 25a 0.4,0.4 0 0 1 0.4,0.4L 11 25.6a 0.4,0.4 0 0 1 -0.4,0.4L 8.4 26a 0.4,0.4 0 0 1 -0.4,-0.4L 8 25.4a 0.4,0.4 0 0 0 -0.4,-0.4L 4.4 25a 0.4,0.4 0 0 1 -0.4,-0.4L 4 24.4a 0.4,0.4 0 0 0 -0.4,-0.4L 3.4 24a 0.4,0.4 0 0 1 -0.4,-0.4L 3 23.4a 0.4,0.4 0 0 0 -0.4,-0.4L 2.4 23a 0.4,0.4 0 0 1 -0.4,-0.4L 2 20.4a 0.4,0.4 0 0 0 -0.4,-0.4L 1.4 20a 0.4,0.4 0 0 1 -0.4,-0.4z M 23 19.4a 0.4,0.4 0 0 1 0.4,-0.4L 25.6 19a 0.4,0.4 0 0 1 0.4,0.4L 26 19.6a 0.4,0.4 0 0 1 -0.4,0.4L 25.4 20a 0.4,0.4 0 0 0 -0.4,0.4L 25 20.6a 0.4,0.4 0 0 1 -0.4,0.4L 24.4 21a 0.4,0.4 0 0 1 -0.4,-0.4L 24 20.4a 0.4,0.4 0 0 0 -0.4,-0.4L 23.4 20a 0.4,0.4 0 0 1 -0.4,-0.4z M 0 21.4a 0.4,0.4 0 0 1 0.4,-0.4L 0.6 21a 0.4,0.4 0 0 1 0.4,0.4L 1 24.6a 0.4,0.4 0 0 1 -0.4,0.4L 0.4 25a 0.4,0.4 0 0 1 -0.4,-0.4z M 25 21.4a 0.4,0.4 0 0 1 0.4,-0.4L 25.6 21a 0.4,0.4 0 0 1 0.4,0.4L 26 21.6a 0.4,0.4 0 0 1 -0.4,0.4L 25.4 22a 0.4,0.4 0 0 1 -0.4,-0.4z M 30 21.4a 0.4,0.4 0 0 1 0.4,-0.4L 30.6 21a 0.4,0.4 0 0 1 0.4,0.4L 31 21.6a 0.4,0.4 0 0 1 -0.4,0.4L 30.4 22a 0.4,0.4 0 0 1 -0.4,-0.4z M 32 21.4a 0.4,0.4 0 0 1 0.4,-0.4L 32.6 21a 0.4,0.4 0 0 1 0.4,0.4L 33 21.6a 0.4,0.4 0 0 1 -0.4,0.4L 32.4 22a 0.4,0.4 0 0 1 -0.4,-0.4z M 6 22.4a 0.4,0.4 0 0 1 0.4,-0.4L 6.6 22a 0.4,0.4 0 0 1 0.4,0.4L 7 22.6a 0.4,0.4 0 0 1 -0.4,0.4L 6.4 23a 0.4,0.4 0 0 1 -0.4,-0.4z M 23 22.4a 0.4,0.4 0 0 1 0.4,-0.4L 24.6 22a 0.4,0.4 0 0 1 0.4,0.4L 25 22.6a 0.4,0.4 0 0 1 -0.4,0.4L 24.4 23a 0.4,0.4 0 0 0 -0.4,0.4L 24 23.6a 0.4,0.4 0 0 0 0.4,0.4L 27.6 24a 0.4,0.4 0 0 0 0.4,-0.4L 28 23.4a 0.4,0.4 0 0 1 0.4,-0.4L 28.6 23a 0.4,0.4 0 0 1 0.4,0.4L 29 24.6a 0.4,0.4 0 0 0 0.4,0.4L 29.6 25a 0.4,0.4 0 0 1 0.4,0.4L 30 26.6a 0.4,0.4 0 0 1 -0.4,0.4L 29.4 27a 0.4,0.4 0 0 0 -0.4,0.4L 29 29.6a 0.4,0.4 0 0 1 -0.4,0.4L 28.4 30a 0.4,0.4 0 0 1 -0.4,-0.4L 28 29.4a 0.4,0.4 0 0 0 -0.4,-0.4L 26.4 29a 0.4,0.4 0 0 0 -0.4,0.4L 26 29.6a 0.4,0.4 0 0 0 0.4,0.4L 26.6 30a 0.4,0.4 0 0 1 0.4,0.4L 27 30.6a 0.4,0.4 0 0 0 0.4,0.4L 27.6 31a 0.4,0.4 0 0 1 0.4,0.4L 28 31.6a 0.4,0.4 0 0 1 -0.4,0.4L 27.4 32a 0.4,0.4 0 0 0 -0.4,0.4L 27 32.6a 0.4,0.4 0 0 1 -0.4,0.4L 21.4 33a 0.4,0.4 0 0 1 -0.4,-0.4L 21 32.4a 0.4,0.4 0 0 1 0.4,-0.4L 24.6 32a 0.4,0.4 0 0 0 0.4,-0.4L 25 31.4a 0.4,0.4 0 0 0 -0.4,-0.4L 24.4 31a 0.4,0.4 0 0 1 -0.4,-0.4L 24 30.4a 0.4,0.4 0 0 1 0.4,-0.4L 24.6 30a 0.4,0.4 0 0 0 0.4,-0.4L 25 29.4a 0.4,0.4 0 0 0 -0.4,-0.4L 24.4 29a 0.4,0.4 0 0 1 -0.4,-0.4L 24 28.4a 0.4,0.4 0 0 0 -0.4,-0.4L 22.4 28a 0.4,0.4 0 0 0 -0.4,0.4L 22 28.6a 0.4,0.4 0 0 1 -0.4,0.4L 21.4 29a 0.4,0.4 0 0 1 -0.4,-0.4L 21 27.4a 0.4,0.4 0 0 0 -0.4,-0.4L 19.4 27a 0.4,0.4 0 0 1 -0.4,-0.4L 19 25.4a 0.4,0.4 0 0 0 -0.4,-0.4L 17.4 25a 0.4,0.4 0 0 0 -0.4,0.4L 17 25.6a 0.4,0.4 0 0 0 0.4,0.4L 17.6 26a 0.4,0.4 0 0 1 0.4,0.4L 18 26.6a 0.4,0.4 0 0 1 -0.4,0.4L 16.4 27a 0.4,0.4 0 0 0 -0.4,0.4L 16 27.6a 0.4,0.4 0 0 0 0.4,0.4L 17.6 28a 0.4,0.4 0 0 1 0.4,0.4L 18 28.6a 0.4,0.4 0 0 0 0.4,0.4L 20.6 29a 0.4,0.4 0 0 1 0.4,0.4L 21 31.6a 0.4,0.4 0 0 1 -0.4,0.4L 20.4 32a 0.4,0.4 0 0 1 -0.4,-0.4L 20 30.4a 0.4,0.4 0 0 0 -0.4,-0.4L 19.4 30a 0.4,0.4 0 0 0 -0.4,0.4L 19 30.6a 0.4,0.4 0 0 1 -0.4,0.4L 18.4 31a 0.4,0.4 0 0 1 -0.4,-0.4L 18 30.4a 0.4,0.4 0 0 0 -0.4,-0.4L 17.4 30a 0.4,0.4 0 0 0 -0.4,0.4L 17 30.6a 0.4,0.4 0 0 1 -0.4,0.4L 16.4 31a 0.4,0.4 0 0 0 -0.4,0.4L 16 32.6a 0.4,0.4 0 0 1 -0.4,0.4L 15.4 33a 0.4,0.4 0 0 1 -0.4,-0.4L 15 32.4a 0.4,0.4 0 0 0 -0.4,-0.4L 14.4 32a 0.4,0.4 0 0 0 -0.4,0.4L 14 32.6a 0.4,0.4 0 0 1 -0.4,0.4L 9.4 33a 0.4,0.4 0 0 1 -0.4,-0.4L 9 31.4a 0.4,0.4 0 0 1 0.4,-0.4L 10.6 31a 0.4,0.4 0 0 1 0.4,0.4L 11 31.6a 0.4,0.4 0 0 0 0.4,0.4L 11.6 32a 0.4,0.4 0 0 0 0.4,-0.4L 12 31.4a 0.4,0.4 0 0 1 0.4,-0.4L 14.6 31a 0.4,0.4 0 0 0 0.4,-0.4L 15 30.4a 0.4,0.4 0 0 1 0.4,-0.4L 15.6 30a 0.4,0.4 0 0 0 0.4,-0.4L 16 29.4a 0.4,0.4 0 0 0 -0.4,-0.4L 15.4 29a 0.4,0.4 0 0 0 -0.4,0.4L 15 29.6a 0.4,0.4 0 0 1 -0.4,0.4L 14.4 30a 0.4,0.4 0 0 1 -0.4,-0.4L 14 28.4a 0.4,0.4 0 0 1 0.4,-0.4L 14.6 28a 0.4,0.4 0 0 0 0.4,-0.4L 15 26.4a 0.4,0.4 0 0 0 -0.4,-0.4L 14.4 26a 0.4,0.4 0 0 1 -0.4,-0.4L 14 25.4a 0.4,0.4 0 0 1 0.4,-0.4L 15.6 25a 0.4,0.4 0 0 0 0.4,-0.4L 16 24.4a 0.4,0.4 0 0 1 0.4,-0.4L 17.6 24a 0.4,0.4 0 0 0 0.4,-0.4L 18 23.4a 0.4,0.4 0 0 1 0.4,-0.4L 18.6 23a 0.4,0.4 0 0 1 0.4,0.4L 19 23.6a 0.4,0.4 0 0 0 0.4,0.4L 19.6 24a 0.4,0.4 0 0 1 0.4,0.4L 20 24.6a 0.4,0.4 0 0 0 0.4,0.4L 20.6 25a 0.4,0.4 0 0 0 0.4,-0.4L 21 23.4a 0.4,0.4 0 0 1 0.4,-0.4L 22.6 23a 0.4,0.4 0 0 0 0.4,-0.4zM 22 25.4a 0.4,0.4 0 0 1 0.4,-0.4L 23.6 25a 0.4,0.4 0 0 1 0.4,0.4L 24 26.6a 0.4,0.4 0 0 1 -0.4,0.4L 22.4 27a 0.4,0.4 0 0 1 -0.4,-0.4z M 25 25.4a 0.4,0.4 0 0 1 0.4,-0.4L 27.6 25a 0.4,0.4 0 0 1 0.4,0.4L 28 27.6a 0.4,0.4 0 0 1 -0.4,0.4L 25.4 28a 0.4,0.4 0 0 1 -0.4,-0.4z M 31 22.4a 0.4,0.4 0 0 1 0.4,-0.4L 31.6 22a 0.4,0.4 0 0 1 0.4,0.4L 32 22.6a 0.4,0.4 0 0 1 -0.4,0.4L 31.4 23a 0.4,0.4 0 0 1 -0.4,-0.4z M 13 23.4a 0.4,0.4 0 0 1 0.4,-0.4L 15.6 23a 0.4,0.4 0 0 1 0.4,0.4L 16 23.6a 0.4,0.4 0 0 1 -0.4,0.4L 14.4 24a 0.4,0.4 0 0 0 -0.4,0.4L 14 24.6a 0.4,0.4 0 0 1 -0.4,0.4L 13.4 25a 0.4,0.4 0 0 1 -0.4,-0.4z M 30 23.4a 0.4,0.4 0 0 1 0.4,-0.4L 30.6 23a 0.4,0.4 0 0 1 0.4,0.4L 31 23.6a 0.4,0.4 0 0 1 -0.4,0.4L 30.4 24a 0.4,0.4 0 0 1 -0.4,-0.4z M 32 23.4a 0.4,0.4 0 0 1 0.4,-0.4L 32.6 23a 0.4,0.4 0 0 1 0.4,0.4L 33 25.6a 0.4,0.4 0 0 1 -0.4,0.4L 32.4 26a 0.4,0.4 0 0 0 -0.4,0.4L 32 26.6a 0.4,0.4 0 0 0 0.4,0.4L 32.6 27a 0.4,0.4 0 0 1 0.4,0.4L 33 28.6a 0.4,0.4 0 0 1 -0.4,0.4L 32.4 29a 0.4,0.4 0 0 0 -0.4,0.4L 32 29.6a 0.4,0.4 0 0 1 -0.4,0.4L 31.4 30a 0.4,0.4 0 0 0 -0.4,0.4L 31 31.6a 0.4,0.4 0 0 0 0.4,0.4L 31.6 32a 0.4,0.4 0 0 1 0.4,0.4L 32 32.6a 0.4,0.4 0 0 1 -0.4,0.4L 29.4 33a 0.4,0.4 0 0 1 -0.4,-0.4L 29 32.4a 0.4,0.4 0 0 1 0.4,-0.4L 29.6 32a 0.4,0.4 0 0 0 0.4,-0.4L 30 31.4a 0.4,0.4 0 0 0 -0.4,-0.4L 29.4 31a 0.4,0.4 0 0 1 -0.4,-0.4L 29 30.4a 0.4,0.4 0 0 1 0.4,-0.4L 29.6 30a 0.4,0.4 0 0 0 0.4,-0.4L 30 29.4a 0.4,0.4 0 0 1 0.4,-0.4L 30.6 29a 0.4,0.4 0 0 0 0.4,-0.4L 31 28.4a 0.4,0.4 0 0 0 -0.4,-0.4L 30.4 28a 0.4,0.4 0 0 1 -0.4,-0.4L 30 27.4a 0.4,0.4 0 0 1 0.4,-0.4L 30.6 27a 0.4,0.4 0 0 0 0.4,-0.4L 31 24.4a 0.4,0.4 0 0 1 0.4,-0.4L 31.6 24a 0.4,0.4 0 0 0 0.4,-0.4z M 11 24.4a 0.4,0.4 0 0 1 0.4,-0.4L 11.6 24a 0.4,0.4 0 0 1 0.4,0.4L 12 24.6a 0.4,0.4 0 0 1 -0.4,0.4L 11.4 25a 0.4,0.4 0 0 1 -0.4,-0.4z M 12 25.4a 0.4,0.4 0 0 1 0.4,-0.4L 12.6 25a 0.4,0.4 0 0 1 0.4,0.4L 13 26.6a 0.4,0.4 0 0 1 -0.4,0.4L 12.4 27a 0.4,0.4 0 0 0 -0.4,0.4L 12 27.6a 0.4,0.4 0 0 1 -0.4,0.4L 10.4 28a 0.4,0.4 0 0 0 -0.4,0.4L 10 28.6a 0.4,0.4 0 0 0 0.4,0.4L 12.6 29a 0.4,0.4 0 0 1 0.4,0.4L 13 29.6a 0.4,0.4 0 0 1 -0.4,0.4L 9.4 30a 0.4,0.4 0 0 0 -0.4,0.4L 9 30.6a 0.4,0.4 0 0 1 -0.4,0.4L 8.4 31a 0.4,0.4 0 0 1 -0.4,-0.4L 8 28.4a 0.4,0.4 0 0 1 0.4,-0.4L 8.6 28a 0.4,0.4 0 0 0 0.4,-0.4L 9 27.4a 0.4,0.4 0 0 1 0.4,-0.4L 10.6 27a 0.4,0.4 0 0 0 0.4,-0.4L 11 26.4a 0.4,0.4 0 0 1 0.4,-0.4L 11.6 26a 0.4,0.4 0 0 0 0.4,-0.4z M 26 26.4a 0.4,0.4 0 0 1 0.4,-0.4L 26.6 26a 0.4,0.4 0 0 1 0.4,0.4L 27 26.6a 0.4,0.4 0 0 1 -0.4,0.4L 26.4 27a 0.4,0.4 0 0 1 -0.4,-0.4z M 13 27.4a 0.4,0.4 0 0 1 0.4,-0.4L 13.6 27a 0.4,0.4 0 0 1 0.4,0.4L 14 27.6a 0.4,0.4 0 0 1 -0.4,0.4L 13.4 28a 0.4,0.4 0 0 1 -0.4,-0.4z M 22 29.4a 0.4,0.4 0 0 1 0.4,-0.4L 22.6 29a 0.4,0.4 0 0 1 0.4,0.4L 23 30.6a 0.4,0.4 0 0 1 -0.4,0.4L 22.4 31a 0.4,0.4 0 0 1 -0.4,-0.4z M 17 31.4a 0.4,0.4 0 0 1 0.4,-0.4L 17.6 31a 0.4,0.4 0 0 1 0.4,0.4L 18 31.6a 0.4,0.4 0 0 1 -0.4,0.4L 17.4 32a 0.4,0.4 0 0 1 -0.4,-0.4z M 19 32.4a 0.4,0.4 0 0 1 0.4,-0.4L 19.6 32a 0.4,0.4 0 0 1 0.4,0.4L 20 32.6a 0.4,0.4 0 0 1 -0.4,0.4L 19.4 33a 0.4,0.4 0 0 1 -0.4,-0.4z"/><path d="M1.05,0h4.9a1.05,1.05 0 0 1 1.05,1.05v4.9a1.05,1.05 0 0 1 -1.05,1.05h-4.9a1.05,1.05 0 0 1 -1.05,-1.05v-4.9a1.05,1.05 0 0 1 1.05,-1.05zM1.75,1h3.5a0.75,0.75 0 0 1 0.75,0.75v3.5a0.75,0.75 0 0 1 -0.75,0.75h-3.5a0.75,0.75 0 0 1 -0.75,-0.75v-3.5a0.75,0.75 0 0 1 0.75,-0.75zM2.45,2h2.1a0.44999999999999996,0.44999999999999996 0 0 1 0.44999999999999996,0.44999999999999996v2.1a0.44999999999999996,0.44999999999999996 0 0 1 -0.44999999999999996,0.44999999999999996h-2.1a0.44999999999999996,0.44999999999999996 0 0 1 -0.44999999999999996,-0.44999999999999996v-2.1a0.44999999999999996,0.44999999999999996 0 0 1 0.44999999999999996,-0.44999999999999996z M27.05,0h4.9a1.05,1.05 0 0 1 1.05,1.05v4.9a1.05,1.05 0 0 1 -1.05,1.05h-4.9a1.05,1.05 0 0 1 -1.05,-1.05v-4.9a1.05,1.05 0 0 1 1.05,-1.05zM27.75,1h3.5a0.75,0.75 0 0 1 0.75,0.75v3.5a0.75,0.75 0 0 1 -0.75,0.75h-3.5a0.75,0.75 0 0 1 -0.75,-0.75v-3.5a0.75,0.75 0 0 1 0.75,-0.75zM28.45,2h2.1a0.44999999999999996,0.44999999999999996 0 0 1 0.44999999999999996,0.44999999999999996v2.1a0.44999999999999996,0.44999999999999996 0 0 1 -0.44999999999999996,0.44999999999999996h-2.1a0.44999999999999996,0.44999999999999996 0 0 1 -0.44999999999999996,-0.44999999999999996v-2.1a0.44999999999999996,0.44999999999999996 0 0 1 0.44999999999999996,-0.44999999999999996z M1.05,26h4.9a1.05,1.05 0 0 1 1.05,1.05v4.9a1.05,1.05 0 0 1 -1.05,1.05h-4.9a1.05,1.05 0 0 1 -1.05,-1.05v-4.9a1.05,1.05 0 0 1 1.05,-1.05zM1.75,27h3.5a0.75,0.75 0 0 1 0.75,0.75v3.5a0.75,0.75 0 0 1 -0.75,0.75h-3.5a0.75,0.75 0 0 1 -0.75,-0.75v-3.5a0.75,0.75 0 0 1 0.75,-0.75zM2.45,28h2.1a0.44999999999999996,0.44999999999999996 0 0 1 0.44999999999999996,0.44999999999999996v2.1a0.44999999999999996,0.44999999999999996 0 0 1 -0.44999999999999996,0.44999999999999996h-2.1a0.44999999999999996,0.44999999999999996 0 0 1 -0.44999999999999996,-0.44999999999999996v-2.1a0.44999999999999996,0.44999999999999996 0 0 1 0.44999999999999996,-0.44999999999999996z" fill-rule="evenodd" fill="currentColor"/></svg>