<svg xmlns="http://www.w3.org/2000/svg" viewBox="0 0 478.6 478.6"><defs><path id="a" fill="none" stroke="#d4af37" d="m381.429 299.148-8.028 6.065 3.287 9.51-8.25-5.761-8.028 6.064 2.93-9.625-8.249-5.761 10.06-.189 2.93-9.625 3.288 9.51z"/><path id="b" fill="#fcd116" stroke="#d4af37" d="m381.429 299.148-7.127 6.34 2.386 9.234-8.232-4.819-8.046 5.123 2.04-9.317-7.359-6.07 9.492-.939 3.498-8.874 3.827 8.737z"/><path id="c" fill="none" stroke="#d4af37" d="m368.081 289.826.259 13.847 13.089-4.525m-26.338.492zm0 0 13.249 4.033 8.348 11.05m-8.348-11.05-7.93 11.353m8.046-5.123-.116-6.23"/><path id="d" fill="none" stroke="#d4af37" stroke-width=".5" d="m368.34 303.673 3.568-5.11m-3.568 5.11-3.757-4.973m-2.133 7.009 5.89-2.036 5.962 1.814"/></defs><g fill="#fff" stroke="#d4af37" stroke-width="3"><circle cx="239.3" cy="239.3" r="237.8"/><circle cx="239.3" cy="239.3" r="177.8"/><path stroke-width="1.25" d="M239.8 356.1s-15.8-5.7-34-10.5c-3.5-.9-9.9-1.5-17.1-1.9-9.8-.6-15.2-1.2-22-4.8-16.2-8.6-13.6-29.1-13.6-29.1l-16.7 15.5c-.3.2.6 34.8 36.3 39.2 28 3.5 27.4 1.9 41.4 5.9 14.3 4.1 25.6 7.1 25.2 7.3m.2-21.6s17.9-5.9 34-10.5c3.5-.9 9.9-1.5 17.1-1.9 9.8-.6 15.2-1.2 22-4.8 16.2-8.6 13.6-29.1 13.6-29.1l16.7 15.5c.3.2-.6 34.8-36.3 39.2-28 3.5-27.4 1.9-41.4 5.9-14.3 4.1-25.9 7.1-25.5 7.3m39.4-167.8c0 27.4-17.8 49.6-39.9 49.6-22 0-39.9-22.2-39.9-49.6 0-27.4 17.8-49.6 39.9-49.6 22.1 0 39.9 22.2 39.9 49.6z"/></g><path fill="#0038a8" d="m159.7 208.4 79.7-.1v132.9c-.1-.7-3.9-5.4-10.7-8.2-6.5-2.7-15.5-5-25.9-6.5-35.3-2.3-40.4-29.4-40.4-29.4-4.7-9.7-2.2-29.5-3-44.6z"/><path fill="#ce1126" d="m318.4 208.4-79 .7-.1 131.5c.1-.7 5-5.2 11-7.7 6.6-2.8 14.7-4.9 24.9-6.4 35.3-2.3 40.4-29.4 40.4-29.4 4.7-9.7 2.2-29.5 3-44.6z"/><g fill="#fcd116" stroke="#d4af37" stroke-width=".7"><path d="m230.2 195-5.5-9.4-3.1-.4 7.5 10.6zm-4.3 4.3-11.5-8.8-.4-5.1 4.6-.1 9.5 11.6zm-1.7 2-9.4-5.3-.4-3.1 10.7 7.3zm19.5-8.3 2.8-15.2-1.9-3.6-2.3 18.5zm-6 0-1.8-20.8 3.4-5.7 3.4 4.6-1.6 21.6zm-2.7.3-2.8-15.2 2-3.6 2.3 18.5zm21.4 21.3 10.5 2.8 2.5-1.9-12.8-2.3zm0-6 14.4-1.8 3.9 3.4-3.2 3.4-14.9-1.6zm-.2-2.6 10.5-2.8 2.5 2-12.8 2.3zm-7.8 19.3 5.5 9.4 3.1.4-7.5-10.6zm4.2-4.3 11.5 8.8.4 5.1-4.6.2-9.5-11.6zm1.7-2 9.5 5.3.4 3.1-10.8-7.3zm-30.3.1-9.4 5.4-.4 3.1 10.7-7.4zm4.2 4.3-8.9 11.4-5.2.4-.1-4.6 11.7-9.4zm2.1 1.7-5.4 9.4-3.1.4 7.4-10.6zm-8.2-19.3-10.5-2.8-2.5 2 12.8 2.2zm.1 6.1-14.4 1.8-3.9-3.3 3.2-3.4 14.9 1.5zm.2 2.6-10.5 2.9-2.5-1.9 12.8-2.4zm12.6 12.3-2.8 15.2 1.9 3.6 2.3-18.5zm6.1 0 1.8 20.8-3.4 5.7-3.4-4.6 1.6-21.6zm2.7-.2 2.8 15.2-2 3.6-2.3-18.6zm10.9-25.1 9.5-5.2.4-3.1-10.8 7.2m-3.3-3.2 9.1-11.2 5.2-.3v4.6l-11.8 9.2m-4.5-4.1 5.6-9.3 3.1-.3-7.6 10.5"/><path d="M239.4 191.9c10 0 18.2 8.1 18.2 18.2 0 10-8.1 18.2-18.2 18.2s-18.2-8.1-18.2-18.2c0-10 8.1-18.2 18.2-18.2"/></g><g fill="#fff" stroke="#d4af37"><path d="M139.1 313c2.1.8 3.3 3.2 4.4 6l9.6-9.2s1.1-1.3 2.3-1c2.4.6 1.8 4.4 3.3 5.5.4.3 1.8.6 2.6-.8.8-1.3 1.1-2.1.6-4.6-1-5.4-6.7-12.9-11.5-13.4-1.3-.2-4.2 1.1-4.2 1.1l-2.8 2.7zm201.1 0c-2.1.8-3.3 3.2-4.4 6l-9.5-9.2s-1.1-1.3-2.3-1c-2.4.6-1.8 4.4-3.3 5.5-.4.3-1.8.6-2.6-.8-.8-1.3-1.1-2.1-.6-4.6 1-5.4 6.7-12.9 11.5-13.4 1.3-.2 4.2 1.1 4.2 1.1l2.8 2.7z"/><path stroke-width="1.25" d="M129.6 297.8s-4.1 5.7-3.4 10.1c.6 3.9 4 7.6 7.9 7.1 6-.8 16.3-11.5 16.3-11.5-5.6.1-9-4.2-8.5-17.9zm220.1 0s4.1 5.7 3.4 10.1c-.6 3.9-4 7.6-7.9 7.1-6-.8-16.3-11.5-16.3-11.5 5.6.1 9-4.2 8.5-17.9z"/><g stroke-width=".5"><path d="m141.7 293.6 6.8-4.2c1.4 0 .6-7.1-3.1-6.4-5.4 1-4.4 10.7-3.7 10.6zm195.9 0-6.8-4.2c-1.4 0-.6-7.1 3.1-6.4 5.4 1 4.5 10.7 3.7 10.6zm-1.3 6.1-3.2-3.1s.8 1.3-.1 2.1c-1.3 1.2-3.6.2-4.6 1.5-1 1.3.7 3.5.7 3.5l6.8-1zm-10.3 9.7c.1 4.4.1 8.8-.7 11.6-3.7-1.8-7.2-4.8-8-9.1 0 0 1.8 3.4 3.2 2.5 1.4-.9 1.2-5.3 3.7-5.8 1.1-.3 1.8.8 1.8.8z"/><g fill="#cfb53b"><path d="m143 299.7 3.2-3.1s-.8 1.3.1 2.1c1.3 1.2 3.6.2 4.6 1.5 1 1.3-.7 3.5-.7 3.5l-6.8-1zm10.3 9.7c-.1 4.4-.1 8.8.7 11.6 3.7-1.8 7.2-4.8 8-9.1 0 0-1.8 3.4-3.2 2.5-1.4-.9-1.2-5.3-3.7-5.8-1.1-.3-1.8.8-1.8.8z"/><path stroke="none" d="M326 309.4c.1 4.4.1 8.8-.7 11.6-3.7-1.8-7.2-4.8-8-9.1 0 0 1.8 3.4 3.2 2.5 1.4-.9 1.2-5.3 3.7-5.8 1.1-.3 1.8.8 1.8.8m-184.3-15.8 6.8-4.2c1.4 0 .6-7.1-3.1-6.4-5.4 1-4.4 10.7-3.7 10.6m195.9 0-6.8-4.2c-1.4 0-.6-7.1 3.1-6.4 5.4 1 4.5 10.7 3.7 10.6m-1.3 6.1-3.2-3.1s.8 1.3-.1 2.1c-1.3 1.2-3.6.2-4.6 1.5-1 1.3.7 3.5.7 3.5l6.8-1z"/></g></g></g><path fill="none" stroke="#d4af37" stroke-width="3" d="M239.4 107.3c-11.5 15.6-28.4 25.6-53.3 14.1-8.9 13.2-13.2 27.9-42.8 34.7 16.4 14.5 16.4 28.1 16.1 53.9.2 23.4.4 50.6.4 71.7-.8 13.1 9 40.6 34.8 43.7 42.9 5 44.6 16.3 44.6 16.3s1.7-11.3 44.6-16.3c25.8-3 35.5-30.6 34.8-43.7.1-21.2.2-48.3.4-71.7-.3-25.8-.3-39.4 16.1-53.9-29.6-6.8-34-21.7-42.9-35-24.7 11.9-41.7 1.3-52.8-13.8z"/><path fill="#d4af37" d="m138.1 326.49 9.75-4.62.95 2.01-7.95 3.77 2.26 4.76-1.8.85zm4.94 10.12 9.31-5.45 3.95 6.76-1.62.95-2.85-4.87-1.99 1.16 2.6 4.45-1.59.93-2.6-4.45-2.4 1.4 2.98 5.1-1.72 1zm12.71 15.19q-1 .18-1.82-.07-.82-.24-1.57-.95-1.65-1.55-1.6-3.65.06-2.11 1.81-3.97 1.76-1.88 3.84-2.05 2.08-.17 3.78 1.42 1.48 1.39 1.75 2.98.27 1.58-.71 2.99l-1.65-1.55q.43-.75.26-1.51-.16-.75-.9-1.45-.99-.93-2.24-.73-1.24.19-2.43 1.47-1.2 1.28-1.3 2.56-.09 1.28.93 2.24.77.72 1.71.75.94.03 1.81-.64l-1.78-1.67 1.26-1.35 3.26 3.06-3.99 4.26-1.08-1.02.67-1.11zm4.85 4.01 3.28-10.28 7.46 2.38-.57 1.79-5.37-1.72-.7 2.19 4.91 1.57-.56 1.76-4.91-1.57-.85 2.64 5.62 1.8-.61 1.9zm11.78-.32 2.18.21q.04.89.59 1.38.56.48 1.69.59.96.09 1.48-.2.52-.29.59-.97.09-.98-2.65-1.89l-.06-.02q-.07-.02-.22-.07-1.47-.47-2.07-.94-.53-.42-.77-1.06-.24-.65-.16-1.49.15-1.57 1.3-2.3 1.15-.74 3.16-.54 1.88.18 2.85 1.18.98.99.88 2.62l-2.12-.21q.02-.79-.48-1.25-.5-.46-1.5-.56-.87-.08-1.37.21-.5.29-.56.92-.08.85 1.71 1.45l.75.26q1.14.41 1.62.63.48.22.82.46.62.43.89 1.07.27.63.19 1.47-.16 1.68-1.38 2.49-1.22.81-3.28.61-2.03-.2-3.09-1.25t-.98-2.8zm17.15 1.08 2.18.25q.02.89.57 1.39.55.49 1.67.62.96.11 1.49-.17.53-.29.6-.95.11-.98-2.61-1.94l-.06-.02q-.07-.02-.22-.08-1.46-.5-2.05-.98-.52-.43-.75-1.08-.23-.65-.13-1.49.18-1.56 1.34-2.27 1.16-.71 3.17-.48 1.88.22 2.83 1.23.96 1.01.83 2.63l-2.12-.25q.03-.79-.46-1.25-.49-.47-1.49-.58-.87-.1-1.38.19-.5.28-.58.91-.1.85 1.68 1.48l.75.27q1.14.43 1.61.66.48.22.82.47.61.44.87 1.08.26.63.16 1.47-.19 1.67-1.43 2.47-1.23.79-3.29.55-2.02-.23-3.06-1.31-1.04-1.07-.93-2.81zm10.3 4.8 2.49-10.5 7.62 1.81-.43 1.82-5.49-1.3-.53 2.24 5.02 1.19-.43 1.8-5.02-1.19-.64 2.7 5.74 1.36-.46 1.94zm13.54-2.85 2.51.69q.82.23 1.29 0 .48-.22.68-.94.19-.68-.09-1.13-.28-.46-1.02-.66l-2.61-.72-.76 2.75zm-3.76 5.26 2.87-10.4 5.04 1.39q1.7.47 2.32 1.42.62.95.2 2.45-.26.95-.84 1.48-.57.53-1.38.55.61.43.76 1 .15.57-.09 1.63l-.3 1.24-.01.04q-.24.94.09 1.24l-.09.32-2.34-.65q-.05-.25-.03-.58.03-.34.14-.79l.27-1.1q.23-.98-.01-1.41-.23-.43-1.09-.66l-2.27-.63-1.12 4.05-2.14-.59zm13.02 3.68-.51-11.4 2.36.7-.09 8.39 4.53-7.08 2.33.69-6.58 9.31-2.04-.6zm13.22-5.02-2.78 3.95 2.86.88-.08-4.83zm-.59-2.45 2.45.76.53 11.45-2.22-.68-.05-2.34-3.99-1.23-1.34 1.91-2.23-.69 6.85-9.18zm12.55 11.35-3.06-8.32-3 1.11-.67-1.81 8.07-2.97.66 1.81-2.98 1.1 3.06 8.32zm7.72-7.01 2.87-.97-1.6-4.73-1.15.39zm-2.33 4.96.58-11.58 9.48-3.2.6 1.78-5.02 1.69.74 2.18 4.56-1.54.59 1.75-4.56 1.54.88 2.63 5.28-1.78.63 1.89-7.3 2.46-.71-2.1-3.47 1.17-.06 2.36-2.22.75zm23.57-13.16 2.12-.33q.86-.14 1.2-.56.33-.43.21-1.24-.12-.76-.56-1.09-.44-.33-1.21-.21l-2.24.35zm.29 1.93.59 3.79-2.2.34-1.66-10.66 4.74-.74q1.68-.26 2.68.48 1 .73 1.27 2.42.26 1.65-.45 2.68-.71 1.02-2.28 1.27zm12.29-5.9-1.32 4.65 2.99-.11zm-1.37-2.11 2.56-.1 4.3 10.63-2.33.09-.81-2.19-4.18.16-.63 2.25-2.33.08 3.42-10.92zm9.35 10.65 2.86-5.8-3.88-4.94 2.55-.24 2.55 3.55 1.82-3.96 2.57-.24-2.88 5.56 3.9 5.18-2.55.24-2.55-3.51-1.84 3.93zm21.54-4.99-5.75-9.13 6.37-4.01 1 1.59-4.52 2.85 1.3 2.07 3.96-2.49 1 1.59-3.96 2.49 2.45 3.88zm9.35-6.81-7.59-7.66 1.58-1.56 7.59 7.66zm-.9-12.89 3.33 3.5 1.43-2.63zm-2.51.1 1.22-2.25 11.34 1.72-1.11 2.05-2.3-.42-2 3.68 1.62 1.68-1.12 2.06zm13.72-3.99-8.26-3.2-1.16 2.98-1.8-.7 3.11-8.02 1.8.7-1.15 2.96 8.26 3.2z"/><g fill="#060" stroke="olive" stroke-width=".967"><path d="M126.84 185.05c-3.45 1.78-8.09-3.1-9.64-7.05-1.41-3.59-1.41-9.91 1.72-11.55 3.24-1.69 7.73 2.49 9.33 6.13 1.66 3.77 1.96 10.73-1.41 12.47zm9.76 19.66c3.25 2.19 8.36-2.12 10.3-5.85 1.76-3.4 2.4-9.69-.55-11.69-3.05-2.07-7.94 1.55-9.89 4.98-2.03 3.55-3.03 10.43.15 12.56zm-.46 19.67c3.09 2.44 8.49-1.44 10.69-5.01 2-3.25 3.09-9.46.29-11.7-2.89-2.31-8.03.92-10.23 4.17-2.28 3.38-3.77 10.16-.76 12.54zm-.56 19.88c3.12 2.39 8.47-1.57 10.62-5.18 1.96-3.28 2.96-9.51.13-11.7-2.92-2.26-8.02 1.04-10.16 4.33-2.23 3.42-3.63 10.21-.58 12.55zm.09 20.14c3.03 2.51 8.52-1.24 10.8-4.75 2.07-3.2 3.3-9.39.55-11.68-2.84-2.38-8.05.72-10.31 3.92-2.35 3.32-3.99 10.06-1.03 12.51zm.81 18.5c3.11 2.4 8.47-1.55 10.63-5.15 1.97-3.27 2.99-9.5.16-11.7-2.92-2.27-8.02 1.02-10.18 4.3-2.24 3.41-3.66 10.2-.62 12.54zm-10.53-78.59c-3.28 2.11-8.33-2.32-10.21-6.1-1.71-3.44-2.26-9.74.72-11.67 3.08-2 7.91 1.75 9.82 5.22 1.98 3.6 2.88 10.5-.33 12.56zm.87 19.52c-3.3 2.08-8.31-2.39-10.16-6.19-1.68-3.46-2.18-9.76.81-11.67 3.09-1.97 7.9 1.82 9.78 5.31 1.95 3.62 2.79 10.53-.43 12.55zm.34 19.8c-3.07 2.44-8.5-1.44-10.73-5.01-2.03-3.25-3.17-9.46-.38-11.7 2.87-2.31 8.04.92 10.26 4.17 2.31 3.38 3.85 10.16.86 12.54zm-.11 21.28c-3.1 2.39-8.48-1.57-10.66-5.18-1.98-3.28-3.04-9.51-.22-11.7 2.91-2.26 8.02 1.04 10.2 4.33 2.26 3.41 3.71 10.21.69 12.55zm.59 18.96c-2.8 2.77-8.6-.47-11.18-3.76-2.35-3-4.12-9.05-1.59-11.59 2.62-2.62 8.08 0 10.62 2.98 2.64 3.1 4.87 9.66 2.15 12.37zm6.67-97.8c3.25 2.19 8.36-2.12 10.3-5.85 1.76-3.4 2.4-9.69-.55-11.69-3.05-2.07-7.94 1.55-9.89 4.98-2.03 3.55-3.03 10.43.15 12.56zm217.48-2.28c3.45 1.78 8.09-3.1 9.64-7.05 1.41-3.59 1.41-9.91-1.72-11.55-3.24-1.69-7.73 2.49-9.33 6.13-1.66 3.77-1.96 10.73 1.41 12.47zm-9.77 19.67c-3.25 2.19-8.36-2.12-10.3-5.85-1.76-3.4-2.4-9.69.55-11.69 3.05-2.07 7.94 1.55 9.89 4.98 2.03 3.55 3.03 10.43-.15 12.56zm.46 19.67c-3.09 2.44-8.49-1.44-10.69-5.01-2-3.25-3.09-9.46-.29-11.7 2.89-2.31 8.03.92 10.23 4.17 2.28 3.38 3.77 10.16.76 12.54zm.57 19.87c-3.12 2.39-8.47-1.57-10.62-5.18-1.96-3.28-2.96-9.51-.13-11.7 2.92-2.26 8.02 1.04 10.16 4.33 2.23 3.42 3.63 10.21.58 12.55zm-.1 20.14c-3.03 2.51-8.52-1.24-10.8-4.75-2.07-3.2-3.3-9.39-.55-11.68 2.84-2.38 8.05.72 10.31 3.92 2.35 3.32 3.99 10.06 1.03 12.51zm-.8 18.51c-3.11 2.4-8.47-1.55-10.63-5.15-1.97-3.27-2.99-9.5-.16-11.7 2.92-2.27 8.02 1.02 10.18 4.3 2.24 3.41 3.66 10.2.62 12.54zm10.53-78.6c3.28 2.11 8.33-2.32 10.21-6.1 1.71-3.44 2.26-9.74-.72-11.67-3.08-2-7.91 1.75-9.82 5.22-1.98 3.6-2.88 10.5.33 12.56zm-.87 19.53c3.3 2.08 8.31-2.39 10.16-6.19 1.68-3.46 2.18-9.76-.81-11.67-3.09-1.97-7.9 1.82-9.78 5.31-1.95 3.62-2.79 10.53.43 12.55zm-.35 19.8c3.07 2.44 8.5-1.44 10.73-5.01 2.03-3.25 3.17-9.46.38-11.7-2.87-2.31-8.04.92-10.26 4.17-2.31 3.38-3.85 10.16-.86 12.54zm.12 21.28c3.1 2.39 8.48-1.57 10.66-5.18 1.98-3.28 3.04-9.51.22-11.7-2.91-2.26-8.02 1.04-10.2 4.33-2.26 3.41-3.71 10.21-.69 12.55zm-.59 18.95c2.8 2.77 8.6-.47 11.18-3.76 2.35-3 4.12-9.05 1.59-11.59-2.62-2.62-8.08 0-10.62 2.98-2.64 3.1-4.87 9.66-2.15 12.37zm-6.67-97.79c-3.25 2.19-8.36-2.12-10.3-5.85-1.76-3.4-2.4-9.69.55-11.69 3.05-2.07 7.94 1.55 9.89 4.98 2.03 3.55 3.03 10.43-.15 12.56z"/><path stroke-width=".6" d="m121.15 171.98 1.45-2.69m-4.06 1.16 2.61 1.26m1.03 2.37 1.45-2.69m-4.52 1.55 3.13 1.4m1.09 2.26 1.45-2.69m-4.8 1.24 3.13 1.4m1.08 2.1 1.45-2.69m-4.84 1.41 3.13 1.4m1.03 2.04 1.45-2.69m-4.73 1.45 3.13 1.4m1.12 1.82 1.45-2.69m-4.62 1.62 3.13 1.4m17.68 9.29-1.17-2.85m3.92 1.64-2.72.94m-1.26 2.23-1.17-2.85m4.33 2.09-3.26 1.02m-1.3 2.11-1.17-2.85m4.64 1.81-3.25 1.02m-1.28 1.95-1.17-2.85m4.67 1.98-3.25 1.02m-1.23 1.91-1.17-2.85m4.56 2.01-3.26 1.02m-1.29 1.67-1.17-2.85m4.43 2.17-3.25 1.02m6.23 9.75-.97-2.93m3.8 1.94-2.78.72m-1.42 2.13-.96-2.93m4.17 2.42-3.32.76m-1.45 2-.96-2.93m4.49 2.17-3.32.76m-1.42 1.84-.96-2.93m4.52 2.34-3.32.76m-1.36 1.8-.96-2.93m4.4 2.37-3.32.76m-1.41 1.56-.96-2.93m4.26 2.5-3.32.76m5.83 9.75-1.01-2.92m3.84 1.88-2.77.77m-1.4 2.14-1.01-2.92m4.22 2.37-3.31.81m-1.43 2.02-1.01-2.92m4.54 2.1-3.31.81m-1.39 1.87-1.01-2.92m4.55 2.27-3.31.81m-1.33 1.83-1.01-2.92m4.44 2.3-3.31.81m-1.39 1.59-1.01-2.92m4.31 2.44-3.31.81m6.94 10.34-.9-2.95m3.76 2.03-2.79.66m-1.47 2.08-.9-2.95m4.12 2.53-3.34.68m-1.5 1.96-.9-2.95m4.46 2.27-3.34.68m-1.46 1.81-.9-2.95m4.46 2.44-3.34.68m-1.39 1.77-.9-2.95m4.35 2.47-3.34.68M137 262.4l-.9-2.95m4.21 2.6-3.34.68m7.21 8.37-1-2.92m3.82 1.89-2.77.76m-1.4 2.14-1-2.92m4.21 2.37-3.31.8m-1.43 2.02-1-2.92m4.52 2.12-3.31.8m-1.39 1.86-1-2.92m4.54 2.28-3.31.8m-1.34 1.82-1-2.92m4.43 2.32-3.31.8m-1.39 1.58-1-2.92m4.3 2.45-3.31.8m-18.56-89.35 1.21-2.82m-3.95 1.53 2.7 1.01m1.24 2.26 1.21-2.82m-4.37 1.99 3.24 1.1m1.28 2.14 1.21-2.82m-4.67 1.69 3.24 1.1m1.25 1.99 1.21-2.82m-4.69 1.86 3.24 1.1m1.19 1.93 1.21-2.82m-4.58 1.91 3.24 1.1m1.27 1.7 1.21-2.82m-4.46 2.05 3.24 1.1m-4.71 8.82 1.24-2.81M117.4 210l2.69 1.03m1.22 2.27 1.24-2.81m-4.38 1.95 3.23 1.13m1.25 2.15 1.24-2.81m-4.68 1.66 3.23 1.13m1.24 1.99 1.24-2.81m-4.72 1.82 3.23 1.13m1.18 1.94 1.24-2.81m-4.61 1.87 3.23 1.13m1.26 1.71 1.24-2.81m-4.48 2.01 3.23 1.13m-6.48 9.92.94-2.93m-3.79 1.94 2.78.72m1.45 2.13.94-2.93m-4.16 2.42 3.33.76m1.47 2 .94-2.93m-4.48 2.17 3.33.76m1.42 1.84.94-2.93m-4.49 2.34 3.33.76m1.36 1.8.94-2.93m-4.38 2.37 3.33.76m1.42 1.56.94-2.93m-4.24 2.51 3.33.76m-6.61 11.15.98-2.92m-3.81 1.88 2.77.77m1.42 2.14.98-2.92m-4.19 2.37 3.32.81m1.44 2.02.98-2.92m-4.51 2.1 3.32.81m1.4 1.87.98-2.92m-4.53 2.27 3.32.81m1.34 1.82.98-2.92m-4.41 2.31 3.32.81m1.39 1.58.98-2.92m-4.28 2.45 3.32.81m-7.24 9.92.63-3.02m-3.55 2.36 2.84.4m1.65 1.95.63-3.02m-3.88 2.88 3.38.38m1.67 1.82.63-3.02m-4.23 2.67 3.38.38m1.62 1.66.63-3.02m-4.22 2.84 3.38.38m1.55 1.63.63-3.02m-4.11 2.86 3.38.38m1.58 1.38.63-3.02m-3.96 2.98 3.38.38m15.09-108.56-1.17-2.85m3.92 1.63-2.72.94m-1.26 2.24-1.17-2.85m4.33 2.09-3.26 1.02m-1.3 2.11-1.17-2.85m4.64 1.81-3.25 1.02m-1.28 1.95-1.17-2.85m4.66 1.98-3.25 1.02m-1.22 1.9-1.17-2.85m4.55 2.02-3.26 1.02m-1.29 1.67-1.17-2.85m4.43 2.16-3.25 1.02m222.02-13.54-1.45-2.69m4.07 1.15-2.61 1.26m-1.03 2.37-1.45-2.69m4.52 1.56-3.13 1.4m-1.09 2.26-1.45-2.69m4.79 1.24-3.13 1.4m-1.08 2.1-1.45-2.69m4.84 1.4-3.13 1.4m-1.02 2.04-1.45-2.69m4.73 1.46-3.13 1.4m-1.12 1.82-1.45-2.69m4.62 1.62-3.13 1.4m-17.68 9.29 1.17-2.85m-3.93 1.63 2.72.94m1.27 2.23 1.17-2.85m-4.34 2.09 3.26 1.02m1.3 2.12 1.17-2.85m-4.64 1.81 3.25 1.02m1.29 1.95 1.17-2.85m-4.67 1.98 3.25 1.02m1.23 1.9 1.17-2.85m-4.56 2.02 3.26 1.02m1.29 1.67 1.17-2.85m-4.43 2.16 3.25 1.02m-6.23 9.76.97-2.93m-3.81 1.94 2.78.72m1.43 2.12.96-2.93m-4.18 2.43 3.32.76m1.46 2 .96-2.93m-4.5 2.17 3.32.76m1.42 1.84.96-2.93m-4.51 2.34 3.32.76m1.36 1.8.96-2.93m-4.4 2.37 3.32.76m1.41 1.56.96-2.93m-4.26 2.5 3.32.76m-5.84 9.74 1.01-2.92m-3.83 1.89 2.77.77m1.39 2.14 1.01-2.92m-4.21 2.36 3.31.81m1.42 2.03 1.01-2.92m-4.53 2.1 3.31.81m1.39 1.87 1.01-2.92m-4.55 2.27 3.31.81m1.33 1.82 1.01-2.92m-4.44 2.31 3.31.81m1.39 1.58 1.01-2.92m-4.31 2.45 3.31.81m-6.95 10.34.9-2.95m-3.75 2.03 2.79.66m1.47 2.08.9-2.95m-4.12 2.52 3.34.68m1.49 1.96.9-2.95m-4.45 2.28 3.34.68m1.46 1.8.9-2.95m-4.47 2.45 3.34.68m1.39 1.77.9-2.95m-4.35 2.47 3.34.68m1.45 1.52.9-2.95m-4.21 2.61 3.34.68m-7.21 8.37 1-2.92m-3.83 1.89 2.77.76m1.4 2.14 1-2.92m-4.2 2.37 3.31.8m1.43 2.02 1-2.92m-4.53 2.11 3.31.8m1.4 1.86 1-2.92m-4.54 2.29 3.31.8m1.33 1.82 1-2.92m-4.43 2.31 3.31.8m1.4 1.58 1-2.92m-4.3 2.46 3.31.8m18.56-89.36-1.21-2.82m3.95 1.54-2.7 1.01m-1.24 2.26-1.21-2.82m4.36 1.98-3.24 1.1m-1.27 2.15-1.21-2.82m4.66 1.69-3.24 1.1m-1.25 1.98-1.21-2.82m4.7 1.86-3.24 1.1m-1.2 1.94-1.21-2.82m4.59 1.9-3.24 1.1m-1.27 1.71-1.21-2.82m4.46 2.05-3.24 1.1m4.71 8.82-1.24-2.81m3.97 1.51-2.69 1.03m-1.23 2.27-1.24-2.81m4.39 1.94-3.23 1.13m-1.26 2.16-1.24-2.81m4.69 1.65-3.23 1.13m-1.24 1.99-1.24-2.81m4.72 1.83-3.23 1.13m-1.18 1.94-1.24-2.81m4.6 1.86-3.23 1.13m-1.25 1.71-1.24-2.81m4.48 2.02-3.23 1.13m6.48 9.92-.94-2.93m3.78 1.94-2.78.72m-1.44 2.12-.94-2.93m4.15 2.43-3.33.76m-1.46 2-.94-2.93m4.48 2.17-3.33.76m-1.43 1.84-.94-2.93m4.5 2.34-3.33.76m-1.37 1.8-.94-2.93m4.38 2.37-3.33.76m-1.42 1.56-.94-2.93m4.25 2.5-3.33.76m6.61 11.15-.98-2.92m3.81 1.89-2.77.77m-1.42 2.14-.98-2.92m4.19 2.36-3.32.81m-1.44 2.03-.98-2.92m4.51 2.1-3.32.81m-1.4 1.86-.98-2.92m4.53 2.28-3.32.81m-1.34 1.82-.98-2.92m4.41 2.31-3.32.81m-1.4 1.58-.98-2.92m4.28 2.44-3.32.81m7.24 9.93-.63-3.02m3.56 2.36-2.84.4m-1.65 1.95-.63-3.02m3.88 2.88-3.38.38m-1.67 1.82-.63-3.02m4.22 2.66-3.38.38m-1.61 1.67-.63-3.02m4.22 2.84-3.38.38m-1.55 1.63-.63-3.02m4.11 2.85-3.38.38m-1.58 1.39-.63-3.02m3.96 2.97-3.38.38m-15.09-108.56 1.17-2.85m-3.92 1.64 2.72.94m1.26 2.23 1.17-2.85m-4.33 2.09 3.26 1.02m1.3 2.12 1.17-2.85m-4.64 1.81 3.25 1.02m1.28 1.95 1.17-2.85m-4.67 1.98 3.25 1.02m1.23 1.9 1.17-2.85m-4.56 2.02 3.26 1.02m1.29 1.67 1.17-2.85m-4.43 2.16 3.25 1.02"/></g><g style="line-height:125%;-inkscape-font-specification:'Swiss 721 Black, Heavy';text-align:start" word-spacing="0"><path fill="#d4af37" d="M50.132 304.715c6.502-2.349 9.169-8.347 6.975-16.75-2.388-9.143-7.623-12.986-14.415-11.212-3.222.841-5.157 2.695-6.27 5.915-.826 2.356-.629 5.606-.618 9.743.012 3.252.128 4.943-1.527 5.375-1.437.375-2.406-.488-2.963-2.622-.637-2.438-.107-3.972 1.686-4.765l-2.49-9.536c-6.166 2.215-8.453 7.881-6.339 15.98 2.183 8.36 7.352 12.126 13.404 10.546 3.091-.807 5.18-2.608 6.284-5.5.573-1.546.792-4.626.788-9.276-.009-3.95-.312-5.825 1.647-6.336 1.35-.353 2.617.758 3.253 3.196.717 2.744.198 4.32-1.973 5.446zm1.753-35.431-2.256-26.409-7.846.67 1.37 16.052-4.976.425-1.115-13.047-7.398.632 1.115 13.047-4.304.368-1.318-15.424-7.712.659 2.202 25.78zm-2.349-31.555.958-9.809-15.093-1.473c-1.299-.127-2.777-.272-4.415-.16 2.309-.498 3.942-1.017 4.796-1.43l15.753-7.596.962-9.853-32.202-3.144-.962 9.853 15.183 1.482c1.523.149 3.005.248 4.415.16-2.309.498-3.893.976-4.796 1.43l-15.843 7.587-.957 9.808zm3.521-33.545 2.815-9.82-3.763-2.388 2.84-9.906 4.444.01 2.839-9.907-34.24 2.03-2.9 10.123 27.965 19.859zm-6.96-15.897-9.865-6.245 11.664-.028-1.798 6.273zm20.014-23.53 4.451-9.394-21.553-10.212 3.912-8.255-7.686-3.642-12.351 26.067 7.686 3.642 3.988-8.418zM76.51 143.88l15.095-21.787-6.474-4.485-9.174 13.243-4.106-2.845 7.457-10.764-6.103-4.228-7.457 10.764-3.551-2.46 8.815-12.725-6.362-4.408-14.736 21.27zm16.965-48.256c6.815 8.028 15.943 8.838 23.868 2.11 7.925-6.726 8.574-15.836 1.76-23.864-6.815-8.027-15.91-8.867-23.834-2.14-7.925 6.727-8.608 15.866-1.794 23.894zm7.994-6.785c-3.932-4.632-4.291-8.045-.929-10.899 3.362-2.854 6.638-1.916 10.569 2.716 3.931 4.631 4.325 8.016.963 10.87-3.362 2.853-6.672 1.944-10.603-2.687zm32.483-5.178 8.961-5.267-5.77-9.815 9.66-5.679-3.968-6.75-9.66 5.679-2.53-4.306 12.142-7.138-4.128-7.022-21.104 12.406zm45.263-22.011 9.935-3.059-7.018-22.794 8.73-2.688-2.502-8.129-27.568 8.488 2.503 8.128 8.902-2.74zm22.395-6.612 10.316-1.283-1.55-12.46 9.601-1.193 1.55 12.459 10.316-1.283-3.994-32.108-10.315 1.283 1.355 10.896-9.601 1.194-1.355-10.896-10.316 1.283zm36.6-3.747 26.466 1.44.428-7.863-16.087-.875.272-4.988 13.075.712.404-7.414-13.076-.712.235-4.314 15.457.842.42-7.729-25.836-1.406zm46.268 5.042 9.924 3.093 2.946-9.452 5.928 1.848c7.733 2.41 13.093-.114 15.235-6.988 1.219-3.909.728-7.173-1.548-10.003-2.012-2.466-5.372-3.937-10.14-5.424l-12.717-3.964zm15.227-13.92 1.968-6.315 3.18.99c3.48 1.086 5.09 1.965 4.207 4.8-.844 2.707-2.653 2.614-6.176 1.516zm16.61 24.296 9.189 4.86 5.87-11.099 8.552 4.524-5.87 11.098 9.19 4.86 15.126-28.601-9.19-4.86-5.133 9.706-8.552-4.523 5.133-9.707-9.189-4.86zm32.078 18.285 8.554 6.218 19.025-26.17-8.553-6.218zm13.881 10.131 17.95 16.712 5.857-6.29-10.342-9.63 16.191-17.389-7.608-7.083zm20.784 20.385 6.805 8.095 24.766-20.82-6.805-8.094zm11.158 13.097 5.56 8.783 8.365-5.295 3.322 5.247c4.332 6.844 10.05 8.39 16.134 4.539 3.46-2.19 5.2-4.996 5.298-8.626.063-3.182-1.545-6.479-4.216-10.7l-7.125-11.254zm20.617-.748 5.59-3.538 1.78 2.813c1.95 3.08 2.609 4.793.1 6.382-2.396 1.516-3.715.274-5.689-2.844l-1.781-2.813zm-3.198 29.323 3.922 9.626 9.168-3.736 2.344 5.751c3.056 7.502 8.412 10.033 15.08 7.316 3.792-1.546 6-4 6.737-7.556.623-3.121-.377-6.65-2.262-11.275l-5.026-12.335zm20.425 2.902 6.126-2.496 1.256 3.084c1.376 3.375 1.722 5.178-1.029 6.299-2.625 1.07-3.704-.386-5.097-3.803zm-8.673 28.564 2.64 10.24 31.33-8.078-2.64-10.24zm4.536 16.617 1.067 9.797 15.076-1.643c1.297-.14 2.773-.302 4.355-.746-2.16.96-3.652 1.801-4.403 2.381L430.15 225.71l1.072 9.841 32.165-3.503-1.072-9.842-15.166 1.652c-1.52.166-2.992.371-4.355.746 2.16-.96 3.612-1.752 4.404-2.38l13.957-10.665-1.067-9.797zm3.181 36.742-1.952 26.433 7.854.58 1.186-16.066 4.981.367-.964 13.06 7.405.546.964-13.059 4.309.318-1.14 15.438 7.719.57 1.905-25.805zm7.311 32.439c-6.833-1.053-12.046 2.935-14.145 11.363-2.284 9.17.471 15.05 7.283 16.747 3.231.805 5.817.104 8.336-2.19 1.854-1.672 3.238-4.62 5.21-8.256 1.548-2.86 2.256-4.4 3.915-3.987 1.44.359 1.879 1.581 1.346 3.72-.61 2.446-1.81 3.538-3.763 3.376l-2.382 9.563c6.473 1.01 11.196-2.869 13.219-10.99 2.088-8.385-.646-14.167-6.715-15.679-3.1-.772-5.796-.191-8.151 1.82-1.244 1.08-2.911 3.68-5.134 7.763-1.885 3.473-2.517 5.263-4.482 4.774-1.354-.337-1.933-1.92-1.324-4.365.685-2.75 1.895-3.887 4.34-3.834z" font-family="Swiss 721 Black" font-size="45" font-weight="900" letter-spacing=".2" style="-inkscape-font-specification:'Swiss 721 Black, Heavy'" transform="translate(-.66 -.2)"/></g><path fill="none" stroke="#d4af37" stroke-width=".917" d="M228.016 75.802z"/><use href="#a" transform="matrix(1.053 .037 -.037 1.061 -137.633 -198.007)"/><use href="#b" transform="matrix(1.053 .037 -.037 1.061 -137.633 -198.007)"/><use href="#c" transform="matrix(1.053 .037 -.037 1.061 -137.633 -198.007)"/><use stroke-width=".5" href="#d" transform="matrix(1.053 .037 -.037 1.061 -137.633 -198.007)"/><use href="#a" transform="matrix(1.053 .037 -.037 1.061 -196.233 -157.507)"/><use href="#b" transform="matrix(1.053 .037 -.037 1.061 -196.233 -157.507)"/><use href="#c" transform="matrix(1.053 .037 -.037 1.061 -196.233 -157.507)"/><use stroke-width=".5" href="#d" transform="matrix(1.053 .037 -.037 1.061 -196.233 -157.507)"/><use href="#a" transform="matrix(1.053 .037 -.037 1.061 -78.933 -157.507)"/><use href="#b" transform="matrix(1.053 .037 -.037 1.061 -78.933 -157.507)"/><use href="#c" transform="matrix(1.053 .037 -.037 1.061 -78.933 -157.507)"/><use stroke-width=".5" href="#d" transform="matrix(1.053 .037 -.037 1.061 -78.933 -157.507)"/><path fill="#fcd116" stroke="#d4af37" stroke-width=".999" d="m72.79 349.43-9.91-.503-4.973 8.585-2.583-9.58-9.703-2.076 8.314-5.417-1.023-9.87 7.721 6.233 9.07-4.024-3.542 9.27z"/><path fill="none" stroke="#d4af37" d="m52.916 330.568 6.875 12.66 13.004 6.201"/><path fill="none" stroke="#d4af37" d="m69.707 332.777-9.916 10.45-14.164 2.627m12.284 11.658 1.88-14.284"/><path fill="none" stroke="#d4af37" stroke-width=".5" d="m55.33 347.93 4.461-4.702 6.375-1.182"/><path fill="none" stroke="#d4af37" stroke-width=".5" d="m60.637 336.801-.846 6.427-5.851-2.79m8.945 8.487-3.094-5.696"/><path fill="#fcd116" stroke="#d4af37" stroke-width=".999" d="m410.512 349.43 9.91-.504 4.974 8.585 2.582-9.58 9.703-2.077-8.314-5.417 1.023-9.87-7.721 6.234-9.07-4.024 3.542 9.27z"/><path fill="none" stroke="#d4af37" d="m430.483 330.562-6.875 12.661-13.004 6.201"/><path fill="none" stroke="#d4af37" d="m413.692 332.772 9.916 10.45 14.165 2.627m-12.285 11.657-1.88-14.284"/><path fill="none" stroke="#d4af37" stroke-width=".5" d="m428.07 347.925-4.462-4.703-6.375-1.181m5.529-5.245.846 6.426 5.851-2.79m-8.945 8.488 3.094-5.697"/><path fill="none" d="M74.425 391.019a223.224 222.337 0 0 0 175.167 72.72 223.224 222.337 0 0 0 168.049-87.817M60.267 303.258a190.262 189.037 0 0 1 70.862-217.93 190.262 189.037 0 0 1 230.29 9.871 190.262 189.037 0 0 1 51.71 223.184"/><g style="line-height:125%;-inkscape-font-specification:'Swis721 BT, Bold';text-align:start" word-spacing="0"><path fill="#d4af37" d="M86.19 381.655c-6.805 7.253-6.59 15.905.57 22.623 7.158 6.718 15.776 6.353 22.581-.899s6.621-15.875-.538-22.593c-7.16-6.718-15.808-6.383-22.613.87zm7.221 6.776c3.926-4.184 7.09-4.886 10.128-2.036 3.037 2.85 2.507 6.024-1.419 10.208s-7.06 4.915-10.097 2.065-2.538-6.053 1.388-10.237zm11.234 30.197 8.082 5.573 6.104-8.852 8.712 6.008 4.198-6.088-8.712-6.008 2.678-3.883 10.952 7.551 4.366-6.333-19.033-13.124zm24.515 16.24 8.743 4.465 4.89-9.577 9.425 4.813 3.363-6.586-9.425-4.813 2.146-4.201 11.847 6.05 3.498-6.852-20.59-10.514zm26.657 12.768 9.33 3.562 10.898-28.548-9.33-3.562zm39.404-.111c-1.077 3.104-3.322 4.386-6.25 3.66-3.837-.952-5.162-4.259-3.82-9.663 1.36-5.486 3.892-7.747 7.646-6.816 3.052.757 4.354 2.744 3.896 5.827l9.116 2.262c1.326-7.815-2.673-13.405-11.294-15.545-9.28-2.303-16.57 2.194-18.976 11.888-2.395 9.652 1.896 17.066 11.424 19.43 8.539 2.12 14.82-1.139 17.292-8.802zm12.961 14.362 9.914 1.213 3.711-30.331-9.913-1.214zm15.395 2.191 9.647.046 1.21-4.031 9.732.047 1.128 4.043 9.732.047-10.604-30.61-9.945-.047-10.9 30.505zm12.673-10.394 3.153-10.567 3.009 10.597zm24.06 9.842 22.947-3.15-1.104-8.042-13.221 1.815-3.052-22.232-9.726 1.336zm40.627-17.148c2.785 5.906 8.661 7.881 16.368 5.073 8.386-3.055 11.534-8.318 9.265-14.548-1.077-2.955-2.991-4.61-6.118-5.37-2.288-.568-5.327-.095-9.215.282-3.057.3-4.637.558-5.19-.96-.48-1.317.246-2.305 2.203-3.018 2.236-.815 3.725-.453 4.63 1.163l8.745-3.186c-2.628-5.601-8.16-7.25-15.587-4.544-7.667 2.793-10.75 7.987-8.728 13.538 1.033 2.835 2.911 4.638 5.73 5.421 1.503.402 4.418.335 8.79-.081 3.714-.359 5.45-.81 6.104.987.451 1.238-.481 2.528-2.717 3.342-2.516.917-4.045.57-5.295-1.373l-8.985 3.274zm35.229-3.369 22.034-11.88-3.53-6.547-13.392 7.22-2.238-4.152 10.886-5.869-3.328-6.172-10.886 5.869-1.937-3.591 12.87-6.939-3.47-6.434-21.51 11.597zm25.622-13.939 7.728-5.776-1.464-3.947 7.795-5.826 3.337 2.547 7.795-5.827-26.906-18.039-7.966 5.954zm3.852-15.932-3.85-10.334 8.786 6.645zm25.13-6.645 16.4-16.356-5.731-5.747-9.45 9.423-15.845-15.89-6.952 6.932z" font-family="Swiss 721 Black" font-size="42.5" font-weight="900" letter-spacing="2.5" style="-inkscape-font-specification:'Swiss 721 Black, Heavy'" transform="translate(-.66 -.2)"/></g><path fill="none" stroke="#d4af37" stroke-width=".929" d="M221.527 72.865z"/><use href="#a" transform="matrix(.696 .024 -.024 .696 -8.873 -143.929)"/><use href="#b" transform="matrix(.696 .024 -.024 .696 -8.873 -143.929)"/><use href="#c" transform="matrix(.696 .024 -.024 .696 -8.873 -143.929)"/><use stroke-width=".5" href="#d" transform="matrix(.696 .024 -.024 .696 -8.873 -143.929)"/><use href="#a" transform="matrix(.678 -.157 .157 .679 -99.983 -66.344)"/><use href="#b" transform="matrix(.678 -.157 .157 .679 -99.983 -66.344)"/><use href="#c" transform="matrix(.678 -.157 .157 .679 -99.983 -66.344)"/><use stroke-width=".5" href="#d" transform="matrix(.678 -.157 .157 .679 -99.983 -66.344)"/><use href="#a" transform="rotate(-28 -18.645 351.065) scale(.697)"/><use href="#b" transform="rotate(-28 -18.645 351.065) scale(.697)"/><use href="#c" transform="rotate(-28 -18.645 351.065) scale(.697)"/><use stroke-width=".5" href="#d" transform="rotate(-28 -18.645 351.065) scale(.697)"/><use href="#a" transform="rotate(-43 80.724 334.02) scale(.697)"/><use href="#b" transform="rotate(-43 80.724 334.02) scale(.697)"/><use href="#c" transform="rotate(-43 80.724 334.02) scale(.697)"/><use stroke-width=".5" href="#d" transform="rotate(-43 80.724 334.02) scale(.697)"/><use href="#a" transform="matrix(.369 -.59 .59 .37 -214.925 263.11)"/><use href="#b" transform="matrix(.369 -.59 .59 .37 -214.925 263.11)"/><use href="#c" transform="matrix(.369 -.59 .59 .37 -214.925 263.11)"/><use stroke-width=".5" href="#d" transform="matrix(.369 -.59 .59 .37 -214.925 263.11)"/><use href="#a" transform="matrix(.204 -.666 .666 .204 -193.168 380.02)"/><use href="#b" transform="matrix(.204 -.666 .666 .204 -193.168 380.02)"/><use href="#c" transform="matrix(.204 -.666 .666 .204 -193.168 380.02)"/><use stroke-width=".5" href="#d" transform="matrix(.204 -.666 .666 .204 -193.168 380.02)"/><use href="#a" transform="matrix(.024 -.696 .696 .024 -141.865 487.652)"/><use href="#b" transform="matrix(.024 -.696 .696 .024 -141.865 487.652)"/><use href="#c" transform="matrix(.024 -.696 .696 .024 -141.865 487.652)"/><use stroke-width=".5" href="#d" transform="matrix(.024 -.696 .696 .024 -141.865 487.652)"/><use href="#a" transform="matrix(-.157 -.679 .678 -.157 -64.03 578.284)"/><use href="#b" transform="matrix(-.157 -.679 .678 -.157 -64.03 578.284)"/><use href="#c" transform="matrix(-.157 -.679 .678 -.157 -64.03 578.284)"/><use stroke-width=".5" href="#d" transform="matrix(-.157 -.679 .678 -.157 -64.03 578.284)"/><use href="#a" transform="matrix(-.327 -.615 .615 -.327 34.54 645.248)"/><use href="#b" transform="matrix(-.327 -.615 .615 -.327 34.54 645.248)"/><use href="#c" transform="matrix(-.327 -.615 .615 -.327 34.54 645.248)"/><use stroke-width=".5" href="#d" transform="matrix(-.327 -.615 .615 -.327 34.54 645.248)"/><use href="#a" transform="rotate(-133 222.288 310.275) scale(.697)"/><use href="#b" transform="rotate(-133 222.288 310.275) scale(.697)"/><use href="#c" transform="rotate(-133 222.288 310.275) scale(.697)"/><use stroke-width=".5" href="#d" transform="rotate(-133 222.288 310.275) scale(.697)"/><use href="#a" transform="matrix(-.59 -.37 .369 -.59 265.116 693.334)"/><use href="#b" transform="matrix(-.59 -.37 .369 -.59 265.116 693.334)"/><use href="#c" transform="matrix(-.59 -.37 .369 -.59 265.116 693.334)"/><use stroke-width=".5" href="#d" transform="matrix(-.59 -.37 .369 -.59 265.116 693.334)"/><use href="#a" transform="matrix(-.666 -.204 .204 -.666 381.917 671.557)"/><use href="#b" transform="matrix(-.666 -.204 .204 -.666 381.917 671.557)"/><use href="#c" transform="matrix(-.666 -.204 .204 -.666 381.917 671.557)"/><use stroke-width=".5" href="#d" transform="matrix(-.666 -.204 .204 -.666 381.917 671.557)"/><use href="#a" transform="matrix(-.696 -.024 .024 -.696 489.448 620.206)"/><use href="#b" transform="matrix(-.696 -.024 .024 -.696 489.448 620.206)"/><use href="#c" transform="matrix(-.696 -.024 .024 -.696 489.448 620.206)"/><use stroke-width=".5" href="#d" transform="matrix(-.696 -.024 .024 -.696 489.448 620.206)"/><use href="#a" transform="matrix(-.678 .157 -.157 -.679 579.995 542.298)"/><use href="#b" transform="matrix(-.678 .157 -.157 -.679 579.995 542.298)"/><use href="#c" transform="matrix(-.678 .157 -.157 -.679 579.995 542.298)"/><use stroke-width=".5" href="#d" transform="matrix(-.678 .157 -.157 -.679 579.995 542.298)"/><use href="#a" transform="matrix(-.615 .327 -.327 -.615 646.897 443.636)"/><use href="#b" transform="matrix(-.615 .327 -.327 -.615 646.897 443.636)"/><use href="#c" transform="matrix(-.615 .327 -.327 -.615 646.897 443.636)"/><use stroke-width=".5" href="#d" transform="matrix(-.615 .327 -.327 -.615 646.897 443.636)"/><use href="#a" transform="rotate(137 277.812 300.659) scale(.697)"/><use href="#b" transform="rotate(137 277.812 300.659) scale(.697)"/><use href="#c" transform="rotate(137 277.812 300.659) scale(.697)"/><use stroke-width=".5" href="#d" transform="rotate(137 277.812 300.659) scale(.697)"/><use href="#a" transform="matrix(-.369 .59 -.59 -.37 694.937 212.844)"/><use href="#b" transform="matrix(-.369 .59 -.59 -.37 694.937 212.844)"/><use href="#c" transform="matrix(-.369 .59 -.59 -.37 694.937 212.844)"/><use stroke-width=".5" href="#d" transform="matrix(-.369 .59 -.59 -.37 694.937 212.844)"/><use href="#a" transform="matrix(-.204 .666 -.666 -.204 673.18 95.934)"/><use href="#b" transform="matrix(-.204 .666 -.666 -.204 673.18 95.934)"/><use href="#c" transform="matrix(-.204 .666 -.666 -.204 673.18 95.934)"/><use stroke-width=".5" href="#d" transform="matrix(-.204 .666 -.666 -.204 673.18 95.934)"/><use href="#a" transform="matrix(-.024 .696 -.696 -.024 621.877 -11.698)"/><use href="#b" transform="matrix(-.024 .696 -.696 -.024 621.877 -11.698)"/><use href="#c" transform="matrix(-.024 .696 -.696 -.024 621.877 -11.698)"/><use stroke-width=".5" href="#d" transform="matrix(-.024 .696 -.696 -.024 621.877 -11.698)"/><use href="#a" transform="matrix(.157 .679 -.678 .157 544.043 -102.33)"/><use href="#b" transform="matrix(.157 .679 -.678 .157 544.043 -102.33)"/><use href="#c" transform="matrix(.157 .679 -.678 .157 544.043 -102.33)"/><use stroke-width=".5" href="#d" transform="matrix(.157 .679 -.678 .157 544.043 -102.33)"/><use href="#a" transform="rotate(62 363.858 286.241) scale(.697)"/><use href="#b" transform="rotate(62 363.858 286.241) scale(.697)"/><use href="#c" transform="rotate(62 363.858 286.241) scale(.697)"/><use stroke-width=".5" href="#d" transform="rotate(62 363.858 286.241) scale(.697)"/><use href="#a" transform="rotate(47 406.146 278.673) scale(.697)"/><use href="#b" transform="rotate(47 406.146 278.673) scale(.697)"/><use href="#c" transform="rotate(47 406.146 278.673) scale(.697)"/><use stroke-width=".5" href="#d" transform="rotate(47 406.146 278.673) scale(.697)"/><use href="#a" transform="matrix(.59 .37 -.369 .59 214.897 -217.38)"/><use href="#b" transform="matrix(.59 .37 -.369 .59 214.897 -217.38)"/><use href="#c" transform="matrix(.59 .37 -.369 .59 214.897 -217.38)"/><use stroke-width=".5" href="#d" transform="matrix(.59 .37 -.369 .59 214.897 -217.38)"/><use href="#a" transform="matrix(.666 .204 -.204 .666 98.096 -195.603)"/><use href="#b" transform="matrix(.666 .204 -.204 .666 98.096 -195.603)"/><use href="#c" transform="matrix(.666 .204 -.204 .666 98.096 -195.603)"/><use stroke-width=".5" href="#d" transform="matrix(.666 .204 -.204 .666 98.096 -195.603)"/></svg>