<svg xmlns="http://www.w3.org/2000/svg"
  viewBox="0 0 16 16">
  <path
    fill="#fff"
    d="m13.148 12.43 1.098.61c.274-.411.543-.813.813-1.22-.332-.261-.66-.52-.993-.78.149-.298.274-.599.38-.915l1.242.14c.019-.05.285-1.394.28-1.437-.402-.113-.804-.226-1.202-.336.004-.172.011-.336.011-.496 0-.164-.007-.328-.011-.496.398-.113.8-.23 1.203-.348a185.9 185.9 0 0 0-.285-1.433c-.418.05-.832.097-1.25.148a7.52 7.52 0 0 0-.383-.914c.332-.262.656-.523.984-.781-.273-.41-.543-.813-.812-1.219-.371.207-.735.41-1.102.617a6.948 6.948 0 0 0-.703-.695c.207-.371.41-.734.613-1.102-.41-.273-.812-.543-1.219-.812-.261.332-.519.66-.78.988a7.13 7.13 0 0 0-.915-.375l.07-.625c.024-.207.051-.414.07-.62A30.596 30.596 0 0 0 8.82.046l-.34 1.207a7.585 7.585 0 0 0-.988.004c-.117-.405-.23-.808-.347-1.21a227.7 227.7 0 0 1-1.438.285c.05.422.102.836.152 1.254-.316.105-.617.23-.914.379-.261-.328-.523-.653-.785-.985-.406.274-.812.543-1.215.817.207.371.41.734.618 1.101-.25.22-.481.45-.7.7-.367-.203-.73-.407-1.101-.61-.27.407-.54.809-.813 1.215.332.266.664.524.992.781a6.97 6.97 0 0 0-.375.914l-1.25-.14c-.097.48-.191.957-.285 1.437l1.215.34c-.023.332-.02.66 0 .988-.406.118-.805.235-1.207.348.094.484.188.961.285 1.438.422-.051.836-.098 1.25-.149.11.317.235.617.383.91l-.984.785c.273.41.543.813.812 1.22.371-.212.735-.415 1.102-.618.218.246.453.48.703.695-.207.371-.406.735-.61 1.102.407.273.81.543 1.215.812.266-.332.524-.66.782-.992.3.153.601.274.914.38l-.141 1.241c.09.032 1.395.285 1.438.282l.34-1.204c.331.02.66.02.988-.003.058.207.117.406.175.609.059.2.114.398.172.601l1.438-.285c-.051-.422-.102-.836-.149-1.254.313-.109.618-.234.91-.382.262.328.52.656.786.984.406-.27.808-.543 1.214-.813-.207-.367-.41-.734-.613-1.097.121-.117.239-.227.356-.34.113-.117.226-.238.343-.363zm0 0" />
  <path
    fill="#211d70"
    d="M13.148 12.43c-.117.125-.23.246-.343.363-.117.113-.235.223-.356.34.203.363.406.73.614 1.097-.407.274-.81.543-1.215.813-.266-.328-.524-.656-.786-.984a7.465 7.465 0 0 1-.91.382c.047.418.098.832.149 1.254-.48.094-.953.188-1.438.285-.058-.203-.113-.402-.172-.601-.058-.203-.117-.402-.175-.61a7.582 7.582 0 0 1-.989.004c-.113.403-.226.805-.34 1.204a28.46 28.46 0 0 1-1.437-.282c.047-.41.094-.824.14-1.242a6.838 6.838 0 0 1-.913-.379c-.258.332-.516.66-.782.992a367.2 367.2 0 0 1-1.215-.812l.61-1.102a7.384 7.384 0 0 1-.703-.695c-.367.203-.73.41-1.102.617l-.812-1.219c.328-.257.652-.52.984-.78a6.927 6.927 0 0 1-.379-.915l-1.254.149C.227 9.832.133 9.355.04 8.87c.402-.113.8-.23 1.207-.348a7.585 7.585 0 0 1 0-.988l-1.215-.34c.094-.48.188-.957.285-1.437l1.25.14a6.97 6.97 0 0 1 .375-.914c-.328-.257-.66-.515-.992-.78.274-.407.543-.81.813-1.216.37.203.734.407 1.101.61.219-.246.45-.48.7-.7-.208-.367-.41-.73-.618-1.101.403-.274.809-.543 1.215-.817.262.333.524.657.785.985.297-.149.598-.274.914-.38L5.707.333c.48-.094.953-.187 1.438-.285.117.402.23.805.347 1.21.332-.023.656-.023.988-.003L8.82.047c.047-.004 1.313.246 1.438.281-.02.207-.047.414-.07.621l-.07.625c.312.106.616.227.913.375.262-.328.52-.656.781-.988l1.22.812-.614 1.102c.25.215.484.445.703.695.367-.207.73-.41 1.102-.617l.812 1.219c-.328.258-.652.52-.984.781.148.297.273.598.383.914.418-.05.832-.097 1.25-.148.097.48.191.953.285 1.433-.403.118-.805.235-1.203.348.004.168.011.332.011.496 0 .16-.007.324-.011.496.398.11.8.223 1.203.336.004.043-.262 1.387-.281 1.438l-1.243-.141c-.105.316-.23.617-.379.914l.993.781c-.27.407-.54.809-.813 1.22l-1.098-.61zm0 0" />
  <path
    d="M14.516 8.02c-.004-3.602-2.899-6.516-6.504-6.516a6.505 6.505 0 0 0-6.52 6.457 6.507 6.507 0 0 0 6.504 6.562 6.505 6.505 0 0 0 6.52-6.503zm0 0" />
  <path
    fill="#fff"
    d="M14.516 8.02a6.505 6.505 0 0 1-6.52 6.503 6.507 6.507 0 0 1-6.504-6.562 6.505 6.505 0 0 1 6.52-6.457c3.605 0 6.5 2.914 6.504 6.516zm0 0" />
  <path
    fill="#fff"
    d="M8.004 1.824C4.617 1.82 1.87 4.547 1.82 7.887c-.03 1.734.578 3.222 1.778 4.472 1.183 1.172 2.605 1.805 4.27 1.836 1.753.035 3.253-.582 4.51-1.8 1.157-1.188 1.778-2.606 1.813-4.262a6.184 6.184 0 0 0-6.187-6.309zm0 0" />
  <path
    fill="#211d70"
    d="M8.004 1.824a6.184 6.184 0 0 1 6.187 6.309c-.035 1.656-.656 3.074-1.812 4.262-1.258 1.218-2.758 1.835-4.512 1.8-1.664-.03-3.086-.664-4.27-1.836C2.399 11.11 1.79 9.621 1.82 7.887c.051-3.34 2.797-6.067 6.184-6.063zm0 0" />
  <path
    d="M5.047 13.152c.012-.015.023-.027.031-.039.192-.226.383-.457.574-.683l1.606-1.918c.05-.059.101-.114.14-.176.094-.145.168-.297.223-.461.043-.125.078-.254.078-.39V4.733h-.715c0 .02-.004.04-.004.059-.003.039-.003.082-.007.121-.008.14-.02.281-.028.422a9.746 9.746 0 0 1-.015.285c-.008.14-.02.281-.028.422-.004.094-.007.191-.015.285-.008.14-.02.285-.028.426a6.78 6.78 0 0 0-.015.281c-.008.14-.02.285-.028.426a8.812 8.812 0 0 0-.015.281c-.008.145-.024.285-.028.426 0 .125-.035.23-.117.32-.043.047-.09.094-.14.133-.153.11-.305.219-.461.324-.414.293-.828.582-1.242.871-.567.399-1.133.793-1.7 1.192-.054.035-.105.074-.16.113a6.026 6.026 0 0 0 2.094 2.031zm3.285-8.418V9.48c0 .036.004.07.008.102.023.176.078.34.152.496.051.113.106.23.188.328.375.45.75.895 1.129 1.344.37.445.746.89 1.117 1.336.015.02.035.035.05.055a5.903 5.903 0 0 0 2.083-2.032c-.016-.011-.024-.02-.036-.027-.476-.336-.953-.668-1.43-1.004-.5-.348-1-.695-1.495-1.047l-.57-.398a.758.758 0 0 1-.192-.195.338.338 0 0 1-.07-.168 6.798 6.798 0 0 1-.02-.282l-.023-.41a18.15 18.15 0 0 1-.032-.469l-.023-.421c-.008-.11-.016-.215-.02-.325-.007-.09-.011-.18-.015-.27-.008-.136-.02-.269-.028-.405-.011-.137-.015-.274-.023-.41-.008-.133-.016-.27-.027-.403 0-.047-.008-.094-.012-.14h-.711zm0 0" />
  <path
    d="M9.969 8.738v-.996c0-.047.008-.086.027-.125a.187.187 0 0 1 .336 0c.02.04.031.082.031.125-.004.403-.004.809-.004 1.211v.067c.2.136.391.273.598.414V7.692a.182.182 0 0 1 .242-.172.137.137 0 0 1 .098.093c.004.028.008.055.008.082V9.68c.261.183.523.367.789.55 0-.023.004-.039.004-.054V7.5c0-.172-.11-.277-.278-.281H9.422c-.02 0-.035.004-.059.004.008.09.012.175.016.261.008.137.02.274.027.41.004.098.012.196.016.293 0 .09.039.16.101.223.04.035.082.074.125.11.094.066.188.128.282.195.008.008.02.012.039.023zM3.934 10.23c.023-.011.035-.023.05-.03.23-.16.461-.325.692-.485.035-.024.05-.05.05-.098V7.645a.141.141 0 0 1 .118-.13c.117-.019.199.032.226.153.008.02.004.039.004.059v1.707c.207-.145.403-.278.598-.414v-.618c0-.222 0-.445-.004-.668 0-.058.02-.109.055-.156a.181.181 0 0 1 .289.008.24.24 0 0 1 .05.152v.938c0 .02.004.039.004.058.008-.004.016-.004.02-.007.105-.075.21-.145.312-.223.055-.04.102-.09.149-.14a.222.222 0 0 0 .058-.157c.004-.098.012-.195.02-.297l.023-.41c.008-.09.012-.184.016-.277-.016 0-.031-.004-.047-.004-.804 0-1.61 0-2.414.004a.322.322 0 0 0-.101.015c-.102.032-.168.133-.168.258v2.734zm8.636-5.496H9.21l.036.559c.07.012 3.285.008 3.324-.004v-.555zm-9.113 0c0 .192 0 .38.004.563h3.316c.004-.008.008-.012.008-.02.012-.18.024-.359.031-.543H3.457zm3.309.871H3.64c.007.012.011.024.015.032.106.148.215.297.317.445.02.027.039.031.066.031h2.645c.015 0 .03 0 .05-.004.012-.168.02-.332.032-.504zm5.629 0h-3.13c.012.172.016.34.032.508h2.688c.038 0 .058-.011.081-.039.055-.086.114-.164.168-.246.051-.07.102-.144.16-.223zm-3.071.997h2.516c.035-.004.07-.012.09-.043.043-.063.03-.18-.063-.207-.02-.004-.043-.012-.066-.012H9.35a.19.19 0 0 0-.042.008c.007.086.011.168.015.254zM6.719 6.34H4.207c-.047.008-.094.023-.117.074-.047.098.012.188.12.188h2.454c.012 0 .027-.004.04-.004.007-.086.01-.168.015-.258zm-.028.46c-.02 0-.039-.003-.054-.003H4.164c-.047.008-.074.039-.074.086.004.043.031.07.078.078h2.516a2 2 0 0 1 .007-.16zm2.653.16h2.524a.08.08 0 0 0 .07-.081c0-.043-.028-.074-.07-.082H9.39c-.016 0-.032.004-.047.004v.16zm0 0" />
  <path
    fill="#da471f"
    d="M5.047 13.152a6.026 6.026 0 0 1-2.094-2.03c.055-.04.106-.079.16-.114.567-.399 1.133-.793 1.7-1.192.414-.289.828-.578 1.242-.87.156-.106.308-.216.46-.325a1.11 1.11 0 0 0 .141-.133.452.452 0 0 0 .117-.32c.004-.14.02-.281.028-.426.004-.094.008-.187.015-.281.008-.14.02-.285.028-.426a6.78 6.78 0 0 1 .015-.281c.008-.14.02-.285.028-.426.008-.094.011-.191.015-.285.008-.14.02-.281.028-.422.008-.098.011-.191.015-.289.008-.137.02-.277.028-.418.004-.039.004-.082.007-.121 0-.02.004-.04.004-.059H7.7v4.75c0 .137-.035.266-.078.391a2.008 2.008 0 0 1-.223.46c-.039.063-.09.118-.14.177L5.652 12.43c-.191.226-.382.457-.574.683-.008.012-.02.024-.031.04zm3.285-8.418h.711c.004.047.012.094.012.141.011.133.02.27.027.402.008.137.012.274.023.41.008.137.02.27.028.407.004.09.008.18.015.27.004.109.012.214.02.324l.023.421c.008.157.02.313.032.47l.023.41c.004.093.012.187.02.28a.338.338 0 0 0 .07.168c.05.079.117.141.191.196l.57.398c.497.352.997.7 1.497 1.047.476.336.953.668 1.43 1.004.011.008.019.016.035.027a5.903 5.903 0 0 1-2.082 2.031c-.016-.019-.036-.035-.051-.054-.371-.445-.746-.89-1.117-1.336a343.3 343.3 0 0 1-1.13-1.344 1.371 1.371 0 0 1-.187-.328 1.664 1.664 0 0 1-.152-.496.825.825 0 0 1-.008-.102V4.734zm0 0" />
  <path
    fill="#fff"
    d="M9.969 8.738c-.02-.011-.031-.015-.04-.023-.093-.067-.187-.13-.28-.195-.044-.036-.086-.075-.126-.11a.305.305 0 0 1-.101-.223c-.004-.097-.012-.195-.016-.289-.008-.14-.02-.277-.027-.414a6.081 6.081 0 0 0-.016-.261c.024 0 .04-.004.059-.004h2.398c.168.004.278.11.278.281v2.676c0 .015-.004.031-.004.054-.266-.183-.528-.367-.79-.55V7.695a.58.58 0 0 0-.007-.082.139.139 0 0 0-.098-.093.183.183 0 0 0-.242.171v1.743c-.207-.141-.398-.278-.598-.414v-.067c0-.402 0-.808.004-1.21a.282.282 0 0 0-.031-.126.187.187 0 0 0-.336 0 .267.267 0 0 0-.027.125v.996zM3.934 10.23V7.496c0-.125.066-.226.168-.258a.322.322 0 0 1 .101-.015c.805-.004 1.61-.004 2.414-.004.016 0 .031.004.047.004-.004.093-.008.187-.016.277l-.023.41c-.008.102-.016.2-.02.297 0 .063-.02.113-.058.156-.047.051-.094.102-.149.14-.101.079-.207.15-.312.224-.004.003-.012.003-.02.007 0-.02-.003-.039-.003-.058v-.938a.239.239 0 0 0-.051-.152.181.181 0 0 0-.29-.008.253.253 0 0 0-.054.156c.004.223.004.446.004.668v.618l-.598.414V7.727c0-.02.004-.04-.004-.059-.027-.121-.11-.172-.226-.152a.141.141 0 0 0-.117.129v1.972a.105.105 0 0 1-.051.098c-.23.16-.461.324-.692.484-.015.008-.027.02-.05.031zm8.636-5.496v.555c-.039.012-3.254.016-3.324.004a212.35 212.35 0 0 1-.035-.559h3.36zm-9.113 0h3.36c-.008.184-.02.364-.032.543 0 .008-.004.012-.008.02H3.461c-.004-.184-.004-.371-.004-.563zm3.309.871c-.012.172-.02.336-.032.504a.233.233 0 0 1-.05.004H4.039c-.027 0-.047-.004-.066-.031-.102-.148-.211-.297-.317-.445-.004-.008-.008-.02-.015-.032h3.125zm5.629 0c-.06.079-.11.153-.16.223-.055.082-.114.16-.169.246-.023.028-.043.04-.082.04H9.297c-.016-.169-.02-.337-.031-.509h3.129zm-3.071.997a5.535 5.535 0 0 0-.015-.254c.015-.004.03-.008.043-.008H11.8c.023 0 .047.008.066.012.094.027.106.144.063.207-.02.03-.055.039-.09.043H9.324zM6.719 6.34c-.004.09-.008.172-.016.258-.012 0-.027.004-.039.004H4.211c-.11 0-.168-.09-.121-.188.023-.05.07-.066.117-.074h2.511zm-.028.46a2 2 0 0 0-.007.16H4.168c-.047-.007-.074-.034-.078-.077 0-.047.027-.078.074-.086h2.473c.015 0 .035.004.054.004zm2.653.16V6.8c.015 0 .031-.003.047-.003h2.477c.042.008.07.039.07.082 0 .043-.028.074-.07.082H9.343zm0 0" />
</svg>
